<?xml version="1.0" encoding="utf-8"?>
<!-- Generator: Adobe Illustrator 25.4.1, SVG Export Plug-In . SVG Version: 6.00 Build 0)  -->
<svg version="1.1" id="Ebene_1" xmlns="http://www.w3.org/2000/svg" xmlns:xlink="http://www.w3.org/1999/xlink" x="0px" y="0px"
	 viewBox="0 0 354.7 113.5" style="enable-background:new 0 0 354.7 113.5;" xml:space="preserve">
<style type="text/css">
	.st0{fill:#FCD245;}
	.st1{fill:#FFFFFF;}
	.st2{fill:#CF172E;}
	.st3{fill:none;stroke:#CF172E;stroke-miterlimit:10;}
	.st4{display:none;}
</style>
<g id="Ebene_9">
</g>
<g id="Stadt_x5F_hinten">
	<g>
		<g>
			<polygon class="st0" points="20.8,23.9 31.4,19.6 31.6,86.9 20.8,86.9 			"/>
		</g>
		<g>
			<polygon class="st1" points="41.9,25.6 52.7,4.1 52.7,86.9 41.9,86.9 			"/>
		</g>
		<g>
			<polygon class="st1" points="0.5,23.9 10.5,13.6 11.4,86.9 0.5,86.9 			"/>
		</g>
		<g>
			<polygon class="st0" points="63,25.2 73.5,17.4 73.9,88.3 63,88.3 			"/>
		</g>
		<g>
			<polygon class="st1" points="83.4,25.2 93.8,15.6 94.2,88.3 83.4,88.3 			"/>
		</g>
		<g>
			<polygon class="st0" points="104.3,25.2 113.9,12.4 115.2,88.3 104.3,88.3 			"/>
		</g>
		<g>
			<polygon class="st1" points="124.7,25.9 134.8,8.6 136.1,88.3 124.7,88.3 			"/>
		</g>
		<g>
			<polygon class="st0" points="145.3,25.2 156.3,17.5 157.7,88.3 145.3,88.3 			"/>
		</g>
		<g>
			<polygon class="st1" points="165.5,26.2 176.9,14.4 178,89.3 165.5,89.3 			"/>
		</g>
		<g>
			<polygon class="st0" points="186.5,27.3 197.4,10.7 198.7,88.3 186.2,88.3 			"/>
		</g>
		<g>
			<polygon class="st1" points="207.2,27.3 217.7,16.6 219.4,88.3 207,88.3 			"/>
		</g>
		<g>
			<polygon class="st0" points="227.9,27.3 238.4,5.7 240.1,88.3 227.7,88.3 			"/>
		</g>
		<g>
			<polygon class="st1" points="248.3,26.3 259.2,10.2 259.2,88.3 248.3,88.3 			"/>
		</g>
		<g>
			<polygon class="st0" points="269.1,26.2 280.2,18.3 281.4,88.3 269,88.3 			"/>
		</g>
		<g>
			<polygon class="st2" points="21.2,22.9 10.3,12.5 10.3,86.4 21.2,86.4 			"/>
		</g>
		<g>
			<polygon class="st2" points="42.1,23.9 31.3,18.9 31.3,86.9 42.1,86.9 			"/>
		</g>
		<g>
			<polygon class="st2" points="83.7,24.4 73.1,16.6 73.1,86.1 83.7,86.1 			"/>
		</g>
		<g>
			<polygon class="st2" points="104.6,24.7 93.3,14.6 93.3,86.1 104.6,86.1 			"/>
		</g>
		<g>
			<polygon class="st2" points="125.1,24.5 113.8,11.1 113.8,86.1 125.1,86.1 			"/>
		</g>
		<g>
			<polygon class="st2" points="145.9,24.5 134.6,7.3 134.6,86.1 145.9,86.1 			"/>
		</g>
		<g>
			<polygon class="st2" points="166.8,24.5 156,16.7 156,86.1 166.8,86.1 			"/>
		</g>
		<g>
			<polygon class="st2" points="187.5,25.6 176.7,13.3 176.7,86.1 187.5,86.1 			"/>
		</g>
		<g>
			<polygon class="st2" points="208,25.8 197.2,9.1 197.2,86.1 208,86.1 			"/>
		</g>
		<g>
			<polygon class="st2" points="228.6,25 217.4,15.6 217.4,86.1 228.6,86.1 			"/>
		</g>
		<g>
			<polygon class="st2" points="248.9,24.2 238.1,4 238.1,86.1 248.9,86.1 			"/>
		</g>
		<g>
			<polygon class="st2" points="269.5,25.3 258.7,9.5 258.7,86.1 269.5,86.1 			"/>
		</g>
		<g>
			<polygon class="st2" points="290.8,25.9 280,17.4 280,86.1 290.8,86.1 			"/>
		</g>
		<g>
			<polygon class="st2" points="64.2,24.3 52.6,2.4 52.6,86.9 64.2,86.9 			"/>
		</g>
		<g>
			<path class="st3" d="M0.2,24.1l10.5-11.2L0.2,24.1z"/>
		</g>
		<path class="st3" d="M0.3,23.7v61.9V23.7z"/>
		<line class="st3" x1="20.9" y1="23.6" x2="31.5" y2="19.4"/>
		<polygon class="st2" points="52.6,3.4 52.6,2.5 52.6,2.4 41,26.2 41.9,26.6 52.6,4.7 		"/>
		<line class="st3" x1="63.5" y1="25.6" x2="73.4" y2="17"/>
		<line class="st3" x1="83.3" y1="25.6" x2="93.7" y2="15"/>
		<polygon class="st2" points="113.8,11.6 113.8,11.6 113.8,11.1 103.7,26 104.5,26.6 113.9,12.8 113.9,11.7 113.8,11.7 		"/>
		<polygon class="st2" points="134.6,7.3 124.1,26.3 125,26.8 134.6,9.4 		"/>
		<line class="st3" x1="145.1" y1="25.7" x2="156.3" y2="17.1"/>
		<polygon class="st2" points="176.7,13.4 176.7,13.4 165.9,25.5 166.7,26.2 176.7,14.9 		"/>
		<polygon class="st2" points="197.2,10.7 197.2,9.2 197.2,9.2 186.5,27.3 187.3,27.8 197.4,10.7 		"/>
		<line class="st3" x1="207.5" y1="27" x2="217.8" y2="16"/>
		<polygon class="st2" points="238.1,4.6 238.1,4 227.7,27.1 228.6,27.5 238.2,6.4 238.2,4.6 		"/>
		<polygon class="st2" points="258.7,10.9 258.7,9.5 258.7,9.5 248,25.5 248.9,26.1 259,10.9 		"/>
		<line class="st3" x1="269.1" y1="26.2" x2="280.3" y2="17.8"/>
		<g>
			<polygon class="st2" points="3.7,26.5 1.8,28.5 1.8,25.2 3.7,23.2 			"/>
			<polygon class="st2" points="6.6,23.3 4.7,25.3 4.7,22.1 6.6,20.1 			"/>
			<polygon class="st2" points="9.5,20.2 7.6,22.2 7.6,19 9.5,17 			"/>
			<polygon class="st2" points="3.7,31.7 1.8,33.7 1.8,30.4 3.7,28.4 			"/>
			<polygon class="st2" points="6.6,28.6 4.7,30.6 4.7,27.3 6.6,25.3 			"/>
			<polygon class="st2" points="9.5,25.4 7.6,27.5 7.6,24.2 9.5,22.2 			"/>
			<polygon class="st2" points="3.7,36.9 1.8,38.9 1.8,35.6 3.7,33.6 			"/>
			<polygon class="st2" points="6.6,33.8 4.7,35.8 4.7,32.5 6.6,30.5 			"/>
			<polygon class="st2" points="9.5,30.7 7.6,32.7 7.6,29.4 9.5,27.4 			"/>
			<polygon class="st2" points="3.7,42.1 1.8,44.1 1.8,40.9 3.7,38.9 			"/>
			<polygon class="st2" points="6.6,39 4.7,41 4.7,37.7 6.6,35.7 			"/>
			<polygon class="st2" points="9.5,35.9 7.6,37.9 7.6,34.6 9.5,32.6 			"/>
			<polygon class="st2" points="3.7,47.3 1.8,49.4 1.8,46.1 3.7,44.1 			"/>
			<polygon class="st2" points="6.6,44.2 4.7,46.2 4.7,43 6.6,41 			"/>
			<polygon class="st2" points="9.5,41.1 7.6,43.1 7.6,39.9 9.5,37.8 			"/>
			<polygon class="st2" points="3.7,52.6 1.8,54.6 1.8,51.3 3.7,49.3 			"/>
			<polygon class="st2" points="6.6,49.5 4.7,51.5 4.7,48.2 6.6,46.2 			"/>
			<polygon class="st2" points="9.5,46.3 7.6,48.3 7.6,45.1 9.5,43.1 			"/>
			<polygon class="st2" points="3.7,57.8 1.8,59.8 1.8,56.5 3.7,54.5 			"/>
			<polygon class="st2" points="6.6,54.7 4.7,56.7 4.7,53.4 6.6,51.4 			"/>
			<polygon class="st2" points="9.5,51.6 7.6,53.6 7.6,50.3 9.5,48.3 			"/>
			<polygon class="st2" points="3.7,63 1.8,65 1.8,61.7 3.7,59.7 			"/>
			<polygon class="st2" points="6.6,59.9 4.7,61.9 4.7,58.6 6.6,56.6 			"/>
			<polygon class="st2" points="9.5,56.8 7.6,58.8 7.6,55.5 9.5,53.5 			"/>
			<polygon class="st2" points="3.7,68.2 1.8,70.2 1.8,67 3.7,65 			"/>
			<polygon class="st2" points="6.6,65.1 4.7,67.1 4.7,63.9 6.6,61.8 			"/>
			<polygon class="st2" points="9.5,62 7.6,64 7.6,60.7 9.5,58.7 			"/>
			<polygon class="st2" points="3.7,73.5 1.8,75.5 1.8,72.2 3.7,70.2 			"/>
			<polygon class="st2" points="6.6,70.3 4.7,72.3 4.7,69.1 6.6,67.1 			"/>
			<polygon class="st2" points="9.5,67.2 7.6,69.2 7.6,66 9.5,64 			"/>
			<polygon class="st2" points="3.7,78.7 1.8,80.7 1.8,77.4 3.7,75.4 			"/>
			<polygon class="st2" points="6.6,75.6 4.7,77.6 4.7,74.3 6.6,72.3 			"/>
			<polygon class="st2" points="9.5,72.4 7.6,74.5 7.6,71.2 9.5,69.2 			"/>
			<polygon class="st2" points="3.7,83.9 1.8,85.9 1.8,82.6 3.7,80.6 			"/>
			<polygon class="st2" points="6.6,80.8 4.7,82.8 4.7,79.5 6.6,77.5 			"/>
			<polygon class="st2" points="9.5,77.7 7.6,79.7 7.6,76.4 9.5,74.4 			"/>
		</g>
		<g>
			<polygon class="st2" points="24.2,27.2 22.4,27.9 22.4,25.1 24.2,24.3 			"/>
			<polygon class="st2" points="27.1,26 25.3,26.8 25.3,23.9 27.1,23.2 			"/>
			<polygon class="st2" points="30,24.9 28.2,25.6 28.2,22.8 30,22 			"/>
			<polygon class="st2" points="24.2,31.7 22.4,32.5 22.4,29.6 24.2,28.9 			"/>
			<polygon class="st2" points="27.1,30.5 25.3,31.3 25.3,28.5 27.1,27.7 			"/>
			<polygon class="st2" points="30,29.4 28.2,30.1 28.2,27.3 30,26.6 			"/>
			<polygon class="st2" points="24.2,36.2 22.4,37 22.4,34.1 24.2,33.4 			"/>
			<polygon class="st2" points="27.1,35.1 25.3,35.8 25.3,33 27.1,32.2 			"/>
			<polygon class="st2" points="30,33.9 28.2,34.7 28.2,31.8 30,31.1 			"/>
			<polygon class="st2" points="24.2,40.8 22.4,41.5 22.4,38.7 24.2,37.9 			"/>
			<polygon class="st2" points="27.1,39.6 25.3,40.4 25.3,37.5 27.1,36.8 			"/>
			<polygon class="st2" points="30,38.4 28.2,39.2 28.2,36.4 30,35.6 			"/>
			<polygon class="st2" points="24.2,45.3 22.4,46 22.4,43.2 24.2,42.5 			"/>
			<polygon class="st2" points="27.1,44.1 25.3,44.9 25.3,42 27.1,41.3 			"/>
			<polygon class="st2" points="30,43 28.2,43.7 28.2,40.9 30,40.1 			"/>
			<polygon class="st2" points="24.2,49.8 22.4,50.6 22.4,47.7 24.2,47 			"/>
			<polygon class="st2" points="27.1,48.7 25.3,49.4 25.3,46.6 27.1,45.8 			"/>
			<polygon class="st2" points="30,47.5 28.2,48.3 28.2,45.4 30,44.7 			"/>
			<polygon class="st2" points="24.2,54.4 22.4,55.1 22.4,52.3 24.2,51.5 			"/>
			<polygon class="st2" points="27.1,53.2 25.3,53.9 25.3,51.1 27.1,50.4 			"/>
			<polygon class="st2" points="30,52 28.2,52.8 28.2,49.9 30,49.2 			"/>
			<polygon class="st2" points="24.2,58.9 22.4,59.6 22.4,56.8 24.2,56 			"/>
			<polygon class="st2" points="27.1,57.7 25.3,58.5 25.3,55.6 27.1,54.9 			"/>
			<polygon class="st2" points="30,56.6 28.2,57.3 28.2,54.5 30,53.7 			"/>
			<polygon class="st2" points="24.2,63.4 22.4,64.2 22.4,61.3 24.2,60.6 			"/>
			<polygon class="st2" points="27.1,62.3 25.3,63 25.3,60.2 27.1,59.4 			"/>
			<polygon class="st2" points="30,61.1 28.2,61.8 28.2,59 30,58.3 			"/>
			<polygon class="st2" points="24.2,67.9 22.4,68.7 22.4,65.8 24.2,65.1 			"/>
			<polygon class="st2" points="27.1,66.8 25.3,67.5 25.3,64.7 27.1,63.9 			"/>
			<polygon class="st2" points="30,65.6 28.2,66.4 28.2,63.5 30,62.8 			"/>
			<polygon class="st2" points="24.2,72.5 22.4,73.2 22.4,70.4 24.2,69.6 			"/>
			<polygon class="st2" points="27.1,71.3 25.3,72.1 25.3,69.2 27.1,68.5 			"/>
			<polygon class="st2" points="30,70.2 28.2,70.9 28.2,68.1 30,67.3 			"/>
			<polygon class="st2" points="24.2,77 22.4,77.7 22.4,74.9 24.2,74.2 			"/>
			<polygon class="st2" points="27.1,75.8 25.3,76.6 25.3,73.7 27.1,73 			"/>
			<polygon class="st2" points="30,74.7 28.2,75.4 28.2,72.6 30,71.8 			"/>
		</g>
		<g>
			<polygon class="st2" points="66.8,28.1 65,29.6 65,26.4 66.8,24.8 			"/>
			<polygon class="st2" points="69.5,25.7 67.8,27.2 67.8,24 69.5,22.4 			"/>
			<polygon class="st2" points="72.3,23.3 70.5,24.9 70.5,21.6 72.3,20.1 			"/>
			<polygon class="st2" points="66.8,33.3 65,34.8 65,31.6 66.8,30 			"/>
			<polygon class="st2" points="69.5,30.9 67.8,32.5 67.8,29.2 69.5,27.7 			"/>
			<polygon class="st2" points="72.3,28.5 70.5,30.1 70.5,26.8 72.3,25.3 			"/>
			<polygon class="st2" points="66.8,38.5 65,40.1 65,36.8 66.8,35.3 			"/>
			<polygon class="st2" points="69.5,36.1 67.8,37.7 67.8,34.4 69.5,32.9 			"/>
			<polygon class="st2" points="72.3,33.7 70.5,35.3 70.5,32 72.3,30.5 			"/>
			<polygon class="st2" points="66.8,43.7 65,45.3 65,42 66.8,40.5 			"/>
			<polygon class="st2" points="69.5,41.3 67.8,42.9 67.8,39.6 69.5,38.1 			"/>
			<polygon class="st2" points="72.3,39 70.5,40.5 70.5,37.2 72.3,35.7 			"/>
			<polygon class="st2" points="66.8,48.9 65,50.5 65,47.2 66.8,45.7 			"/>
			<polygon class="st2" points="69.5,46.6 67.8,48.1 67.8,44.8 69.5,43.3 			"/>
			<polygon class="st2" points="72.3,44.2 70.5,45.7 70.5,42.4 72.3,40.9 			"/>
			<polygon class="st2" points="66.8,54.2 65,55.7 65,52.4 66.8,50.9 			"/>
			<polygon class="st2" points="69.5,51.8 67.8,53.3 67.8,50 69.5,48.5 			"/>
			<polygon class="st2" points="72.3,49.4 70.5,50.9 70.5,47.7 72.3,46.1 			"/>
			<polygon class="st2" points="66.8,59.4 65,60.9 65,57.6 66.8,56.1 			"/>
			<polygon class="st2" points="69.5,57 67.8,58.5 67.8,55.3 69.5,53.7 			"/>
			<polygon class="st2" points="72.3,54.6 70.5,56.1 70.5,52.9 72.3,51.3 			"/>
			<polygon class="st2" points="66.8,64.6 65,66.1 65,62.8 66.8,61.3 			"/>
			<polygon class="st2" points="69.5,62.2 67.8,63.7 67.8,60.5 69.5,58.9 			"/>
			<polygon class="st2" points="72.3,59.8 70.5,61.3 70.5,58.1 72.3,56.5 			"/>
			<polygon class="st2" points="66.8,69.8 65,71.3 65,68.1 66.8,66.5 			"/>
			<polygon class="st2" points="69.5,67.4 67.8,68.9 67.8,65.7 69.5,64.1 			"/>
			<polygon class="st2" points="72.3,65 70.5,66.6 70.5,63.3 72.3,61.8 			"/>
			<polygon class="st2" points="66.8,75 65,76.5 65,73.3 66.8,71.7 			"/>
			<polygon class="st2" points="69.5,72.6 67.8,74.2 67.8,70.9 69.5,69.3 			"/>
			<polygon class="st2" points="72.3,70.2 70.5,71.8 70.5,68.5 72.3,67 			"/>
			<polygon class="st2" points="66.8,80.2 65,81.7 65,78.5 66.8,76.9 			"/>
			<polygon class="st2" points="69.5,77.8 67.8,79.4 67.8,76.1 69.5,74.6 			"/>
			<polygon class="st2" points="72.3,75.4 70.5,77 70.5,73.7 72.3,72.2 			"/>
			<polygon class="st2" points="66.8,85.4 65,87 65,83.7 66.8,82.2 			"/>
			<polygon class="st2" points="69.5,83 67.8,84.6 67.8,81.3 69.5,79.8 			"/>
			<polygon class="st2" points="72.3,80.7 70.5,82.2 70.5,78.9 72.3,77.4 			"/>
		</g>
		<g>
			<polygon class="st2" points="86.5,27.9 84.6,29.9 84.6,26.6 86.5,24.6 			"/>
			<polygon class="st2" points="89.4,24.9 87.6,26.9 87.6,23.6 89.4,21.6 			"/>
			<polygon class="st2" points="92.4,22 90.5,23.9 90.5,20.6 92.4,18.7 			"/>
			<polygon class="st2" points="86.5,33.2 84.6,35.1 84.6,31.8 86.5,29.9 			"/>
			<polygon class="st2" points="89.4,30.2 87.6,32.2 87.6,28.8 89.4,26.9 			"/>
			<polygon class="st2" points="92.4,27.2 90.5,29.2 90.5,25.9 92.4,23.9 			"/>
			<polygon class="st2" points="86.5,38.5 84.6,40.4 84.6,37.1 86.5,35.2 			"/>
			<polygon class="st2" points="89.4,35.5 87.6,37.4 87.6,34.1 89.4,32.2 			"/>
			<polygon class="st2" points="92.4,32.5 90.5,34.4 90.5,31.1 92.4,29.2 			"/>
			<polygon class="st2" points="86.5,43.8 84.6,45.7 84.6,42.4 86.5,40.5 			"/>
			<polygon class="st2" points="89.4,40.8 87.6,42.7 87.6,39.4 89.4,37.5 			"/>
			<polygon class="st2" points="92.4,37.8 90.5,39.7 90.5,36.4 92.4,34.5 			"/>
			<polygon class="st2" points="86.5,49 84.6,51 84.6,47.7 86.5,45.7 			"/>
			<polygon class="st2" points="89.4,46.1 87.6,48 87.6,44.7 89.4,42.8 			"/>
			<polygon class="st2" points="92.4,43.1 90.5,45 90.5,41.7 92.4,39.8 			"/>
			<polygon class="st2" points="86.5,54.3 84.6,56.2 84.6,52.9 86.5,51 			"/>
			<polygon class="st2" points="89.4,51.3 87.6,53.3 87.6,50 89.4,48 			"/>
			<polygon class="st2" points="92.4,48.4 90.5,50.3 90.5,47 92.4,45 			"/>
			<polygon class="st2" points="86.5,59.6 84.6,61.5 84.6,58.2 86.5,56.3 			"/>
			<polygon class="st2" points="89.4,56.6 87.6,58.5 87.6,55.2 89.4,53.3 			"/>
			<polygon class="st2" points="92.4,53.6 90.5,55.6 90.5,52.2 92.4,50.3 			"/>
			<polygon class="st2" points="86.5,64.9 84.6,66.8 84.6,63.5 86.5,61.6 			"/>
			<polygon class="st2" points="89.4,61.9 87.6,63.8 87.6,60.5 89.4,58.6 			"/>
			<polygon class="st2" points="92.4,58.9 90.5,60.8 90.5,57.5 92.4,55.6 			"/>
			<polygon class="st2" points="86.5,70.2 84.6,72.1 84.6,68.8 86.5,66.8 			"/>
			<polygon class="st2" points="89.4,67.2 87.6,69.1 87.6,65.8 89.4,63.9 			"/>
			<polygon class="st2" points="92.4,64.2 90.5,66.1 90.5,62.8 92.4,60.9 			"/>
			<polygon class="st2" points="86.5,75.4 84.6,77.4 84.6,74 86.5,72.1 			"/>
			<polygon class="st2" points="89.4,72.4 87.6,74.4 87.6,71.1 89.4,69.1 			"/>
			<polygon class="st2" points="92.4,69.5 90.5,71.4 90.5,68.1 92.4,66.2 			"/>
			<polygon class="st2" points="86.5,80.7 84.6,82.6 84.6,79.3 86.5,77.4 			"/>
			<polygon class="st2" points="89.4,77.7 87.6,79.6 87.6,76.3 89.4,74.4 			"/>
			<polygon class="st2" points="92.4,74.7 90.5,76.7 90.5,73.4 92.4,71.4 			"/>
			<polygon class="st2" points="86.5,86 84.6,87.9 84.6,84.6 86.5,82.7 			"/>
			<polygon class="st2" points="89.4,83 87.6,84.9 87.6,81.6 89.4,79.7 			"/>
			<polygon class="st2" points="92.4,80 90.5,81.9 90.5,78.6 92.4,76.7 			"/>
		</g>
		<g>
			<polygon class="st2" points="107.3,27.7 105.6,30.3 105.6,27.5 107.3,24.9 			"/>
			<polygon class="st2" points="110.1,23.7 108.3,26.3 108.3,23.4 110.1,20.8 			"/>
			<polygon class="st2" points="112.9,19.6 111.1,22.3 111.1,19.4 112.9,16.8 			"/>
			<polygon class="st2" points="107.3,32.3 105.6,34.9 105.6,32.1 107.3,29.4 			"/>
			<polygon class="st2" points="110.1,28.3 108.3,30.9 108.3,28 110.1,25.4 			"/>
			<polygon class="st2" points="112.9,24.2 111.1,26.8 111.1,24 112.9,21.4 			"/>
			<polygon class="st2" points="107.3,36.9 105.6,39.5 105.6,36.6 107.3,34 			"/>
			<polygon class="st2" points="110.1,32.8 108.3,35.4 108.3,32.6 110.1,30 			"/>
			<polygon class="st2" points="112.9,28.8 111.1,31.4 111.1,28.5 112.9,25.9 			"/>
			<polygon class="st2" points="107.3,41.4 105.6,44 105.6,41.2 107.3,38.6 			"/>
			<polygon class="st2" points="110.1,37.4 108.3,40 108.3,37.1 110.1,34.5 			"/>
			<polygon class="st2" points="112.9,33.3 111.1,36 111.1,33.1 112.9,30.5 			"/>
			<polygon class="st2" points="107.3,46 105.6,48.6 105.6,45.7 107.3,43.1 			"/>
			<polygon class="st2" points="110.1,42 108.3,44.6 108.3,41.7 110.1,39.1 			"/>
			<polygon class="st2" points="112.9,37.9 111.1,40.5 111.1,37.7 112.9,35 			"/>
			<polygon class="st2" points="107.3,50.6 105.6,53.2 105.6,50.3 107.3,47.7 			"/>
			<polygon class="st2" points="110.1,46.5 108.3,49.1 108.3,46.3 110.1,43.7 			"/>
			<polygon class="st2" points="112.9,42.5 111.1,45.1 111.1,42.2 112.9,39.6 			"/>
			<polygon class="st2" points="107.3,55.1 105.6,57.7 105.6,54.9 107.3,52.3 			"/>
			<polygon class="st2" points="110.1,51.1 108.3,53.7 108.3,50.8 110.1,48.2 			"/>
			<polygon class="st2" points="112.9,47 111.1,49.6 111.1,46.8 112.9,44.2 			"/>
			<polygon class="st2" points="107.3,59.7 105.6,62.3 105.6,59.4 107.3,56.8 			"/>
			<polygon class="st2" points="110.1,55.7 108.3,58.3 108.3,55.4 110.1,52.8 			"/>
			<polygon class="st2" points="112.9,51.6 111.1,54.2 111.1,51.4 112.9,48.7 			"/>
			<polygon class="st2" points="107.3,64.3 105.6,66.9 105.6,64 107.3,61.4 			"/>
			<polygon class="st2" points="110.1,60.2 108.3,62.8 108.3,60 110.1,57.4 			"/>
			<polygon class="st2" points="112.9,56.2 111.1,58.8 111.1,55.9 112.9,53.3 			"/>
			<polygon class="st2" points="107.3,68.8 105.6,71.4 105.6,68.6 107.3,66 			"/>
			<polygon class="st2" points="110.1,64.8 108.3,67.4 108.3,64.5 110.1,61.9 			"/>
			<polygon class="st2" points="112.9,60.7 111.1,63.3 111.1,60.5 112.9,57.9 			"/>
			<polygon class="st2" points="107.3,73.4 105.6,76 105.6,73.1 107.3,70.5 			"/>
			<polygon class="st2" points="110.1,69.3 108.3,72 108.3,69.1 110.1,66.5 			"/>
			<polygon class="st2" points="112.9,65.3 111.1,67.9 111.1,65.1 112.9,62.4 			"/>
			<polygon class="st2" points="107.3,78 105.6,80.6 105.6,77.7 107.3,75.1 			"/>
			<polygon class="st2" points="110.1,73.9 108.3,76.5 108.3,73.7 110.1,71.1 			"/>
			<polygon class="st2" points="112.9,69.9 111.1,72.5 111.1,69.6 112.9,67 			"/>
		</g>
		<g>
			<polygon class="st2" points="128.1,27 126.4,30 126.4,26.7 128.1,23.7 			"/>
			<polygon class="st2" points="130.7,22.2 129,25.3 129,22 130.7,19 			"/>
			<polygon class="st2" points="133.3,17.5 131.6,20.6 131.6,17.3 133.3,14.3 			"/>
			<polygon class="st2" points="128.1,32.2 126.4,35.2 126.4,31.9 128.1,28.9 			"/>
			<polygon class="st2" points="130.7,27.5 129,30.5 129,27.2 130.7,24.2 			"/>
			<polygon class="st2" points="133.3,22.7 131.6,25.8 131.6,22.5 133.3,19.5 			"/>
			<polygon class="st2" points="128.1,37.4 126.4,40.4 126.4,37.1 128.1,34.1 			"/>
			<polygon class="st2" points="130.7,32.7 129,35.7 129,32.4 130.7,29.4 			"/>
			<polygon class="st2" points="133.3,28 131.6,31 131.6,27.7 133.3,24.7 			"/>
			<polygon class="st2" points="128.1,42.6 126.4,45.6 126.4,42.3 128.1,39.3 			"/>
			<polygon class="st2" points="130.7,37.9 129,40.9 129,37.6 130.7,34.6 			"/>
			<polygon class="st2" points="133.3,33.2 131.6,36.2 131.6,32.9 133.3,29.9 			"/>
			<polygon class="st2" points="128.1,47.8 126.4,50.8 126.4,47.5 128.1,44.5 			"/>
			<polygon class="st2" points="130.7,43.1 129,46.1 129,42.8 130.7,39.8 			"/>
			<polygon class="st2" points="133.3,38.4 131.6,41.4 131.6,38.1 133.3,35.1 			"/>
			<polygon class="st2" points="128.1,53 126.4,56 126.4,52.7 128.1,49.7 			"/>
			<polygon class="st2" points="130.7,48.3 129,51.3 129,48 130.7,45 			"/>
			<polygon class="st2" points="133.3,43.6 131.6,46.6 131.6,43.3 133.3,40.3 			"/>
			<polygon class="st2" points="128.1,58.2 126.4,61.2 126.4,58 128.1,54.9 			"/>
			<polygon class="st2" points="130.7,53.5 129,56.5 129,53.2 130.7,50.2 			"/>
			<polygon class="st2" points="133.3,48.8 131.6,51.8 131.6,48.5 133.3,45.5 			"/>
			<polygon class="st2" points="128.1,63.4 126.4,66.4 126.4,63.2 128.1,60.1 			"/>
			<polygon class="st2" points="130.7,58.7 129,61.7 129,58.5 130.7,55.4 			"/>
			<polygon class="st2" points="133.3,54 131.6,57 131.6,53.8 133.3,50.7 			"/>
			<polygon class="st2" points="128.1,68.6 126.4,71.6 126.4,68.4 128.1,65.3 			"/>
			<polygon class="st2" points="130.7,63.9 129,66.9 129,63.7 130.7,60.6 			"/>
			<polygon class="st2" points="133.3,59.2 131.6,62.2 131.6,59 133.3,55.9 			"/>
			<polygon class="st2" points="128.1,73.8 126.4,76.8 126.4,73.6 128.1,70.5 			"/>
			<polygon class="st2" points="130.7,69.1 129,72.1 129,68.9 130.7,65.8 			"/>
			<polygon class="st2" points="133.3,64.4 131.6,67.4 131.6,64.2 133.3,61.1 			"/>
			<polygon class="st2" points="128.1,79 126.4,82 126.4,78.8 128.1,75.7 			"/>
			<polygon class="st2" points="130.7,74.3 129,77.3 129,74.1 130.7,71 			"/>
			<polygon class="st2" points="133.3,69.6 131.6,72.6 131.6,69.4 133.3,66.3 			"/>
			<polygon class="st2" points="128.1,84.2 126.4,87.2 126.4,84 128.1,80.9 			"/>
			<polygon class="st2" points="130.7,79.5 129,82.5 129,79.3 130.7,76.2 			"/>
			<polygon class="st2" points="133.3,74.8 131.6,77.8 131.6,74.6 133.3,71.5 			"/>
		</g>
		<g>
			<polygon class="st2" points="149.1,28.6 147.2,30.1 147.2,26.8 149.1,25.3 			"/>
			<polygon class="st2" points="152.1,26.3 150.1,27.8 150.1,24.5 152.1,23 			"/>
			<polygon class="st2" points="155.1,24 153.1,25.5 153.1,22.2 155.1,20.7 			"/>
			<polygon class="st2" points="149.1,33.9 147.2,35.4 147.2,32.1 149.1,30.6 			"/>
			<polygon class="st2" points="152.1,31.6 150.1,33.1 150.1,29.8 152.1,28.3 			"/>
			<polygon class="st2" points="155.1,29.4 153.1,30.8 153.1,27.5 155.1,26 			"/>
			<polygon class="st2" points="149.1,39.2 147.2,40.7 147.2,37.4 149.1,35.9 			"/>
			<polygon class="st2" points="152.1,36.9 150.1,38.4 150.1,35.1 152.1,33.6 			"/>
			<polygon class="st2" points="155.1,34.7 153.1,36.1 153.1,32.8 155.1,31.3 			"/>
			<polygon class="st2" points="149.1,44.5 147.2,46 147.2,42.7 149.1,41.2 			"/>
			<polygon class="st2" points="152.1,42.2 150.1,43.7 150.1,40.4 152.1,38.9 			"/>
			<polygon class="st2" points="155.1,40 153.1,41.4 153.1,38.1 155.1,36.6 			"/>
			<polygon class="st2" points="149.1,49.8 147.2,51.3 147.2,48 149.1,46.5 			"/>
			<polygon class="st2" points="152.1,47.5 150.1,49 150.1,45.7 152.1,44.2 			"/>
			<polygon class="st2" points="155.1,45.3 153.1,46.7 153.1,43.4 155.1,41.9 			"/>
			<polygon class="st2" points="149.1,55.1 147.2,56.6 147.2,53.3 149.1,51.8 			"/>
			<polygon class="st2" points="152.1,52.9 150.1,54.3 150.1,51 152.1,49.5 			"/>
			<polygon class="st2" points="155.1,50.6 153.1,52 153.1,48.7 155.1,47.3 			"/>
			<polygon class="st2" points="149.1,60.4 147.2,61.9 147.2,58.6 149.1,57.1 			"/>
			<polygon class="st2" points="152.1,58.2 150.1,59.6 150.1,56.3 152.1,54.8 			"/>
			<polygon class="st2" points="155.1,55.9 153.1,57.4 153.1,54 155.1,52.6 			"/>
			<polygon class="st2" points="149.1,65.7 147.2,67.2 147.2,63.9 149.1,62.4 			"/>
			<polygon class="st2" points="152.1,63.5 150.1,64.9 150.1,61.6 152.1,60.1 			"/>
			<polygon class="st2" points="155.1,61.2 153.1,62.7 153.1,59.3 155.1,57.9 			"/>
			<polygon class="st2" points="149.1,71.1 147.2,72.5 147.2,69.2 149.1,67.7 			"/>
			<polygon class="st2" points="152.1,68.8 150.1,70.2 150.1,66.9 152.1,65.4 			"/>
			<polygon class="st2" points="155.1,66.5 153.1,68 153.1,64.6 155.1,63.2 			"/>
			<polygon class="st2" points="149.1,76.4 147.2,77.8 147.2,74.5 149.1,73 			"/>
			<polygon class="st2" points="152.1,74.1 150.1,75.5 150.1,72.2 152.1,70.8 			"/>
			<polygon class="st2" points="155.1,71.8 153.1,73.3 153.1,69.9 155.1,68.5 			"/>
			<polygon class="st2" points="149.1,81.7 147.2,83.1 147.2,79.8 149.1,78.3 			"/>
			<polygon class="st2" points="152.1,79.4 150.1,80.9 150.1,77.5 152.1,76.1 			"/>
			<polygon class="st2" points="155.1,77.1 153.1,78.6 153.1,75.2 155.1,73.8 			"/>
			<polygon class="st2" points="149.1,87 147.2,88.4 147.2,85.1 149.1,83.6 			"/>
			<polygon class="st2" points="152.1,84.7 150.1,86.2 150.1,82.8 152.1,81.4 			"/>
			<polygon class="st2" points="155.1,82.4 153.1,83.9 153.1,80.6 155.1,79.1 			"/>
		</g>
		<g>
			<polygon class="st2" points="169.9,27.7 168.2,29.7 168.2,26.4 169.9,24.5 			"/>
			<polygon class="st2" points="172.6,24.7 170.9,26.7 170.9,23.4 172.6,21.5 			"/>
			<polygon class="st2" points="175.2,21.8 173.5,23.7 173.5,20.4 175.2,18.5 			"/>
			<polygon class="st2" points="169.9,32.9 168.2,34.9 168.2,31.6 169.9,29.7 			"/>
			<polygon class="st2" points="172.6,29.9 170.9,31.9 170.9,28.6 172.6,26.7 			"/>
			<polygon class="st2" points="175.2,26.9 173.5,28.9 173.5,25.6 175.2,23.7 			"/>
			<polygon class="st2" points="169.9,38.1 168.2,40.1 168.2,36.8 169.9,34.9 			"/>
			<polygon class="st2" points="172.6,35.1 170.9,37.1 170.9,33.8 172.6,31.9 			"/>
			<polygon class="st2" points="175.2,32.1 173.5,34.1 173.5,30.8 175.2,28.9 			"/>
			<polygon class="st2" points="169.9,43.3 168.2,45.3 168.2,42 169.9,40.1 			"/>
			<polygon class="st2" points="172.6,40.3 170.9,42.3 170.9,39 172.6,37.1 			"/>
			<polygon class="st2" points="175.2,37.3 173.5,39.3 173.5,36 175.2,34.1 			"/>
			<polygon class="st2" points="169.9,48.5 168.2,50.4 168.2,47.2 169.9,45.3 			"/>
			<polygon class="st2" points="172.6,45.5 170.9,47.5 170.9,44.2 172.6,42.3 			"/>
			<polygon class="st2" points="175.2,42.5 173.5,44.5 173.5,41.2 175.2,39.3 			"/>
			<polygon class="st2" points="169.9,53.7 168.2,55.6 168.2,52.4 169.9,50.5 			"/>
			<polygon class="st2" points="172.6,50.7 170.9,52.7 170.9,49.4 172.6,47.5 			"/>
			<polygon class="st2" points="175.2,47.7 173.5,49.7 173.5,46.4 175.2,44.5 			"/>
			<polygon class="st2" points="169.9,58.9 168.2,60.8 168.2,57.6 169.9,55.7 			"/>
			<polygon class="st2" points="172.6,55.9 170.9,57.8 170.9,54.6 172.6,52.7 			"/>
			<polygon class="st2" points="175.2,52.9 173.5,54.9 173.5,51.6 175.2,49.7 			"/>
			<polygon class="st2" points="169.9,64.1 168.2,66 168.2,62.8 169.9,60.8 			"/>
			<polygon class="st2" points="172.6,61.1 170.9,63 170.9,59.8 172.6,57.9 			"/>
			<polygon class="st2" points="175.2,58.1 173.5,60 173.5,56.8 175.2,54.9 			"/>
			<polygon class="st2" points="169.9,69.3 168.2,71.2 168.2,68 169.9,66 			"/>
			<polygon class="st2" points="172.6,66.3 170.9,68.2 170.9,65 172.6,63.1 			"/>
			<polygon class="st2" points="175.2,63.3 173.5,65.2 173.5,62 175.2,60.1 			"/>
			<polygon class="st2" points="169.9,74.5 168.2,76.4 168.2,73.2 169.9,71.2 			"/>
			<polygon class="st2" points="172.6,71.5 170.9,73.4 170.9,70.2 172.6,68.2 			"/>
			<polygon class="st2" points="175.2,68.5 173.5,70.4 173.5,67.2 175.2,65.3 			"/>
			<polygon class="st2" points="169.9,79.7 168.2,81.6 168.2,78.4 169.9,76.4 			"/>
			<polygon class="st2" points="172.6,76.7 170.9,78.6 170.9,75.4 172.6,73.4 			"/>
			<polygon class="st2" points="175.2,73.7 173.5,75.6 173.5,72.4 175.2,70.4 			"/>
			<polygon class="st2" points="169.9,84.9 168.2,86.8 168.2,83.6 169.9,81.6 			"/>
			<polygon class="st2" points="172.6,81.9 170.9,83.8 170.9,80.6 172.6,78.6 			"/>
			<polygon class="st2" points="175.2,78.9 173.5,80.8 173.5,77.6 175.2,75.6 			"/>
		</g>
		<g>
			<polygon class="st2" points="190.4,27.7 188.6,30.8 188.6,28 190.4,25 			"/>
			<polygon class="st2" points="193.2,23.1 191.4,26.1 191.4,23.3 193.2,20.3 			"/>
			<polygon class="st2" points="196,18.4 194.2,21.4 194.2,18.6 196,15.6 			"/>
			<polygon class="st2" points="190.4,32.1 188.6,35.2 188.6,32.4 190.4,29.4 			"/>
			<polygon class="st2" points="193.2,27.4 191.4,30.5 191.4,27.7 193.2,24.7 			"/>
			<polygon class="st2" points="196,22.8 194.2,25.8 194.2,23 196,20 			"/>
			<polygon class="st2" points="190.4,36.5 188.6,39.5 188.6,36.8 190.4,33.8 			"/>
			<polygon class="st2" points="193.2,31.8 191.4,34.9 191.4,32.1 193.2,29.1 			"/>
			<polygon class="st2" points="196,27.1 194.2,30.2 194.2,27.4 196,24.4 			"/>
			<polygon class="st2" points="190.4,40.9 188.6,43.9 188.6,41.2 190.4,38.2 			"/>
			<polygon class="st2" points="193.2,36.2 191.4,39.2 191.4,36.5 193.2,33.5 			"/>
			<polygon class="st2" points="196,31.5 194.2,34.6 194.2,31.8 196,28.8 			"/>
			<polygon class="st2" points="190.4,45.3 188.6,48.3 188.6,45.6 190.4,42.5 			"/>
			<polygon class="st2" points="193.2,40.6 191.4,43.6 191.4,40.9 193.2,37.9 			"/>
			<polygon class="st2" points="196,35.9 194.2,38.9 194.2,36.2 196,33.2 			"/>
			<polygon class="st2" points="190.4,49.7 188.6,52.7 188.6,50 190.4,46.9 			"/>
			<polygon class="st2" points="193.2,45 191.4,48 191.4,45.3 193.2,42.2 			"/>
			<polygon class="st2" points="196,40.3 194.2,43.3 194.2,40.6 196,37.6 			"/>
			<polygon class="st2" points="190.4,54.1 188.6,57.1 188.6,54.3 190.4,51.3 			"/>
			<polygon class="st2" points="193.2,49.4 191.4,52.4 191.4,49.7 193.2,46.6 			"/>
			<polygon class="st2" points="196,44.7 194.2,47.7 194.2,45 196,41.9 			"/>
			<polygon class="st2" points="190.4,58.5 188.6,61.5 188.6,58.7 190.4,55.7 			"/>
			<polygon class="st2" points="193.2,53.8 191.4,56.8 191.4,54 193.2,51 			"/>
			<polygon class="st2" points="196,49.1 194.2,52.1 194.2,49.4 196,46.3 			"/>
			<polygon class="st2" points="190.4,62.8 188.6,65.9 188.6,63.1 190.4,60.1 			"/>
			<polygon class="st2" points="193.2,58.2 191.4,61.2 191.4,58.4 193.2,55.4 			"/>
			<polygon class="st2" points="196,53.5 194.2,56.5 194.2,53.7 196,50.7 			"/>
			<polygon class="st2" points="190.4,67.2 188.6,70.3 188.6,67.5 190.4,64.5 			"/>
			<polygon class="st2" points="193.2,62.5 191.4,65.6 191.4,62.8 193.2,59.8 			"/>
			<polygon class="st2" points="196,57.9 194.2,60.9 194.2,58.1 196,55.1 			"/>
			<polygon class="st2" points="190.4,71.6 188.6,74.6 188.6,71.9 190.4,68.9 			"/>
			<polygon class="st2" points="193.2,66.9 191.4,70 191.4,67.2 193.2,64.2 			"/>
			<polygon class="st2" points="196,62.2 194.2,65.3 194.2,62.5 196,59.5 			"/>
			<polygon class="st2" points="190.4,76 188.6,79 188.6,76.3 190.4,73.3 			"/>
			<polygon class="st2" points="193.2,71.3 191.4,74.3 191.4,71.6 193.2,68.6 			"/>
			<polygon class="st2" points="196,66.6 194.2,69.7 194.2,66.9 196,63.9 			"/>
		</g>
		<g>
			<polygon class="st2" points="210.6,29.2 208.8,31.2 208.8,27.9 210.6,25.8 			"/>
			<polygon class="st2" points="213.6,26 211.7,28 211.7,24.7 213.6,22.6 			"/>
			<polygon class="st2" points="216.5,22.8 214.6,24.9 214.6,21.5 216.5,19.4 			"/>
			<polygon class="st2" points="210.6,34.6 208.8,36.6 208.8,33.2 210.6,31.2 			"/>
			<polygon class="st2" points="213.6,31.4 211.7,33.4 211.7,30.1 213.6,28 			"/>
			<polygon class="st2" points="216.5,28.2 214.6,30.3 214.6,26.9 216.5,24.8 			"/>
			<polygon class="st2" points="210.6,40 208.8,42 208.8,38.6 210.6,36.6 			"/>
			<polygon class="st2" points="213.6,36.8 211.7,38.8 211.7,35.4 213.6,33.4 			"/>
			<polygon class="st2" points="216.5,33.6 214.6,35.6 214.6,32.3 216.5,30.2 			"/>
			<polygon class="st2" points="210.6,45.3 208.8,47.4 208.8,44 210.6,42 			"/>
			<polygon class="st2" points="213.6,42.2 211.7,44.2 211.7,40.8 213.6,38.8 			"/>
			<polygon class="st2" points="216.5,39 214.6,41 214.6,37.7 216.5,35.6 			"/>
			<polygon class="st2" points="210.6,50.7 208.8,52.8 208.8,49.4 210.6,47.4 			"/>
			<polygon class="st2" points="213.6,47.5 211.7,49.6 211.7,46.2 213.6,44.2 			"/>
			<polygon class="st2" points="216.5,44.4 214.6,46.4 214.6,43 216.5,41 			"/>
			<polygon class="st2" points="210.6,56.1 208.8,58.2 208.8,54.8 210.6,52.7 			"/>
			<polygon class="st2" points="213.6,52.9 211.7,55 211.7,51.6 213.6,49.6 			"/>
			<polygon class="st2" points="216.5,49.8 214.6,51.8 214.6,48.4 216.5,46.4 			"/>
			<polygon class="st2" points="210.6,61.5 208.8,63.6 208.8,60.2 210.6,58.1 			"/>
			<polygon class="st2" points="213.6,58.3 211.7,60.4 211.7,57 213.6,54.9 			"/>
			<polygon class="st2" points="216.5,55.1 214.6,57.2 214.6,53.8 216.5,51.8 			"/>
			<polygon class="st2" points="210.6,66.9 208.8,68.9 208.8,65.6 210.6,63.5 			"/>
			<polygon class="st2" points="213.6,63.7 211.7,65.8 211.7,62.4 213.6,60.3 			"/>
			<polygon class="st2" points="216.5,60.5 214.6,62.6 214.6,59.2 216.5,57.2 			"/>
			<polygon class="st2" points="210.6,72.3 208.8,74.3 208.8,71 210.6,68.9 			"/>
			<polygon class="st2" points="213.6,69.1 211.7,71.1 211.7,67.8 213.6,65.7 			"/>
			<polygon class="st2" points="216.5,65.9 214.6,68 214.6,64.6 216.5,62.5 			"/>
			<polygon class="st2" points="210.6,77.7 208.8,79.7 208.8,76.3 210.6,74.3 			"/>
			<polygon class="st2" points="213.6,74.5 211.7,76.5 211.7,73.2 213.6,71.1 			"/>
			<polygon class="st2" points="216.5,71.3 214.6,73.4 214.6,70 216.5,67.9 			"/>
			<polygon class="st2" points="210.6,83.1 208.8,85.1 208.8,81.7 210.6,79.7 			"/>
			<polygon class="st2" points="213.6,79.9 211.7,81.9 211.7,78.5 213.6,76.5 			"/>
			<polygon class="st2" points="216.5,76.7 214.6,78.7 214.6,75.4 216.5,73.3 			"/>
			<polygon class="st2" points="210.6,88.4 208.8,90.5 208.8,87.1 210.6,85.1 			"/>
			<polygon class="st2" points="213.6,85.3 211.7,87.3 211.7,83.9 213.6,81.9 			"/>
			<polygon class="st2" points="216.5,82.1 214.6,84.1 214.6,80.8 216.5,78.7 			"/>
		</g>
		<g>
			<polygon class="st2" points="231.6,27.3 229.9,31.1 229.9,27.7 231.6,24 			"/>
			<polygon class="st2" points="234.2,21.4 232.5,25.2 232.5,21.9 234.2,18.1 			"/>
			<polygon class="st2" points="236.9,15.6 235.2,19.4 235.2,16 236.9,12.2 			"/>
			<polygon class="st2" points="231.6,32.7 229.9,36.5 229.9,33.1 231.6,29.3 			"/>
			<polygon class="st2" points="234.2,26.8 232.5,30.6 232.5,27.3 234.2,23.5 			"/>
			<polygon class="st2" points="236.9,20.9 235.2,24.7 235.2,21.4 236.9,17.6 			"/>
			<polygon class="st2" points="231.6,38.1 229.9,41.9 229.9,38.5 231.6,34.7 			"/>
			<polygon class="st2" points="234.2,32.2 232.5,36 232.5,32.6 234.2,28.8 			"/>
			<polygon class="st2" points="236.9,26.3 235.2,30.1 235.2,26.8 236.9,23 			"/>
			<polygon class="st2" points="231.6,43.5 229.9,47.3 229.9,43.9 231.6,40.1 			"/>
			<polygon class="st2" points="234.2,37.6 232.5,41.4 232.5,38 234.2,34.2 			"/>
			<polygon class="st2" points="236.9,31.7 235.2,35.5 235.2,32.1 236.9,28.3 			"/>
			<polygon class="st2" points="231.6,48.9 229.9,52.7 229.9,49.3 231.6,45.5 			"/>
			<polygon class="st2" points="234.2,43 232.5,46.8 232.5,43.4 234.2,39.6 			"/>
			<polygon class="st2" points="236.9,37.1 235.2,40.9 235.2,37.5 236.9,33.7 			"/>
			<polygon class="st2" points="231.6,54.3 229.9,58.1 229.9,54.7 231.6,50.9 			"/>
			<polygon class="st2" points="234.2,48.4 232.5,52.2 232.5,48.8 234.2,45 			"/>
			<polygon class="st2" points="236.9,42.5 235.2,46.3 235.2,42.9 236.9,39.1 			"/>
			<polygon class="st2" points="231.6,59.7 229.9,63.4 229.9,60.1 231.6,56.3 			"/>
			<polygon class="st2" points="234.2,53.8 232.5,57.6 232.5,54.2 234.2,50.4 			"/>
			<polygon class="st2" points="236.9,47.9 235.2,51.7 235.2,48.3 236.9,44.5 			"/>
			<polygon class="st2" points="231.6,65 229.9,68.8 229.9,65.5 231.6,61.7 			"/>
			<polygon class="st2" points="234.2,59.2 232.5,63 232.5,59.6 234.2,55.8 			"/>
			<polygon class="st2" points="236.9,53.3 235.2,57.1 235.2,53.7 236.9,49.9 			"/>
			<polygon class="st2" points="231.6,70.4 229.9,74.2 229.9,70.8 231.6,67.1 			"/>
			<polygon class="st2" points="234.2,64.5 232.5,68.3 232.5,65 234.2,61.2 			"/>
			<polygon class="st2" points="236.9,58.7 235.2,62.5 235.2,59.1 236.9,55.3 			"/>
			<polygon class="st2" points="231.6,75.8 229.9,79.6 229.9,76.2 231.6,72.4 			"/>
			<polygon class="st2" points="234.2,69.9 232.5,73.7 232.5,70.4 234.2,66.6 			"/>
			<polygon class="st2" points="236.9,64 235.2,67.8 235.2,64.5 236.9,60.7 			"/>
			<polygon class="st2" points="231.6,81.2 229.9,85 229.9,81.6 231.6,77.8 			"/>
			<polygon class="st2" points="234.2,75.3 232.5,79.1 232.5,75.7 234.2,71.9 			"/>
			<polygon class="st2" points="236.9,69.4 235.2,73.2 235.2,69.9 236.9,66.1 			"/>
			<polygon class="st2" points="231.6,86.6 229.9,90.4 229.9,87 231.6,83.2 			"/>
			<polygon class="st2" points="234.2,80.7 232.5,84.5 232.5,81.1 234.2,77.3 			"/>
			<polygon class="st2" points="236.9,74.8 235.2,78.6 235.2,75.2 236.9,71.4 			"/>
		</g>
		<g>
			<polygon class="st2" points="252,26.2 250.3,28.8 250.3,26 252,23.4 			"/>
			<polygon class="st2" points="254.7,22.2 253,24.8 253,22 254.7,19.4 			"/>
			<polygon class="st2" points="257.3,18.2 255.6,20.8 255.6,18 257.3,15.4 			"/>
			<polygon class="st2" points="252,30.7 250.3,33.3 250.3,30.5 252,27.9 			"/>
			<polygon class="st2" points="254.7,26.7 253,29.3 253,26.5 254.7,23.9 			"/>
			<polygon class="st2" points="257.3,22.7 255.6,25.3 255.6,22.5 257.3,19.9 			"/>
			<polygon class="st2" points="252,35.2 250.3,37.8 250.3,35 252,32.4 			"/>
			<polygon class="st2" points="254.7,31.2 253,33.8 253,31 254.7,28.4 			"/>
			<polygon class="st2" points="257.3,27.2 255.6,29.8 255.6,27 257.3,24.4 			"/>
			<polygon class="st2" points="252,39.8 250.3,42.3 250.3,39.5 252,36.9 			"/>
			<polygon class="st2" points="254.7,35.7 253,38.3 253,35.5 254.7,32.9 			"/>
			<polygon class="st2" points="257.3,31.7 255.6,34.3 255.6,31.5 257.3,28.9 			"/>
			<polygon class="st2" points="252,44.3 250.3,46.8 250.3,44 252,41.4 			"/>
			<polygon class="st2" points="254.7,40.3 253,42.8 253,40 254.7,37.4 			"/>
			<polygon class="st2" points="257.3,36.2 255.6,38.8 255.6,36 257.3,33.4 			"/>
			<polygon class="st2" points="252,48.8 250.3,51.3 250.3,48.5 252,45.9 			"/>
			<polygon class="st2" points="254.7,44.8 253,47.3 253,44.5 254.7,41.9 			"/>
			<polygon class="st2" points="257.3,40.8 255.6,43.3 255.6,40.5 257.3,37.9 			"/>
			<polygon class="st2" points="252,53.3 250.3,55.8 250.3,53 252,50.4 			"/>
			<polygon class="st2" points="254.7,49.3 253,51.8 253,49 254.7,46.4 			"/>
			<polygon class="st2" points="257.3,45.3 255.6,47.8 255.6,45 257.3,42.4 			"/>
			<polygon class="st2" points="252,57.8 250.3,60.3 250.3,57.5 252,54.9 			"/>
			<polygon class="st2" points="254.7,53.8 253,56.3 253,53.5 254.7,50.9 			"/>
			<polygon class="st2" points="257.3,49.8 255.6,52.3 255.6,49.5 257.3,46.9 			"/>
			<polygon class="st2" points="252,62.3 250.3,64.8 250.3,62 252,59.4 			"/>
			<polygon class="st2" points="254.7,58.3 253,60.8 253,58 254.7,55.4 			"/>
			<polygon class="st2" points="257.3,54.3 255.6,56.8 255.6,54 257.3,51.4 			"/>
			<polygon class="st2" points="252,66.8 250.3,69.3 250.3,66.5 252,63.9 			"/>
			<polygon class="st2" points="254.7,62.8 253,65.3 253,62.5 254.7,59.9 			"/>
			<polygon class="st2" points="257.3,58.8 255.6,61.3 255.6,58.5 257.3,55.9 			"/>
			<polygon class="st2" points="252,71.3 250.3,73.8 250.3,71 252,68.4 			"/>
			<polygon class="st2" points="254.7,67.3 253,69.8 253,67 254.7,64.4 			"/>
			<polygon class="st2" points="257.3,63.3 255.6,65.8 255.6,63 257.3,60.4 			"/>
			<polygon class="st2" points="252,75.8 250.3,78.3 250.3,75.5 252,72.9 			"/>
			<polygon class="st2" points="254.7,71.8 253,74.3 253,71.5 254.7,68.9 			"/>
			<polygon class="st2" points="257.3,67.8 255.6,70.3 255.6,67.5 257.3,64.9 			"/>
		</g>
		<g>
			<polygon class="st2" points="272.7,29.5 270.7,30.9 270.7,27.6 272.7,26.2 			"/>
			<polygon class="st2" points="275.7,27.3 273.7,28.7 273.7,25.4 275.7,24 			"/>
			<polygon class="st2" points="278.6,25.1 276.7,26.5 276.7,23.2 278.6,21.8 			"/>
			<polygon class="st2" points="272.7,34.7 270.7,36.2 270.7,32.9 272.7,31.4 			"/>
			<polygon class="st2" points="275.7,32.5 273.7,34 273.7,30.7 275.7,29.2 			"/>
			<polygon class="st2" points="278.6,30.3 276.7,31.7 276.7,28.5 278.6,27 			"/>
			<polygon class="st2" points="272.7,40 270.7,41.4 270.7,38.1 272.7,36.7 			"/>
			<polygon class="st2" points="275.7,37.8 273.7,39.2 273.7,35.9 275.7,34.5 			"/>
			<polygon class="st2" points="278.6,35.6 276.7,37 276.7,33.7 278.6,32.3 			"/>
			<polygon class="st2" points="272.7,45.3 270.7,46.7 270.7,43.4 272.7,42 			"/>
			<polygon class="st2" points="275.7,43.1 273.7,44.5 273.7,41.2 275.7,39.8 			"/>
			<polygon class="st2" points="278.6,40.8 276.7,42.3 276.7,39 278.6,37.5 			"/>
			<polygon class="st2" points="272.7,50.5 270.7,51.9 270.7,48.7 272.7,47.2 			"/>
			<polygon class="st2" points="275.7,48.3 273.7,49.7 273.7,46.4 275.7,45 			"/>
			<polygon class="st2" points="278.6,46.1 276.7,47.5 276.7,44.2 278.6,42.8 			"/>
			<polygon class="st2" points="272.7,55.8 270.7,57.2 270.7,53.9 272.7,52.5 			"/>
			<polygon class="st2" points="275.7,53.6 273.7,55 273.7,51.7 275.7,50.3 			"/>
			<polygon class="st2" points="278.6,51.4 276.7,52.8 276.7,49.5 278.6,48.1 			"/>
			<polygon class="st2" points="272.7,61 270.7,62.5 270.7,59.2 272.7,57.7 			"/>
			<polygon class="st2" points="275.7,58.8 273.7,60.3 273.7,57 275.7,55.5 			"/>
			<polygon class="st2" points="278.6,56.6 276.7,58 276.7,54.7 278.6,53.3 			"/>
			<polygon class="st2" points="272.7,66.3 270.7,67.7 270.7,64.4 272.7,63 			"/>
			<polygon class="st2" points="275.7,64.1 273.7,65.5 273.7,62.2 275.7,60.8 			"/>
			<polygon class="st2" points="278.6,61.9 276.7,63.3 276.7,60 278.6,58.6 			"/>
			<polygon class="st2" points="272.7,71.6 270.7,73 270.7,69.7 272.7,68.3 			"/>
			<polygon class="st2" points="275.7,69.3 273.7,70.8 273.7,67.5 275.7,66.1 			"/>
			<polygon class="st2" points="278.6,67.1 276.7,68.6 276.7,65.3 278.6,63.8 			"/>
			<polygon class="st2" points="272.7,76.8 270.7,78.2 270.7,74.9 272.7,73.5 			"/>
			<polygon class="st2" points="275.7,74.6 273.7,76 273.7,72.7 275.7,71.3 			"/>
			<polygon class="st2" points="278.6,72.4 276.7,73.8 276.7,70.5 278.6,69.1 			"/>
			<polygon class="st2" points="272.7,82.1 270.7,83.5 270.7,80.2 272.7,78.8 			"/>
			<polygon class="st2" points="275.7,79.9 273.7,81.3 273.7,78 275.7,76.6 			"/>
			<polygon class="st2" points="278.6,77.7 276.7,79.1 276.7,75.8 278.6,74.4 			"/>
			<polygon class="st2" points="272.7,87.3 270.7,88.8 270.7,85.5 272.7,84 			"/>
			<polygon class="st2" points="275.7,85.1 273.7,86.5 273.7,83.3 275.7,81.8 			"/>
			<polygon class="st2" points="278.6,82.9 276.7,84.3 276.7,81 278.6,79.6 			"/>
		</g>
		<g>
			<polygon class="st2" points="45.3,26.1 43.4,30.3 43.4,26.5 45.3,22.3 			"/>
			<polygon class="st2" points="48.4,19.7 46.4,23.9 46.4,20 48.4,15.9 			"/>
			<polygon class="st2" points="51.5,13.3 49.5,17.4 49.5,13.6 51.5,9.5 			"/>
			<polygon class="st2" points="45.3,32.2 43.4,36.4 43.4,32.5 45.3,28.4 			"/>
			<polygon class="st2" points="48.4,25.8 46.4,30 46.4,26.1 48.4,22 			"/>
			<polygon class="st2" points="51.5,19.4 49.5,23.5 49.5,19.7 51.5,15.6 			"/>
			<polygon class="st2" points="45.3,38.3 43.4,42.5 43.4,38.6 45.3,34.5 			"/>
			<polygon class="st2" points="48.4,31.9 46.4,36 46.4,32.2 48.4,28.1 			"/>
			<polygon class="st2" points="51.5,25.5 49.5,29.6 49.5,25.8 51.5,21.7 			"/>
			<polygon class="st2" points="45.3,44.4 43.4,48.6 43.4,44.7 45.3,40.6 			"/>
			<polygon class="st2" points="48.4,38 46.4,42.1 46.4,38.3 48.4,34.2 			"/>
			<polygon class="st2" points="51.5,31.6 49.5,35.7 49.5,31.9 51.5,27.8 			"/>
			<polygon class="st2" points="45.3,50.5 43.4,54.7 43.4,50.8 45.3,46.7 			"/>
			<polygon class="st2" points="48.4,44.1 46.4,48.2 46.4,44.4 48.4,40.3 			"/>
			<polygon class="st2" points="51.5,37.7 49.5,41.8 49.5,38 51.5,33.9 			"/>
			<polygon class="st2" points="45.3,56.6 43.4,60.8 43.4,56.9 45.3,52.8 			"/>
			<polygon class="st2" points="48.4,50.2 46.4,54.3 46.4,50.5 48.4,46.4 			"/>
			<polygon class="st2" points="51.5,43.8 49.5,47.9 49.5,44.1 51.5,40 			"/>
			<polygon class="st2" points="45.3,62.7 43.4,66.8 43.4,63 45.3,58.9 			"/>
			<polygon class="st2" points="48.4,56.3 46.4,60.4 46.4,56.6 48.4,52.5 			"/>
			<polygon class="st2" points="51.5,49.9 49.5,54 49.5,50.2 51.5,46.1 			"/>
			<polygon class="st2" points="45.3,68.8 43.4,72.9 43.4,69.1 45.3,65 			"/>
			<polygon class="st2" points="48.4,62.4 46.4,66.5 46.4,62.7 48.4,58.6 			"/>
			<polygon class="st2" points="51.5,56 49.5,60.1 49.5,56.3 51.5,52.2 			"/>
			<polygon class="st2" points="45.3,74.9 43.4,79 43.4,75.2 45.3,71.1 			"/>
			<polygon class="st2" points="48.4,68.5 46.4,72.6 46.4,68.8 48.4,64.7 			"/>
			<polygon class="st2" points="51.5,62.1 49.5,66.2 49.5,62.4 51.5,58.3 			"/>
			<polygon class="st2" points="45.3,81 43.4,85.1 43.4,81.3 45.3,77.2 			"/>
			<polygon class="st2" points="48.4,74.6 46.4,78.7 46.4,74.9 48.4,70.8 			"/>
			<polygon class="st2" points="51.5,68.2 49.5,72.3 49.5,68.5 51.5,64.4 			"/>
			<polygon class="st2" points="45.3,87.1 43.4,91.2 43.4,87.4 45.3,83.3 			"/>
			<polygon class="st2" points="48.4,80.7 46.4,84.8 46.4,81 48.4,76.9 			"/>
			<polygon class="st2" points="51.5,74.3 49.5,78.4 49.5,74.6 51.5,70.5 			"/>
			<polygon class="st2" points="45.3,93.2 43.4,97.3 43.4,93.5 45.3,89.4 			"/>
			<polygon class="st2" points="48.4,86.8 46.4,90.9 46.4,87.1 48.4,83 			"/>
			<polygon class="st2" points="51.5,80.4 49.5,84.5 49.5,80.7 51.5,76.5 			"/>
		</g>
	</g>
	<g>
		<g>
			<polygon class="st0" points="311.8,23.9 322.5,19.6 322.7,86.9 311.8,86.9 			"/>
		</g>
		<g>
			<polygon class="st1" points="332.9,25.6 343.8,4.1 343.8,86.9 332.9,86.9 			"/>
		</g>
		<g>
			<polygon class="st1" points="291.6,23.9 301.5,13.6 302.4,86.9 291.6,86.9 			"/>
		</g>
		<g>
			<polygon class="st0" points="354,25.2 364.5,17.4 364.9,88.3 354,88.3 			"/>
		</g>
		<g>
			<polygon class="st1" points="374.4,25.2 384.8,15.6 385.2,88.3 374.4,88.3 			"/>
		</g>
		<g>
			<polygon class="st0" points="395.4,25.2 404.9,12.4 406.2,88.3 395.4,88.3 			"/>
		</g>
		<g>
			<polygon class="st1" points="415.7,25.9 425.9,8.6 427.1,88.3 415.7,88.3 			"/>
		</g>
		<g>
			<polygon class="st0" points="436.3,25.2 447.3,17.5 448.7,88.3 436.3,88.3 			"/>
		</g>
		<g>
			<polygon class="st1" points="456.6,26.2 468,14.4 469,89.3 456.6,89.3 			"/>
		</g>
		<g>
			<polygon class="st0" points="477.5,27.3 488.4,10.7 489.7,88.3 477.3,88.3 			"/>
		</g>
		<g>
			<polygon class="st1" points="498.2,27.3 508.7,16.6 510.4,88.3 498,88.3 			"/>
		</g>
		<g>
			<polygon class="st0" points="518.9,27.3 529.4,5.7 531.1,88.3 518.7,88.3 			"/>
		</g>
		<g>
			<polygon class="st1" points="539.4,26.3 550.2,10.2 550.2,88.3 539.4,88.3 			"/>
		</g>
		<g>
			<polygon class="st0" points="560.1,26.2 571.2,18.3 572.4,88.3 560,88.3 			"/>
		</g>
		<g>
			<polygon class="st2" points="312.2,22.9 301.3,12.5 301.3,86.4 312.2,86.4 			"/>
		</g>
		<g>
			<polygon class="st2" points="333.2,23.9 322.3,18.9 322.3,86.9 333.2,86.9 			"/>
		</g>
		<g>
			<polygon class="st2" points="374.8,24.4 364.1,16.6 364.1,86.1 374.8,86.1 			"/>
		</g>
		<g>
			<polygon class="st2" points="395.6,24.7 384.4,14.6 384.4,86.1 395.6,86.1 			"/>
		</g>
		<g>
			<polygon class="st2" points="416.1,24.5 404.8,11.1 404.8,86.1 416.1,86.1 			"/>
		</g>
		<g>
			<polygon class="st2" points="436.9,24.5 425.7,7.3 425.7,86.1 436.9,86.1 			"/>
		</g>
		<g>
			<polygon class="st2" points="457.9,24.5 447,16.7 447,86.1 457.9,86.1 			"/>
		</g>
		<g>
			<polygon class="st2" points="478.5,25.6 467.7,13.3 467.7,86.1 478.5,86.1 			"/>
		</g>
		<g>
			<polygon class="st2" points="499,25.8 488.2,9.1 488.2,86.1 499,86.1 			"/>
		</g>
		<g>
			<polygon class="st2" points="519.7,25 508.4,15.6 508.4,86.1 519.7,86.1 			"/>
		</g>
		<g>
			<polygon class="st2" points="540,24.2 529.2,4 529.2,86.1 540,86.1 			"/>
		</g>
		<g>
			<polygon class="st2" points="560.5,25.3 549.8,9.5 549.8,86.1 560.5,86.1 			"/>
		</g>
		<g>
			<polygon class="st2" points="581.8,25.9 571,17.4 571,86.1 581.8,86.1 			"/>
		</g>
		<g>
			<polygon class="st2" points="355.2,24.3 343.6,2.4 343.6,86.9 355.2,86.9 			"/>
		</g>
		<g>
			<path class="st3" d="M291.2,24.1l10.5-11.2L291.2,24.1z"/>
		</g>
		<path class="st3" d="M291.4,23.7v61.9V23.7z"/>
		<line class="st3" x1="312" y1="23.6" x2="322.5" y2="19.4"/>
		<polygon class="st2" points="343.6,3.4 343.6,2.5 343.6,2.4 332,26.2 332.9,26.6 343.6,4.7 		"/>
		<line class="st3" x1="354.5" y1="25.6" x2="364.4" y2="17"/>
		<line class="st3" x1="374.3" y1="25.6" x2="384.7" y2="15"/>
		<polygon class="st2" points="404.9,11.6 404.9,11.6 404.9,11.1 394.7,26 395.6,26.6 404.9,12.8 404.9,11.7 404.9,11.7 		"/>
		<polygon class="st2" points="425.7,7.3 415.1,26.3 416,26.8 425.7,9.4 		"/>
		<line class="st3" x1="436.2" y1="25.7" x2="447.3" y2="17.1"/>
		<polygon class="st2" points="467.7,13.4 467.7,13.4 457,25.5 457.7,26.2 467.7,14.9 		"/>
		<polygon class="st2" points="488.2,10.7 488.2,9.2 488.2,9.2 477.5,27.3 478.4,27.8 488.4,10.7 		"/>
		<line class="st3" x1="498.5" y1="27" x2="508.8" y2="16"/>
		<polygon class="st2" points="529.2,4.6 529.2,4 518.7,27.1 519.6,27.5 529.2,6.4 		"/>
		<polygon class="st2" points="549.8,10.9 549.8,9.5 549.8,9.5 539.1,25.5 539.9,26.1 550,10.9 		"/>
		<line class="st3" x1="560.1" y1="26.2" x2="571.3" y2="17.8"/>
		<g>
			<polygon class="st2" points="294.7,26.5 292.8,28.5 292.8,25.2 294.7,23.2 			"/>
			<polygon class="st2" points="297.6,23.3 295.7,25.3 295.7,22.1 297.6,20.1 			"/>
			<polygon class="st2" points="300.5,20.2 298.6,22.2 298.6,19 300.5,17 			"/>
			<polygon class="st2" points="294.7,31.7 292.8,33.7 292.8,30.4 294.7,28.4 			"/>
			<polygon class="st2" points="297.6,28.6 295.7,30.6 295.7,27.3 297.6,25.3 			"/>
			<polygon class="st2" points="300.5,25.4 298.6,27.5 298.6,24.2 300.5,22.2 			"/>
			<polygon class="st2" points="294.7,36.9 292.8,38.9 292.8,35.6 294.7,33.6 			"/>
			<polygon class="st2" points="297.6,33.8 295.7,35.8 295.7,32.5 297.6,30.5 			"/>
			<polygon class="st2" points="300.5,30.7 298.6,32.7 298.6,29.4 300.5,27.4 			"/>
			<polygon class="st2" points="294.7,42.1 292.8,44.1 292.8,40.9 294.7,38.9 			"/>
			<polygon class="st2" points="297.6,39 295.7,41 295.7,37.7 297.6,35.7 			"/>
			<polygon class="st2" points="300.5,35.9 298.6,37.9 298.6,34.6 300.5,32.6 			"/>
			<polygon class="st2" points="294.7,47.3 292.8,49.4 292.8,46.1 294.7,44.1 			"/>
			<polygon class="st2" points="297.6,44.2 295.7,46.2 295.7,43 297.6,41 			"/>
			<polygon class="st2" points="300.5,41.1 298.6,43.1 298.6,39.9 300.5,37.8 			"/>
			<polygon class="st2" points="294.7,52.6 292.8,54.6 292.8,51.3 294.7,49.3 			"/>
			<polygon class="st2" points="297.6,49.5 295.7,51.5 295.7,48.2 297.6,46.2 			"/>
			<polygon class="st2" points="300.5,46.3 298.6,48.3 298.6,45.1 300.5,43.1 			"/>
			<polygon class="st2" points="294.7,57.8 292.8,59.8 292.8,56.5 294.7,54.5 			"/>
			<polygon class="st2" points="297.6,54.7 295.7,56.7 295.7,53.4 297.6,51.4 			"/>
			<polygon class="st2" points="300.5,51.6 298.6,53.6 298.6,50.3 300.5,48.3 			"/>
			<polygon class="st2" points="294.7,63 292.8,65 292.8,61.7 294.7,59.7 			"/>
			<polygon class="st2" points="297.6,59.9 295.7,61.9 295.7,58.6 297.6,56.6 			"/>
			<polygon class="st2" points="300.5,56.8 298.6,58.8 298.6,55.5 300.5,53.5 			"/>
			<polygon class="st2" points="294.7,68.2 292.8,70.2 292.8,67 294.7,65 			"/>
			<polygon class="st2" points="297.6,65.1 295.7,67.1 295.7,63.9 297.6,61.8 			"/>
			<polygon class="st2" points="300.5,62 298.6,64 298.6,60.7 300.5,58.7 			"/>
			<polygon class="st2" points="294.7,73.5 292.8,75.5 292.8,72.2 294.7,70.2 			"/>
			<polygon class="st2" points="297.6,70.3 295.7,72.3 295.7,69.1 297.6,67.1 			"/>
			<polygon class="st2" points="300.5,67.2 298.6,69.2 298.6,66 300.5,64 			"/>
			<polygon class="st2" points="294.7,78.7 292.8,80.7 292.8,77.4 294.7,75.4 			"/>
			<polygon class="st2" points="297.6,75.6 295.7,77.6 295.7,74.3 297.6,72.3 			"/>
			<polygon class="st2" points="300.5,72.4 298.6,74.5 298.6,71.2 300.5,69.2 			"/>
			<polygon class="st2" points="294.7,83.9 292.8,85.9 292.8,82.6 294.7,80.6 			"/>
			<polygon class="st2" points="297.6,80.8 295.7,82.8 295.7,79.5 297.6,77.5 			"/>
			<polygon class="st2" points="300.5,77.7 298.6,79.7 298.6,76.4 300.5,74.4 			"/>
		</g>
		<g>
			<polygon class="st2" points="315.3,27.2 313.4,27.9 313.4,25.1 315.3,24.3 			"/>
			<polygon class="st2" points="318.2,26 316.3,26.8 316.3,23.9 318.2,23.2 			"/>
			<polygon class="st2" points="321.1,24.9 319.2,25.6 319.2,22.8 321.1,22 			"/>
			<polygon class="st2" points="315.3,31.7 313.4,32.5 313.4,29.6 315.3,28.9 			"/>
			<polygon class="st2" points="318.2,30.5 316.3,31.3 316.3,28.5 318.2,27.7 			"/>
			<polygon class="st2" points="321.1,29.4 319.2,30.1 319.2,27.3 321.1,26.6 			"/>
			<polygon class="st2" points="315.3,36.2 313.4,37 313.4,34.1 315.3,33.4 			"/>
			<polygon class="st2" points="318.2,35.1 316.3,35.8 316.3,33 318.2,32.2 			"/>
			<polygon class="st2" points="321.1,33.9 319.2,34.7 319.2,31.8 321.1,31.1 			"/>
			<polygon class="st2" points="315.3,40.8 313.4,41.5 313.4,38.7 315.3,37.9 			"/>
			<polygon class="st2" points="318.2,39.6 316.3,40.4 316.3,37.5 318.2,36.8 			"/>
			<polygon class="st2" points="321.1,38.4 319.2,39.2 319.2,36.4 321.1,35.6 			"/>
			<polygon class="st2" points="315.3,45.3 313.4,46 313.4,43.2 315.3,42.5 			"/>
			<polygon class="st2" points="318.2,44.1 316.3,44.9 316.3,42 318.2,41.3 			"/>
			<polygon class="st2" points="321.1,43 319.2,43.7 319.2,40.9 321.1,40.1 			"/>
			<polygon class="st2" points="315.3,49.8 313.4,50.6 313.4,47.7 315.3,47 			"/>
			<polygon class="st2" points="318.2,48.7 316.3,49.4 316.3,46.6 318.2,45.8 			"/>
			<polygon class="st2" points="321.1,47.5 319.2,48.3 319.2,45.4 321.1,44.7 			"/>
			<polygon class="st2" points="315.3,54.4 313.4,55.1 313.4,52.3 315.3,51.5 			"/>
			<polygon class="st2" points="318.2,53.2 316.3,53.9 316.3,51.1 318.2,50.4 			"/>
			<polygon class="st2" points="321.1,52 319.2,52.8 319.2,49.9 321.1,49.2 			"/>
			<polygon class="st2" points="315.3,58.9 313.4,59.6 313.4,56.8 315.3,56 			"/>
			<polygon class="st2" points="318.2,57.7 316.3,58.5 316.3,55.6 318.2,54.9 			"/>
			<polygon class="st2" points="321.1,56.6 319.2,57.3 319.2,54.5 321.1,53.7 			"/>
			<polygon class="st2" points="315.3,63.4 313.4,64.2 313.4,61.3 315.3,60.6 			"/>
			<polygon class="st2" points="318.2,62.3 316.3,63 316.3,60.2 318.2,59.4 			"/>
			<polygon class="st2" points="321.1,61.1 319.2,61.8 319.2,59 321.1,58.3 			"/>
			<polygon class="st2" points="315.3,67.9 313.4,68.7 313.4,65.8 315.3,65.1 			"/>
			<polygon class="st2" points="318.2,66.8 316.3,67.5 316.3,64.7 318.2,63.9 			"/>
			<polygon class="st2" points="321.1,65.6 319.2,66.4 319.2,63.5 321.1,62.8 			"/>
			<polygon class="st2" points="315.3,72.5 313.4,73.2 313.4,70.4 315.3,69.6 			"/>
			<polygon class="st2" points="318.2,71.3 316.3,72.1 316.3,69.2 318.2,68.5 			"/>
			<polygon class="st2" points="321.1,70.2 319.2,70.9 319.2,68.1 321.1,67.3 			"/>
			<polygon class="st2" points="315.3,77 313.4,77.7 313.4,74.9 315.3,74.2 			"/>
			<polygon class="st2" points="318.2,75.8 316.3,76.6 316.3,73.7 318.2,73 			"/>
			<polygon class="st2" points="321.1,74.7 319.2,75.4 319.2,72.6 321.1,71.8 			"/>
		</g>
		<g>
			<polygon class="st2" points="357.8,28.1 356.1,29.6 356.1,26.4 357.8,24.8 			"/>
			<polygon class="st2" points="360.6,25.7 358.8,27.2 358.8,24 360.6,22.4 			"/>
			<polygon class="st2" points="363.3,23.3 361.5,24.9 361.5,21.6 363.3,20.1 			"/>
			<polygon class="st2" points="357.8,33.3 356.1,34.8 356.1,31.6 357.8,30 			"/>
			<polygon class="st2" points="360.6,30.9 358.8,32.5 358.8,29.2 360.6,27.7 			"/>
			<polygon class="st2" points="363.3,28.5 361.5,30.1 361.5,26.8 363.3,25.3 			"/>
			<polygon class="st2" points="357.8,38.5 356.1,40.1 356.1,36.8 357.8,35.3 			"/>
			<polygon class="st2" points="360.6,36.1 358.8,37.7 358.8,34.4 360.6,32.9 			"/>
			<polygon class="st2" points="363.3,33.7 361.5,35.3 361.5,32 363.3,30.5 			"/>
			<polygon class="st2" points="357.8,43.7 356.1,45.3 356.1,42 357.8,40.5 			"/>
			<polygon class="st2" points="360.6,41.3 358.8,42.9 358.8,39.6 360.6,38.1 			"/>
			<polygon class="st2" points="363.3,39 361.5,40.5 361.5,37.2 363.3,35.7 			"/>
			<polygon class="st2" points="357.8,48.9 356.1,50.5 356.1,47.2 357.8,45.7 			"/>
			<polygon class="st2" points="360.6,46.6 358.8,48.1 358.8,44.8 360.6,43.3 			"/>
			<polygon class="st2" points="363.3,44.2 361.5,45.7 361.5,42.4 363.3,40.9 			"/>
			<polygon class="st2" points="357.8,54.2 356.1,55.7 356.1,52.4 357.8,50.9 			"/>
			<polygon class="st2" points="360.6,51.8 358.8,53.3 358.8,50 360.6,48.5 			"/>
			<polygon class="st2" points="363.3,49.4 361.5,50.9 361.5,47.7 363.3,46.1 			"/>
			<polygon class="st2" points="357.8,59.4 356.1,60.9 356.1,57.6 357.8,56.1 			"/>
			<polygon class="st2" points="360.6,57 358.8,58.5 358.8,55.3 360.6,53.7 			"/>
			<polygon class="st2" points="363.3,54.6 361.5,56.1 361.5,52.9 363.3,51.3 			"/>
			<polygon class="st2" points="357.8,64.6 356.1,66.1 356.1,62.8 357.8,61.3 			"/>
			<polygon class="st2" points="360.6,62.2 358.8,63.7 358.8,60.5 360.6,58.9 			"/>
			<polygon class="st2" points="363.3,59.8 361.5,61.3 361.5,58.1 363.3,56.5 			"/>
			<polygon class="st2" points="357.8,69.8 356.1,71.3 356.1,68.1 357.8,66.5 			"/>
			<polygon class="st2" points="360.6,67.4 358.8,68.9 358.8,65.7 360.6,64.1 			"/>
			<polygon class="st2" points="363.3,65 361.5,66.6 361.5,63.3 363.3,61.8 			"/>
			<polygon class="st2" points="357.8,75 356.1,76.5 356.1,73.3 357.8,71.7 			"/>
			<polygon class="st2" points="360.6,72.6 358.8,74.2 358.8,70.9 360.6,69.3 			"/>
			<polygon class="st2" points="363.3,70.2 361.5,71.8 361.5,68.5 363.3,67 			"/>
			<polygon class="st2" points="357.8,80.2 356.1,81.7 356.1,78.5 357.8,76.9 			"/>
			<polygon class="st2" points="360.6,77.8 358.8,79.4 358.8,76.1 360.6,74.6 			"/>
			<polygon class="st2" points="363.3,75.4 361.5,77 361.5,73.7 363.3,72.2 			"/>
			<polygon class="st2" points="357.8,85.4 356.1,87 356.1,83.7 357.8,82.2 			"/>
			<polygon class="st2" points="360.6,83 358.8,84.6 358.8,81.3 360.6,79.8 			"/>
			<polygon class="st2" points="363.3,80.7 361.5,82.2 361.5,78.9 363.3,77.4 			"/>
		</g>
		<g>
			<polygon class="st2" points="377.5,27.9 375.7,29.9 375.7,26.6 377.5,24.6 			"/>
			<polygon class="st2" points="380.5,24.9 378.6,26.9 378.6,23.6 380.5,21.6 			"/>
			<polygon class="st2" points="383.4,22 381.5,23.9 381.5,20.6 383.4,18.7 			"/>
			<polygon class="st2" points="377.5,33.2 375.7,35.1 375.7,31.8 377.5,29.9 			"/>
			<polygon class="st2" points="380.5,30.2 378.6,32.2 378.6,28.8 380.5,26.9 			"/>
			<polygon class="st2" points="383.4,27.2 381.5,29.2 381.5,25.9 383.4,23.9 			"/>
			<polygon class="st2" points="377.5,38.5 375.7,40.4 375.7,37.1 377.5,35.2 			"/>
			<polygon class="st2" points="380.5,35.5 378.6,37.4 378.6,34.1 380.5,32.2 			"/>
			<polygon class="st2" points="383.4,32.5 381.5,34.4 381.5,31.1 383.4,29.2 			"/>
			<polygon class="st2" points="377.5,43.8 375.7,45.7 375.7,42.4 377.5,40.5 			"/>
			<polygon class="st2" points="380.5,40.8 378.6,42.7 378.6,39.4 380.5,37.5 			"/>
			<polygon class="st2" points="383.4,37.8 381.5,39.7 381.5,36.4 383.4,34.5 			"/>
			<polygon class="st2" points="377.5,49 375.7,51 375.7,47.7 377.5,45.7 			"/>
			<polygon class="st2" points="380.5,46.1 378.6,48 378.6,44.7 380.5,42.8 			"/>
			<polygon class="st2" points="383.4,43.1 381.5,45 381.5,41.7 383.4,39.8 			"/>
			<polygon class="st2" points="377.5,54.3 375.7,56.2 375.7,52.9 377.5,51 			"/>
			<polygon class="st2" points="380.5,51.3 378.6,53.3 378.6,50 380.5,48 			"/>
			<polygon class="st2" points="383.4,48.4 381.5,50.3 381.5,47 383.4,45 			"/>
			<polygon class="st2" points="377.5,59.6 375.7,61.5 375.7,58.2 377.5,56.3 			"/>
			<polygon class="st2" points="380.5,56.6 378.6,58.5 378.6,55.2 380.5,53.3 			"/>
			<polygon class="st2" points="383.4,53.6 381.5,55.6 381.5,52.2 383.4,50.3 			"/>
			<polygon class="st2" points="377.5,64.9 375.7,66.8 375.7,63.5 377.5,61.6 			"/>
			<polygon class="st2" points="380.5,61.9 378.6,63.8 378.6,60.5 380.5,58.6 			"/>
			<polygon class="st2" points="383.4,58.9 381.5,60.8 381.5,57.5 383.4,55.6 			"/>
			<polygon class="st2" points="377.5,70.2 375.7,72.1 375.7,68.8 377.5,66.8 			"/>
			<polygon class="st2" points="380.5,67.2 378.6,69.1 378.6,65.8 380.5,63.9 			"/>
			<polygon class="st2" points="383.4,64.2 381.5,66.1 381.5,62.8 383.4,60.9 			"/>
			<polygon class="st2" points="377.5,75.4 375.7,77.4 375.7,74 377.5,72.1 			"/>
			<polygon class="st2" points="380.5,72.4 378.6,74.4 378.6,71.1 380.5,69.1 			"/>
			<polygon class="st2" points="383.4,69.5 381.5,71.4 381.5,68.1 383.4,66.2 			"/>
			<polygon class="st2" points="377.5,80.7 375.7,82.6 375.7,79.3 377.5,77.4 			"/>
			<polygon class="st2" points="380.5,77.7 378.6,79.6 378.6,76.3 380.5,74.4 			"/>
			<polygon class="st2" points="383.4,74.7 381.5,76.7 381.5,73.4 383.4,71.4 			"/>
			<polygon class="st2" points="377.5,86 375.7,87.9 375.7,84.6 377.5,82.7 			"/>
			<polygon class="st2" points="380.5,83 378.6,84.9 378.6,81.6 380.5,79.7 			"/>
			<polygon class="st2" points="383.4,80 381.5,81.9 381.5,78.6 383.4,76.7 			"/>
		</g>
		<g>
			<polygon class="st2" points="398.4,27.7 396.6,30.3 396.6,27.5 398.4,24.9 			"/>
			<polygon class="st2" points="401.1,23.7 399.4,26.3 399.4,23.4 401.1,20.8 			"/>
			<polygon class="st2" points="403.9,19.6 402.1,22.3 402.1,19.4 403.9,16.8 			"/>
			<polygon class="st2" points="398.4,32.3 396.6,34.9 396.6,32.1 398.4,29.4 			"/>
			<polygon class="st2" points="401.1,28.3 399.4,30.9 399.4,28 401.1,25.4 			"/>
			<polygon class="st2" points="403.9,24.2 402.1,26.8 402.1,24 403.9,21.4 			"/>
			<polygon class="st2" points="398.4,36.9 396.6,39.5 396.6,36.6 398.4,34 			"/>
			<polygon class="st2" points="401.1,32.8 399.4,35.4 399.4,32.6 401.1,30 			"/>
			<polygon class="st2" points="403.9,28.8 402.1,31.4 402.1,28.5 403.9,25.9 			"/>
			<polygon class="st2" points="398.4,41.4 396.6,44 396.6,41.2 398.4,38.6 			"/>
			<polygon class="st2" points="401.1,37.4 399.4,40 399.4,37.1 401.1,34.5 			"/>
			<polygon class="st2" points="403.9,33.3 402.1,36 402.1,33.1 403.9,30.5 			"/>
			<polygon class="st2" points="398.4,46 396.6,48.6 396.6,45.7 398.4,43.1 			"/>
			<polygon class="st2" points="401.1,42 399.4,44.6 399.4,41.7 401.1,39.1 			"/>
			<polygon class="st2" points="403.9,37.9 402.1,40.5 402.1,37.7 403.9,35 			"/>
			<polygon class="st2" points="398.4,50.6 396.6,53.2 396.6,50.3 398.4,47.7 			"/>
			<polygon class="st2" points="401.1,46.5 399.4,49.1 399.4,46.3 401.1,43.7 			"/>
			<polygon class="st2" points="403.9,42.5 402.1,45.1 402.1,42.2 403.9,39.6 			"/>
			<polygon class="st2" points="398.4,55.1 396.6,57.7 396.6,54.9 398.4,52.3 			"/>
			<polygon class="st2" points="401.1,51.1 399.4,53.7 399.4,50.8 401.1,48.2 			"/>
			<polygon class="st2" points="403.9,47 402.1,49.6 402.1,46.8 403.9,44.2 			"/>
			<polygon class="st2" points="398.4,59.7 396.6,62.3 396.6,59.4 398.4,56.8 			"/>
			<polygon class="st2" points="401.1,55.7 399.4,58.3 399.4,55.4 401.1,52.8 			"/>
			<polygon class="st2" points="403.9,51.6 402.1,54.2 402.1,51.4 403.9,48.7 			"/>
			<polygon class="st2" points="398.4,64.3 396.6,66.9 396.6,64 398.4,61.4 			"/>
			<polygon class="st2" points="401.1,60.2 399.4,62.8 399.4,60 401.1,57.4 			"/>
			<polygon class="st2" points="403.9,56.2 402.1,58.8 402.1,55.9 403.9,53.3 			"/>
			<polygon class="st2" points="398.4,68.8 396.6,71.4 396.6,68.6 398.4,66 			"/>
			<polygon class="st2" points="401.1,64.8 399.4,67.4 399.4,64.5 401.1,61.9 			"/>
			<polygon class="st2" points="403.9,60.7 402.1,63.3 402.1,60.5 403.9,57.9 			"/>
			<polygon class="st2" points="398.4,73.4 396.6,76 396.6,73.1 398.4,70.5 			"/>
			<polygon class="st2" points="401.1,69.3 399.4,72 399.4,69.1 401.1,66.5 			"/>
			<polygon class="st2" points="403.9,65.3 402.1,67.9 402.1,65.1 403.9,62.4 			"/>
			<polygon class="st2" points="398.4,78 396.6,80.6 396.6,77.7 398.4,75.1 			"/>
			<polygon class="st2" points="401.1,73.9 399.4,76.5 399.4,73.7 401.1,71.1 			"/>
			<polygon class="st2" points="403.9,69.9 402.1,72.5 402.1,69.6 403.9,67 			"/>
		</g>
		<g>
			<polygon class="st2" points="419.1,27 417.4,30 417.4,26.7 419.1,23.7 			"/>
			<polygon class="st2" points="421.7,22.2 420,25.3 420,22 421.7,19 			"/>
			<polygon class="st2" points="424.3,17.5 422.6,20.6 422.6,17.3 424.3,14.3 			"/>
			<polygon class="st2" points="419.1,32.2 417.4,35.2 417.4,31.9 419.1,28.9 			"/>
			<polygon class="st2" points="421.7,27.5 420,30.5 420,27.2 421.7,24.2 			"/>
			<polygon class="st2" points="424.3,22.7 422.6,25.8 422.6,22.5 424.3,19.5 			"/>
			<polygon class="st2" points="419.1,37.4 417.4,40.4 417.4,37.1 419.1,34.1 			"/>
			<polygon class="st2" points="421.7,32.7 420,35.7 420,32.4 421.7,29.4 			"/>
			<polygon class="st2" points="424.3,28 422.6,31 422.6,27.7 424.3,24.7 			"/>
			<polygon class="st2" points="419.1,42.6 417.4,45.6 417.4,42.3 419.1,39.3 			"/>
			<polygon class="st2" points="421.7,37.9 420,40.9 420,37.6 421.7,34.6 			"/>
			<polygon class="st2" points="424.3,33.2 422.6,36.2 422.6,32.9 424.3,29.9 			"/>
			<polygon class="st2" points="419.1,47.8 417.4,50.8 417.4,47.5 419.1,44.5 			"/>
			<polygon class="st2" points="421.7,43.1 420,46.1 420,42.8 421.7,39.8 			"/>
			<polygon class="st2" points="424.3,38.4 422.6,41.4 422.6,38.1 424.3,35.1 			"/>
			<polygon class="st2" points="419.1,53 417.4,56 417.4,52.7 419.1,49.7 			"/>
			<polygon class="st2" points="421.7,48.3 420,51.3 420,48 421.7,45 			"/>
			<polygon class="st2" points="424.3,43.6 422.6,46.6 422.6,43.3 424.3,40.3 			"/>
			<polygon class="st2" points="419.1,58.2 417.4,61.2 417.4,58 419.1,54.9 			"/>
			<polygon class="st2" points="421.7,53.5 420,56.5 420,53.2 421.7,50.2 			"/>
			<polygon class="st2" points="424.3,48.8 422.6,51.8 422.6,48.5 424.3,45.5 			"/>
			<polygon class="st2" points="419.1,63.4 417.4,66.4 417.4,63.2 419.1,60.1 			"/>
			<polygon class="st2" points="421.7,58.7 420,61.7 420,58.5 421.7,55.4 			"/>
			<polygon class="st2" points="424.3,54 422.6,57 422.6,53.8 424.3,50.7 			"/>
			<polygon class="st2" points="419.1,68.6 417.4,71.6 417.4,68.4 419.1,65.3 			"/>
			<polygon class="st2" points="421.7,63.9 420,66.9 420,63.7 421.7,60.6 			"/>
			<polygon class="st2" points="424.3,59.2 422.6,62.2 422.6,59 424.3,55.9 			"/>
			<polygon class="st2" points="419.1,73.8 417.4,76.8 417.4,73.6 419.1,70.5 			"/>
			<polygon class="st2" points="421.7,69.1 420,72.1 420,68.9 421.7,65.8 			"/>
			<polygon class="st2" points="424.3,64.4 422.6,67.4 422.6,64.2 424.3,61.1 			"/>
			<polygon class="st2" points="419.1,79 417.4,82 417.4,78.8 419.1,75.7 			"/>
			<polygon class="st2" points="421.7,74.3 420,77.3 420,74.1 421.7,71 			"/>
			<polygon class="st2" points="424.3,69.6 422.6,72.6 422.6,69.4 424.3,66.3 			"/>
			<polygon class="st2" points="419.1,84.2 417.4,87.2 417.4,84 419.1,80.9 			"/>
			<polygon class="st2" points="421.7,79.5 420,82.5 420,79.3 421.7,76.2 			"/>
			<polygon class="st2" points="424.3,74.8 422.6,77.8 422.6,74.6 424.3,71.5 			"/>
		</g>
		<g>
			<polygon class="st2" points="440.1,28.6 438.2,30.1 438.2,26.8 440.1,25.3 			"/>
			<polygon class="st2" points="443.1,26.3 441.2,27.8 441.2,24.5 443.1,23 			"/>
			<polygon class="st2" points="446.1,24 444.2,25.5 444.2,22.2 446.1,20.7 			"/>
			<polygon class="st2" points="440.1,33.9 438.2,35.4 438.2,32.1 440.1,30.6 			"/>
			<polygon class="st2" points="443.1,31.6 441.2,33.1 441.2,29.8 443.1,28.3 			"/>
			<polygon class="st2" points="446.1,29.4 444.2,30.8 444.2,27.5 446.1,26 			"/>
			<polygon class="st2" points="440.1,39.2 438.2,40.7 438.2,37.4 440.1,35.9 			"/>
			<polygon class="st2" points="443.1,36.9 441.2,38.4 441.2,35.1 443.1,33.6 			"/>
			<polygon class="st2" points="446.1,34.7 444.2,36.1 444.2,32.8 446.1,31.3 			"/>
			<polygon class="st2" points="440.1,44.5 438.2,46 438.2,42.7 440.1,41.2 			"/>
			<polygon class="st2" points="443.1,42.2 441.2,43.7 441.2,40.4 443.1,38.9 			"/>
			<polygon class="st2" points="446.1,40 444.2,41.4 444.2,38.1 446.1,36.6 			"/>
			<polygon class="st2" points="440.1,49.8 438.2,51.3 438.2,48 440.1,46.5 			"/>
			<polygon class="st2" points="443.1,47.5 441.2,49 441.2,45.7 443.1,44.2 			"/>
			<polygon class="st2" points="446.1,45.3 444.2,46.7 444.2,43.4 446.1,41.9 			"/>
			<polygon class="st2" points="440.1,55.1 438.2,56.6 438.2,53.3 440.1,51.8 			"/>
			<polygon class="st2" points="443.1,52.9 441.2,54.3 441.2,51 443.1,49.5 			"/>
			<polygon class="st2" points="446.1,50.6 444.2,52 444.2,48.7 446.1,47.3 			"/>
			<polygon class="st2" points="440.1,60.4 438.2,61.9 438.2,58.6 440.1,57.1 			"/>
			<polygon class="st2" points="443.1,58.2 441.2,59.6 441.2,56.3 443.1,54.8 			"/>
			<polygon class="st2" points="446.1,55.9 444.2,57.4 444.2,54 446.1,52.6 			"/>
			<polygon class="st2" points="440.1,65.7 438.2,67.2 438.2,63.9 440.1,62.4 			"/>
			<polygon class="st2" points="443.1,63.5 441.2,64.9 441.2,61.6 443.1,60.1 			"/>
			<polygon class="st2" points="446.1,61.2 444.2,62.7 444.2,59.3 446.1,57.9 			"/>
			<polygon class="st2" points="440.1,71.1 438.2,72.5 438.2,69.2 440.1,67.7 			"/>
			<polygon class="st2" points="443.1,68.8 441.2,70.2 441.2,66.9 443.1,65.4 			"/>
			<polygon class="st2" points="446.1,66.5 444.2,68 444.2,64.6 446.1,63.2 			"/>
			<polygon class="st2" points="440.1,76.4 438.2,77.8 438.2,74.5 440.1,73 			"/>
			<polygon class="st2" points="443.1,74.1 441.2,75.5 441.2,72.2 443.1,70.8 			"/>
			<polygon class="st2" points="446.1,71.8 444.2,73.3 444.2,69.9 446.1,68.5 			"/>
			<polygon class="st2" points="440.1,81.7 438.2,83.1 438.2,79.8 440.1,78.3 			"/>
			<polygon class="st2" points="443.1,79.4 441.2,80.9 441.2,77.5 443.1,76.1 			"/>
			<polygon class="st2" points="446.1,77.1 444.2,78.6 444.2,75.2 446.1,73.8 			"/>
			<polygon class="st2" points="440.1,87 438.2,88.4 438.2,85.1 440.1,83.6 			"/>
			<polygon class="st2" points="443.1,84.7 441.2,86.2 441.2,82.8 443.1,81.4 			"/>
			<polygon class="st2" points="446.1,82.4 444.2,83.9 444.2,80.6 446.1,79.1 			"/>
		</g>
		<g>
			<polygon class="st2" points="461,27.7 459.3,29.7 459.3,26.4 461,24.5 			"/>
			<polygon class="st2" points="463.6,24.7 461.9,26.7 461.9,23.4 463.6,21.5 			"/>
			<polygon class="st2" points="466.3,21.8 464.6,23.7 464.6,20.4 466.3,18.5 			"/>
			<polygon class="st2" points="461,32.9 459.3,34.9 459.3,31.6 461,29.7 			"/>
			<polygon class="st2" points="463.6,29.9 461.9,31.9 461.9,28.6 463.6,26.7 			"/>
			<polygon class="st2" points="466.3,26.9 464.6,28.9 464.6,25.6 466.3,23.7 			"/>
			<polygon class="st2" points="461,38.1 459.3,40.1 459.3,36.8 461,34.9 			"/>
			<polygon class="st2" points="463.6,35.1 461.9,37.1 461.9,33.8 463.6,31.9 			"/>
			<polygon class="st2" points="466.3,32.1 464.6,34.1 464.6,30.8 466.3,28.9 			"/>
			<polygon class="st2" points="461,43.3 459.3,45.3 459.3,42 461,40.1 			"/>
			<polygon class="st2" points="463.6,40.3 461.9,42.3 461.9,39 463.6,37.1 			"/>
			<polygon class="st2" points="466.3,37.3 464.6,39.3 464.6,36 466.3,34.1 			"/>
			<polygon class="st2" points="461,48.5 459.3,50.4 459.3,47.2 461,45.3 			"/>
			<polygon class="st2" points="463.6,45.5 461.9,47.5 461.9,44.2 463.6,42.3 			"/>
			<polygon class="st2" points="466.3,42.5 464.6,44.5 464.6,41.2 466.3,39.3 			"/>
			<polygon class="st2" points="461,53.7 459.3,55.6 459.3,52.4 461,50.5 			"/>
			<polygon class="st2" points="463.6,50.7 461.9,52.7 461.9,49.4 463.6,47.5 			"/>
			<polygon class="st2" points="466.3,47.7 464.6,49.7 464.6,46.4 466.3,44.5 			"/>
			<polygon class="st2" points="461,58.9 459.3,60.8 459.3,57.6 461,55.7 			"/>
			<polygon class="st2" points="463.6,55.9 461.9,57.8 461.9,54.6 463.6,52.7 			"/>
			<polygon class="st2" points="466.3,52.9 464.6,54.9 464.6,51.6 466.3,49.7 			"/>
			<polygon class="st2" points="461,64.1 459.3,66 459.3,62.8 461,60.8 			"/>
			<polygon class="st2" points="463.6,61.1 461.9,63 461.9,59.8 463.6,57.9 			"/>
			<polygon class="st2" points="466.3,58.1 464.6,60 464.6,56.8 466.3,54.9 			"/>
			<polygon class="st2" points="461,69.3 459.3,71.2 459.3,68 461,66 			"/>
			<polygon class="st2" points="463.6,66.3 461.9,68.2 461.9,65 463.6,63.1 			"/>
			<polygon class="st2" points="466.3,63.3 464.6,65.2 464.6,62 466.3,60.1 			"/>
			<polygon class="st2" points="461,74.5 459.3,76.4 459.3,73.2 461,71.2 			"/>
			<polygon class="st2" points="463.6,71.5 461.9,73.4 461.9,70.2 463.6,68.2 			"/>
			<polygon class="st2" points="466.3,68.5 464.6,70.4 464.6,67.2 466.3,65.3 			"/>
			<polygon class="st2" points="461,79.7 459.3,81.6 459.3,78.4 461,76.4 			"/>
			<polygon class="st2" points="463.6,76.7 461.9,78.6 461.9,75.4 463.6,73.4 			"/>
			<polygon class="st2" points="466.3,73.7 464.6,75.6 464.6,72.4 466.3,70.4 			"/>
			<polygon class="st2" points="461,84.9 459.3,86.8 459.3,83.6 461,81.6 			"/>
			<polygon class="st2" points="463.6,81.9 461.9,83.8 461.9,80.6 463.6,78.6 			"/>
			<polygon class="st2" points="466.3,78.9 464.6,80.8 464.6,77.6 466.3,75.6 			"/>
		</g>
		<g>
			<polygon class="st2" points="481.4,27.7 479.6,30.8 479.6,28 481.4,25 			"/>
			<polygon class="st2" points="484.3,23.1 482.4,26.1 482.4,23.3 484.3,20.3 			"/>
			<polygon class="st2" points="487.1,18.4 485.3,21.4 485.3,18.6 487.1,15.6 			"/>
			<polygon class="st2" points="481.4,32.1 479.6,35.2 479.6,32.4 481.4,29.4 			"/>
			<polygon class="st2" points="484.3,27.4 482.4,30.5 482.4,27.7 484.3,24.7 			"/>
			<polygon class="st2" points="487.1,22.8 485.3,25.8 485.3,23 487.1,20 			"/>
			<polygon class="st2" points="481.4,36.5 479.6,39.5 479.6,36.8 481.4,33.8 			"/>
			<polygon class="st2" points="484.3,31.8 482.4,34.9 482.4,32.1 484.3,29.1 			"/>
			<polygon class="st2" points="487.1,27.1 485.3,30.2 485.3,27.4 487.1,24.4 			"/>
			<polygon class="st2" points="481.4,40.9 479.6,43.9 479.6,41.2 481.4,38.2 			"/>
			<polygon class="st2" points="484.3,36.2 482.4,39.2 482.4,36.5 484.3,33.5 			"/>
			<polygon class="st2" points="487.1,31.5 485.3,34.6 485.3,31.8 487.1,28.8 			"/>
			<polygon class="st2" points="481.4,45.3 479.6,48.3 479.6,45.6 481.4,42.5 			"/>
			<polygon class="st2" points="484.3,40.6 482.4,43.6 482.4,40.9 484.3,37.9 			"/>
			<polygon class="st2" points="487.1,35.9 485.3,38.9 485.3,36.2 487.1,33.2 			"/>
			<polygon class="st2" points="481.4,49.7 479.6,52.7 479.6,50 481.4,46.9 			"/>
			<polygon class="st2" points="484.3,45 482.4,48 482.4,45.3 484.3,42.2 			"/>
			<polygon class="st2" points="487.1,40.3 485.3,43.3 485.3,40.6 487.1,37.6 			"/>
			<polygon class="st2" points="481.4,54.1 479.6,57.1 479.6,54.3 481.4,51.3 			"/>
			<polygon class="st2" points="484.3,49.4 482.4,52.4 482.4,49.7 484.3,46.6 			"/>
			<polygon class="st2" points="487.1,44.7 485.3,47.7 485.3,45 487.1,41.9 			"/>
			<polygon class="st2" points="481.4,58.5 479.6,61.5 479.6,58.7 481.4,55.7 			"/>
			<polygon class="st2" points="484.3,53.8 482.4,56.8 482.4,54 484.3,51 			"/>
			<polygon class="st2" points="487.1,49.1 485.3,52.1 485.3,49.4 487.1,46.3 			"/>
			<polygon class="st2" points="481.4,62.8 479.6,65.9 479.6,63.1 481.4,60.1 			"/>
			<polygon class="st2" points="484.3,58.2 482.4,61.2 482.4,58.4 484.3,55.4 			"/>
			<polygon class="st2" points="487.1,53.5 485.3,56.5 485.3,53.7 487.1,50.7 			"/>
			<polygon class="st2" points="481.4,67.2 479.6,70.3 479.6,67.5 481.4,64.5 			"/>
			<polygon class="st2" points="484.3,62.5 482.4,65.6 482.4,62.8 484.3,59.8 			"/>
			<polygon class="st2" points="487.1,57.9 485.3,60.9 485.3,58.1 487.1,55.1 			"/>
			<polygon class="st2" points="481.4,71.6 479.6,74.6 479.6,71.9 481.4,68.9 			"/>
			<polygon class="st2" points="484.3,66.9 482.4,70 482.4,67.2 484.3,64.2 			"/>
			<polygon class="st2" points="487.1,62.2 485.3,65.3 485.3,62.5 487.1,59.5 			"/>
			<polygon class="st2" points="481.4,76 479.6,79 479.6,76.3 481.4,73.3 			"/>
			<polygon class="st2" points="484.3,71.3 482.4,74.3 482.4,71.6 484.3,68.6 			"/>
			<polygon class="st2" points="487.1,66.6 485.3,69.7 485.3,66.9 487.1,63.9 			"/>
		</g>
		<g>
			<polygon class="st2" points="501.7,29.2 499.8,31.2 499.8,27.9 501.7,25.8 			"/>
			<polygon class="st2" points="504.6,26 502.7,28 502.7,24.7 504.6,22.6 			"/>
			<polygon class="st2" points="507.6,22.8 505.7,24.9 505.7,21.5 507.6,19.4 			"/>
			<polygon class="st2" points="501.7,34.6 499.8,36.6 499.8,33.2 501.7,31.2 			"/>
			<polygon class="st2" points="504.6,31.4 502.7,33.4 502.7,30.1 504.6,28 			"/>
			<polygon class="st2" points="507.6,28.2 505.7,30.3 505.7,26.9 507.6,24.8 			"/>
			<polygon class="st2" points="501.7,40 499.8,42 499.8,38.6 501.7,36.6 			"/>
			<polygon class="st2" points="504.6,36.8 502.7,38.8 502.7,35.4 504.6,33.4 			"/>
			<polygon class="st2" points="507.6,33.6 505.7,35.6 505.7,32.3 507.6,30.2 			"/>
			<polygon class="st2" points="501.7,45.3 499.8,47.4 499.8,44 501.7,42 			"/>
			<polygon class="st2" points="504.6,42.2 502.7,44.2 502.7,40.8 504.6,38.8 			"/>
			<polygon class="st2" points="507.6,39 505.7,41 505.7,37.7 507.6,35.6 			"/>
			<polygon class="st2" points="501.7,50.7 499.8,52.8 499.8,49.4 501.7,47.4 			"/>
			<polygon class="st2" points="504.6,47.5 502.7,49.6 502.7,46.2 504.6,44.2 			"/>
			<polygon class="st2" points="507.6,44.4 505.7,46.4 505.7,43 507.6,41 			"/>
			<polygon class="st2" points="501.7,56.1 499.8,58.2 499.8,54.8 501.7,52.7 			"/>
			<polygon class="st2" points="504.6,52.9 502.7,55 502.7,51.6 504.6,49.6 			"/>
			<polygon class="st2" points="507.6,49.8 505.7,51.8 505.7,48.4 507.6,46.4 			"/>
			<polygon class="st2" points="501.7,61.5 499.8,63.6 499.8,60.2 501.7,58.1 			"/>
			<polygon class="st2" points="504.6,58.3 502.7,60.4 502.7,57 504.6,54.9 			"/>
			<polygon class="st2" points="507.6,55.1 505.7,57.2 505.7,53.8 507.6,51.8 			"/>
			<polygon class="st2" points="501.7,66.9 499.8,68.9 499.8,65.6 501.7,63.5 			"/>
			<polygon class="st2" points="504.6,63.7 502.7,65.8 502.7,62.4 504.6,60.3 			"/>
			<polygon class="st2" points="507.6,60.5 505.7,62.6 505.7,59.2 507.6,57.2 			"/>
			<polygon class="st2" points="501.7,72.3 499.8,74.3 499.8,71 501.7,68.9 			"/>
			<polygon class="st2" points="504.6,69.1 502.7,71.1 502.7,67.8 504.6,65.7 			"/>
			<polygon class="st2" points="507.6,65.9 505.7,68 505.7,64.6 507.6,62.5 			"/>
			<polygon class="st2" points="501.7,77.7 499.8,79.7 499.8,76.3 501.7,74.3 			"/>
			<polygon class="st2" points="504.6,74.5 502.7,76.5 502.7,73.2 504.6,71.1 			"/>
			<polygon class="st2" points="507.6,71.3 505.7,73.4 505.7,70 507.6,67.9 			"/>
			<polygon class="st2" points="501.7,83.1 499.8,85.1 499.8,81.7 501.7,79.7 			"/>
			<polygon class="st2" points="504.6,79.9 502.7,81.9 502.7,78.5 504.6,76.5 			"/>
			<polygon class="st2" points="507.6,76.7 505.7,78.7 505.7,75.4 507.6,73.3 			"/>
			<polygon class="st2" points="501.7,88.4 499.8,90.5 499.8,87.1 501.7,85.1 			"/>
			<polygon class="st2" points="504.6,85.3 502.7,87.3 502.7,83.9 504.6,81.9 			"/>
			<polygon class="st2" points="507.6,82.1 505.7,84.1 505.7,80.8 507.6,78.7 			"/>
		</g>
		<g>
			<polygon class="st2" points="522.6,27.3 520.9,31.1 520.9,27.7 522.6,24 			"/>
			<polygon class="st2" points="525.3,21.4 523.6,25.2 523.6,21.9 525.3,18.1 			"/>
			<polygon class="st2" points="527.9,15.6 526.2,19.4 526.2,16 527.9,12.2 			"/>
			<polygon class="st2" points="522.6,32.7 520.9,36.5 520.9,33.1 522.6,29.3 			"/>
			<polygon class="st2" points="525.3,26.8 523.6,30.6 523.6,27.3 525.3,23.5 			"/>
			<polygon class="st2" points="527.9,20.9 526.2,24.7 526.2,21.4 527.9,17.6 			"/>
			<polygon class="st2" points="522.6,38.1 520.9,41.9 520.9,38.5 522.6,34.7 			"/>
			<polygon class="st2" points="525.3,32.2 523.6,36 523.6,32.6 525.3,28.8 			"/>
			<polygon class="st2" points="527.9,26.3 526.2,30.1 526.2,26.8 527.9,23 			"/>
			<polygon class="st2" points="522.6,43.5 520.9,47.3 520.9,43.9 522.6,40.1 			"/>
			<polygon class="st2" points="525.3,37.6 523.6,41.4 523.6,38 525.3,34.2 			"/>
			<polygon class="st2" points="527.9,31.7 526.2,35.5 526.2,32.1 527.9,28.3 			"/>
			<polygon class="st2" points="522.6,48.9 520.9,52.7 520.9,49.3 522.6,45.5 			"/>
			<polygon class="st2" points="525.3,43 523.6,46.8 523.6,43.4 525.3,39.6 			"/>
			<polygon class="st2" points="527.9,37.1 526.2,40.9 526.2,37.5 527.9,33.7 			"/>
			<polygon class="st2" points="522.6,54.3 520.9,58.1 520.9,54.7 522.6,50.9 			"/>
			<polygon class="st2" points="525.3,48.4 523.6,52.2 523.6,48.8 525.3,45 			"/>
			<polygon class="st2" points="527.9,42.5 526.2,46.3 526.2,42.9 527.9,39.1 			"/>
			<polygon class="st2" points="522.6,59.7 520.9,63.4 520.9,60.1 522.6,56.3 			"/>
			<polygon class="st2" points="525.3,53.8 523.6,57.6 523.6,54.2 525.3,50.4 			"/>
			<polygon class="st2" points="527.9,47.9 526.2,51.7 526.2,48.3 527.9,44.5 			"/>
			<polygon class="st2" points="522.6,65 520.9,68.8 520.9,65.5 522.6,61.7 			"/>
			<polygon class="st2" points="525.3,59.2 523.6,63 523.6,59.6 525.3,55.8 			"/>
			<polygon class="st2" points="527.9,53.3 526.2,57.1 526.2,53.7 527.9,49.9 			"/>
			<polygon class="st2" points="522.6,70.4 520.9,74.2 520.9,70.8 522.6,67.1 			"/>
			<polygon class="st2" points="525.3,64.5 523.6,68.3 523.6,65 525.3,61.2 			"/>
			<polygon class="st2" points="527.9,58.7 526.2,62.5 526.2,59.1 527.9,55.3 			"/>
			<polygon class="st2" points="522.6,75.8 520.9,79.6 520.9,76.2 522.6,72.4 			"/>
			<polygon class="st2" points="525.3,69.9 523.6,73.7 523.6,70.4 525.3,66.6 			"/>
			<polygon class="st2" points="527.9,64 526.2,67.8 526.2,64.5 527.9,60.7 			"/>
			<polygon class="st2" points="522.6,81.2 520.9,85 520.9,81.6 522.6,77.8 			"/>
			<polygon class="st2" points="525.3,75.3 523.6,79.1 523.6,75.7 525.3,71.9 			"/>
			<polygon class="st2" points="527.9,69.4 526.2,73.2 526.2,69.9 527.9,66.1 			"/>
			<polygon class="st2" points="522.6,86.6 520.9,90.4 520.9,87 522.6,83.2 			"/>
			<polygon class="st2" points="525.3,80.7 523.6,84.5 523.6,81.1 525.3,77.3 			"/>
			<polygon class="st2" points="527.9,74.8 526.2,78.6 526.2,75.2 527.9,71.4 			"/>
		</g>
		<g>
			<polygon class="st2" points="543.1,26.2 541.3,28.8 541.3,26 543.1,23.4 			"/>
			<polygon class="st2" points="545.7,22.2 544,24.8 544,22 545.7,19.4 			"/>
			<polygon class="st2" points="548.4,18.2 546.7,20.8 546.7,18 548.4,15.4 			"/>
			<polygon class="st2" points="543.1,30.7 541.3,33.3 541.3,30.5 543.1,27.9 			"/>
			<polygon class="st2" points="545.7,26.7 544,29.3 544,26.5 545.7,23.9 			"/>
			<polygon class="st2" points="548.4,22.7 546.7,25.3 546.7,22.5 548.4,19.9 			"/>
			<polygon class="st2" points="543.1,35.2 541.3,37.8 541.3,35 543.1,32.4 			"/>
			<polygon class="st2" points="545.7,31.2 544,33.8 544,31 545.7,28.4 			"/>
			<polygon class="st2" points="548.4,27.2 546.7,29.8 546.7,27 548.4,24.4 			"/>
			<polygon class="st2" points="543.1,39.8 541.3,42.3 541.3,39.5 543.1,36.9 			"/>
			<polygon class="st2" points="545.7,35.7 544,38.3 544,35.5 545.7,32.9 			"/>
			<polygon class="st2" points="548.4,31.7 546.7,34.3 546.7,31.5 548.4,28.9 			"/>
			<polygon class="st2" points="543.1,44.3 541.3,46.8 541.3,44 543.1,41.4 			"/>
			<polygon class="st2" points="545.7,40.3 544,42.8 544,40 545.7,37.4 			"/>
			<polygon class="st2" points="548.4,36.2 546.7,38.8 546.7,36 548.4,33.4 			"/>
			<polygon class="st2" points="543.1,48.8 541.3,51.3 541.3,48.5 543.1,45.9 			"/>
			<polygon class="st2" points="545.7,44.8 544,47.3 544,44.5 545.7,41.9 			"/>
			<polygon class="st2" points="548.4,40.8 546.7,43.3 546.7,40.5 548.4,37.9 			"/>
			<polygon class="st2" points="543.1,53.3 541.3,55.8 541.3,53 543.1,50.4 			"/>
			<polygon class="st2" points="545.7,49.3 544,51.8 544,49 545.7,46.4 			"/>
			<polygon class="st2" points="548.4,45.3 546.7,47.8 546.7,45 548.4,42.4 			"/>
			<polygon class="st2" points="543.1,57.8 541.3,60.3 541.3,57.5 543.1,54.9 			"/>
			<polygon class="st2" points="545.7,53.8 544,56.3 544,53.5 545.7,50.9 			"/>
			<polygon class="st2" points="548.4,49.8 546.7,52.3 546.7,49.5 548.4,46.9 			"/>
			<polygon class="st2" points="543.1,62.3 541.3,64.8 541.3,62 543.1,59.4 			"/>
			<polygon class="st2" points="545.7,58.3 544,60.8 544,58 545.7,55.4 			"/>
			<polygon class="st2" points="548.4,54.3 546.7,56.8 546.7,54 548.4,51.4 			"/>
			<polygon class="st2" points="543.1,66.8 541.3,69.3 541.3,66.5 543.1,63.9 			"/>
			<polygon class="st2" points="545.7,62.8 544,65.3 544,62.5 545.7,59.9 			"/>
			<polygon class="st2" points="548.4,58.8 546.7,61.3 546.7,58.5 548.4,55.9 			"/>
			<polygon class="st2" points="543.1,71.3 541.3,73.8 541.3,71 543.1,68.4 			"/>
			<polygon class="st2" points="545.7,67.3 544,69.8 544,67 545.7,64.4 			"/>
			<polygon class="st2" points="548.4,63.3 546.7,65.8 546.7,63 548.4,60.4 			"/>
			<polygon class="st2" points="543.1,75.8 541.3,78.3 541.3,75.5 543.1,72.9 			"/>
			<polygon class="st2" points="545.7,71.8 544,74.3 544,71.5 545.7,68.9 			"/>
			<polygon class="st2" points="548.4,67.8 546.7,70.3 546.7,67.5 548.4,64.9 			"/>
		</g>
		<g>
			<polygon class="st2" points="563.7,29.5 561.8,30.9 561.8,27.6 563.7,26.2 			"/>
			<polygon class="st2" points="566.7,27.3 564.8,28.7 564.8,25.4 566.7,24 			"/>
			<polygon class="st2" points="569.7,25.1 567.8,26.5 567.8,23.2 569.7,21.8 			"/>
			<polygon class="st2" points="563.7,34.7 561.8,36.2 561.8,32.9 563.7,31.4 			"/>
			<polygon class="st2" points="566.7,32.5 564.8,34 564.8,30.7 566.7,29.2 			"/>
			<polygon class="st2" points="569.7,30.3 567.8,31.7 567.8,28.5 569.7,27 			"/>
			<polygon class="st2" points="563.7,40 561.8,41.4 561.8,38.1 563.7,36.7 			"/>
			<polygon class="st2" points="566.7,37.8 564.8,39.2 564.8,35.9 566.7,34.5 			"/>
			<polygon class="st2" points="569.7,35.6 567.8,37 567.8,33.7 569.7,32.3 			"/>
			<polygon class="st2" points="563.7,45.3 561.8,46.7 561.8,43.4 563.7,42 			"/>
			<polygon class="st2" points="566.7,43.1 564.8,44.5 564.8,41.2 566.7,39.8 			"/>
			<polygon class="st2" points="569.7,40.8 567.8,42.3 567.8,39 569.7,37.5 			"/>
			<polygon class="st2" points="563.7,50.5 561.8,51.9 561.8,48.7 563.7,47.2 			"/>
			<polygon class="st2" points="566.7,48.3 564.8,49.7 564.8,46.4 566.7,45 			"/>
			<polygon class="st2" points="569.7,46.1 567.8,47.5 567.8,44.2 569.7,42.8 			"/>
			<polygon class="st2" points="563.7,55.8 561.8,57.2 561.8,53.9 563.7,52.5 			"/>
			<polygon class="st2" points="566.7,53.6 564.8,55 564.8,51.7 566.7,50.3 			"/>
			<polygon class="st2" points="569.7,51.4 567.8,52.8 567.8,49.5 569.7,48.1 			"/>
			<polygon class="st2" points="563.7,61 561.8,62.5 561.8,59.2 563.7,57.7 			"/>
			<polygon class="st2" points="566.7,58.8 564.8,60.3 564.8,57 566.7,55.5 			"/>
			<polygon class="st2" points="569.7,56.6 567.8,58 567.8,54.7 569.7,53.3 			"/>
			<polygon class="st2" points="563.7,66.3 561.8,67.7 561.8,64.4 563.7,63 			"/>
			<polygon class="st2" points="566.7,64.1 564.8,65.5 564.8,62.2 566.7,60.8 			"/>
			<polygon class="st2" points="569.7,61.9 567.8,63.3 567.8,60 569.7,58.6 			"/>
			<polygon class="st2" points="563.7,71.6 561.8,73 561.8,69.7 563.7,68.3 			"/>
			<polygon class="st2" points="566.7,69.3 564.8,70.8 564.8,67.5 566.7,66.1 			"/>
			<polygon class="st2" points="569.7,67.1 567.8,68.6 567.8,65.3 569.7,63.8 			"/>
			<polygon class="st2" points="563.7,76.8 561.8,78.2 561.8,74.9 563.7,73.5 			"/>
			<polygon class="st2" points="566.7,74.6 564.8,76 564.8,72.7 566.7,71.3 			"/>
			<polygon class="st2" points="569.7,72.4 567.8,73.8 567.8,70.5 569.7,69.1 			"/>
			<polygon class="st2" points="563.7,82.1 561.8,83.5 561.8,80.2 563.7,78.8 			"/>
			<polygon class="st2" points="566.7,79.9 564.8,81.3 564.8,78 566.7,76.6 			"/>
			<polygon class="st2" points="569.7,77.7 567.8,79.1 567.8,75.8 569.7,74.4 			"/>
			<polygon class="st2" points="563.7,87.3 561.8,88.8 561.8,85.5 563.7,84 			"/>
			<polygon class="st2" points="566.7,85.1 564.8,86.5 564.8,83.3 566.7,81.8 			"/>
			<polygon class="st2" points="569.7,82.9 567.8,84.3 567.8,81 569.7,79.6 			"/>
		</g>
		<g>
			<polygon class="st2" points="336.4,26.1 334.4,30.3 334.4,26.5 336.4,22.3 			"/>
			<polygon class="st2" points="339.5,19.7 337.5,23.9 337.5,20 339.5,15.9 			"/>
			<polygon class="st2" points="342.6,13.3 340.6,17.4 340.6,13.6 342.6,9.5 			"/>
			<polygon class="st2" points="336.4,32.2 334.4,36.4 334.4,32.5 336.4,28.4 			"/>
			<polygon class="st2" points="339.5,25.8 337.5,30 337.5,26.1 339.5,22 			"/>
			<polygon class="st2" points="342.6,19.4 340.6,23.5 340.6,19.7 342.6,15.6 			"/>
			<polygon class="st2" points="336.4,38.3 334.4,42.5 334.4,38.6 336.4,34.5 			"/>
			<polygon class="st2" points="339.5,31.9 337.5,36 337.5,32.2 339.5,28.1 			"/>
			<polygon class="st2" points="342.6,25.5 340.6,29.6 340.6,25.8 342.6,21.7 			"/>
			<polygon class="st2" points="336.4,44.4 334.4,48.6 334.4,44.7 336.4,40.6 			"/>
			<polygon class="st2" points="339.5,38 337.5,42.1 337.5,38.3 339.5,34.2 			"/>
			<polygon class="st2" points="342.6,31.6 340.6,35.7 340.6,31.9 342.6,27.8 			"/>
			<polygon class="st2" points="336.4,50.5 334.4,54.7 334.4,50.8 336.4,46.7 			"/>
			<polygon class="st2" points="339.5,44.1 337.5,48.2 337.5,44.4 339.5,40.3 			"/>
			<polygon class="st2" points="342.6,37.7 340.6,41.8 340.6,38 342.6,33.9 			"/>
			<polygon class="st2" points="336.4,56.6 334.4,60.8 334.4,56.9 336.4,52.8 			"/>
			<polygon class="st2" points="339.5,50.2 337.5,54.3 337.5,50.5 339.5,46.4 			"/>
			<polygon class="st2" points="342.6,43.8 340.6,47.9 340.6,44.1 342.6,40 			"/>
			<polygon class="st2" points="336.4,62.7 334.4,66.8 334.4,63 336.4,58.9 			"/>
			<polygon class="st2" points="339.5,56.3 337.5,60.4 337.5,56.6 339.5,52.5 			"/>
			<polygon class="st2" points="342.6,49.9 340.6,54 340.6,50.2 342.6,46.1 			"/>
			<polygon class="st2" points="336.4,68.8 334.4,72.9 334.4,69.1 336.4,65 			"/>
			<polygon class="st2" points="339.5,62.4 337.5,66.5 337.5,62.7 339.5,58.6 			"/>
			<polygon class="st2" points="342.6,56 340.6,60.1 340.6,56.3 342.6,52.2 			"/>
			<polygon class="st2" points="336.4,74.9 334.4,79 334.4,75.2 336.4,71.1 			"/>
			<polygon class="st2" points="339.5,68.5 337.5,72.6 337.5,68.8 339.5,64.7 			"/>
			<polygon class="st2" points="342.6,62.1 340.6,66.2 340.6,62.4 342.6,58.3 			"/>
			<polygon class="st2" points="336.4,81 334.4,85.1 334.4,81.3 336.4,77.2 			"/>
			<polygon class="st2" points="339.5,74.6 337.5,78.7 337.5,74.9 339.5,70.8 			"/>
			<polygon class="st2" points="342.6,68.2 340.6,72.3 340.6,68.5 342.6,64.4 			"/>
			<polygon class="st2" points="336.4,87.1 334.4,91.2 334.4,87.4 336.4,83.3 			"/>
			<polygon class="st2" points="339.5,80.7 337.5,84.8 337.5,81 339.5,76.9 			"/>
			<polygon class="st2" points="342.6,74.3 340.6,78.4 340.6,74.6 342.6,70.5 			"/>
			<polygon class="st2" points="336.4,93.2 334.4,97.3 334.4,93.5 336.4,89.4 			"/>
			<polygon class="st2" points="339.5,86.8 337.5,90.9 337.5,87.1 339.5,83 			"/>
			<polygon class="st2" points="342.6,80.4 340.6,84.5 340.6,80.7 342.6,76.5 			"/>
		</g>
	</g>
</g>
<g id="Ebene_4" class="st4">
</g>
</svg>
