<?xml version="1.0" encoding="utf-8"?>
<!-- Generator: Adobe Illustrator 25.4.1, SVG Export Plug-In . SVG Version: 6.00 Build 0)  -->
<svg version="1.1" id="Ebene_1" xmlns="http://www.w3.org/2000/svg" xmlns:xlink="http://www.w3.org/1999/xlink" x="0px" y="0px"
	 viewBox="0 0 284 148" style="enable-background:new 0 0 284 148;" xml:space="preserve">
<style type="text/css">
	.st0{display:none;}
	.st1{fill:#4363AC;}
	.st2{fill:#FFFFFF;}
	.st3{fill:#CF172E;}
	.st4{fill:#360923;}
	.st5{fill:#FCD245;}
	.st6{fill:#3D6833;}
	.st7{fill:#FFFFFF;stroke:#FFFFFF;stroke-width:0.3;stroke-miterlimit:10;}
</style>
<g id="Ebene_6">
</g>
<g id="Straße">
</g>
<g id="Ebene_7">
</g>
<g id="Ebene_8">
</g>
<g id="Ebene_9">
</g>
<g id="Ebene_2_00000026131279052942371530000007329776495940197512_">
</g>
<g id="Stadt_x5F_vorne">
</g>
<g id="Ebene_10">
</g>
<g id="Stadt_x5F_hinten">
</g>
<g id="Ebene_4" class="st0">
</g>
<g>
	<g>
		<path class="st1" d="M69.8,40L69.8,40c0-0.1,0-0.1,0-0.2c-0.1-0.1-0.1-0.2-0.2-0.3c-0.1-0.2-0.2-0.3-0.3-0.5
			c-3.9-6.1-16-10.6-30.3-10.6c-14.2,0-26.1,4.4-30.1,10.4C8.4,39.5,8,40.4,8,41.3v0.5c0,1.8,1.5,3.3,3.3,3.3h55.5
			c1.8,0,3.3-1.5,3.3-3.3v-0.5C70,40.8,69.9,40.4,69.8,40z"/>
	</g>
	<path class="st2" d="M66.9,38.6H11.4c-1.6,0-2.8,1.3-2.8,2.8v0.3c0,1.6,1.3,2.8,2.8,2.8h55.5c1.6,0,2.8-1.3,2.8-2.8v-0.3
		C69.7,39.8,68.4,38.6,66.9,38.6z"/>
	<g>
		<polygon class="st3" points="37.2,40.3 36,38.6 32.8,38.6 		"/>
		<polygon class="st3" points="32.1,40.4 23.5,38.6 16.3,38.6 		"/>
		<polygon class="st3" points="34.8,40.3 30.6,38.6 26.6,38.6 		"/>
		<polygon class="st3" points="23.5,44.5 32.1,42.7 16.3,44.5 		"/>
		<polygon class="st3" points="37.2,42.8 32.8,44.5 35.9,44.5 		"/>
		<polygon class="st3" points="34.8,42.8 26.6,44.5 30.6,44.5 		"/>
		<path class="st3" d="M69.4,42.9c0.2-0.3,0.3-0.7,0.3-1.1l-20.2,0L69.4,42.9z"/>
		<path class="st3" d="M49.5,41.3l20.2,0c0-0.4-0.1-0.8-0.3-1.1L49.5,41.3z"/>
		<path class="st3" d="M66.6,38.6l-18.4,2.2l20.8-1.1c-0.5-0.7-1.3-1.1-2.2-1.1H66.6z"/>
		<polygon class="st3" points="47.6,38.6 43.5,40.3 51.6,38.6 		"/>
		<polygon class="st3" points="41,40.3 45.4,38.6 42.3,38.6 		"/>
		<polygon class="st3" points="46.1,42.7 54.7,44.5 62,44.5 		"/>
		<path class="st3" d="M8.8,40.2c-0.2,0.3-0.3,0.7-0.3,1.1l20.2,0L8.8,40.2z"/>
		<path class="st3" d="M28.7,41.8l-20.1,0c0,0.4,0.1,0.8,0.3,1.1L28.7,41.8z"/>
		<path class="st3" d="M30,40.8l-18.3-2.2h-0.3c-0.9,0-1.7,0.4-2.2,1.1L30,40.8z"/>
		<polygon class="st3" points="39.1,42.7 37.7,44.5 40.6,44.5 		"/>
		<path class="st3" d="M11.6,44.5L30,42.3L9.2,43.4c0.5,0.7,1.3,1.1,2.2,1.1H11.6z"/>
		<path class="st3" d="M48.3,42.3l18.3,2.2h0.3c0.9,0,1.7-0.4,2.2-1.1L48.3,42.3z"/>
		<polygon class="st3" points="54.7,38.6 46.1,40.4 62,38.6 		"/>
		<polygon class="st3" points="40.6,38.6 37.7,38.6 39.1,40.4 		"/>
		<polygon class="st3" points="41,42.8 42.3,44.5 45.4,44.5 		"/>
		<polygon class="st3" points="43.5,42.8 47.6,44.5 51.6,44.5 		"/>
	</g>
	<g>
		<polygon class="st4" points="24.3,114.3 31.3,38.2 47,38.2 54,114.3 		"/>
		<path class="st2" d="M46.6,38.6l6.9,75.3H24.7l6.9-75.3H46.6 M47.3,37.9h-0.6h-15H31l-0.1,0.6L24,113.8l-0.1,0.8h0.8h28.9h0.8
			l-0.1-0.8l-6.9-75.3L47.3,37.9L47.3,37.9z"/>
	</g>
	<rect x="28" y="33.9" class="st1" width="22.1" height="4.7"/>
</g>
<path class="st5" d="M272.2,25.2c-0.1-7.5-12-13.6-26.7-13.6c-14.7,0-26.6,6.1-26.7,13.6H272.2z"/>
<g>
	<path class="st5" d="M261.9,15.8h-33c-5.6,0-10.2,4.6-10.2,10.2v0c0,5.6,4.6,10.2,10.2,10.2h33c5.6,0,10.2-4.6,10.2-10.2v0
		C272.1,20.5,267.5,15.8,261.9,15.8z"/>
</g>
<path class="st2" d="M260.3,23.8h-29.8c-5.4,0-9.8,2.7-9.8,6c0,3.3,4.4,6,9.8,6h29.8c5.4,0,9.8-2.7,9.8-6
	C270.1,26.5,265.7,23.8,260.3,23.8z"/>
<g>
	<polygon class="st4" points="247.6,23.8 243.3,23.8 245.4,28.6 	"/>
	<polygon class="st4" points="244.3,28.7 242.3,23.8 237.5,23.8 	"/>
	<path class="st4" d="M249.5,29.8l20.6,0c0-0.7-0.2-1.4-0.6-2L249.5,29.8z"/>
	<path class="st4" d="M266.5,34.6l-17.9-3.7l13,5C263.4,35.7,265.1,35.3,266.5,34.6z"/>
	<polygon class="st4" points="242.3,35.9 244.3,31.3 237.7,35.9 	"/>
	<polygon class="st4" points="245.4,31.3 243.3,35.9 247.6,35.9 	"/>
	<path class="st4" d="M247.7,28.8l13.3-5c-0.2,0-0.4,0-0.7,0h-5.8L247.7,28.8z"/>
	<path class="st4" d="M269.4,32.1c0.4-0.6,0.6-1.3,0.7-2l-20.5,0L269.4,32.1z"/>
	<polygon class="st4" points="246.6,31.3 248.5,35.9 253.2,35.9 	"/>
	<path class="st4" d="M248.6,29.1l18.1-3.8c-1.3-0.7-2.9-1.2-4.7-1.4L248.6,29.1z"/>
	<path class="st4" d="M249.2,29.4l20.1-1.9c-0.5-0.7-1.3-1.4-2.2-2L249.2,29.4z"/>
	<path class="st4" d="M241.7,30.5l-20.1,1.9c0.6,0.7,1.3,1.4,2.3,1.9L241.7,30.5z"/>
	<path class="st4" d="M243.2,31.1l-12.9,4.8c0.1,0,0.1,0,0.2,0h6.1L243.2,31.1z"/>
	<path class="st4" d="M249.2,30.5l17.7,3.8c0.9-0.5,1.7-1.2,2.3-1.9L249.2,30.5z"/>
	<polygon class="st4" points="248.6,23.8 246.6,28.7 253.4,23.8 	"/>
	<path class="st4" d="M247.7,31.1l6.6,4.8h6c0.1,0,0.2,0,0.3,0L247.7,31.1z"/>
	<path class="st4" d="M241.4,30.2l-20.6,0c0,0.7,0.3,1.4,0.7,2L241.4,30.2z"/>
	<path class="st4" d="M243.2,28.8l-6.8-5h-5.9c-0.2,0-0.4,0-0.6,0L243.2,28.8z"/>
	<path class="st4" d="M242.3,29.1l-13.4-5.1c-1.8,0.2-3.4,0.7-4.8,1.4L242.3,29.1z"/>
	<path class="st4" d="M229.2,35.9l13.1-5l-18,3.7C225.7,35.3,227.4,35.7,229.2,35.9z"/>
	<path class="st4" d="M241.7,29.4l-18-3.9c-0.9,0.6-1.7,1.2-2.2,2L241.7,29.4z"/>
	<path class="st4" d="M221.3,27.8c-0.4,0.6-0.6,1.3-0.6,2l20.7-0.1L221.3,27.8z"/>
</g>
<g>
	<polygon class="st6" points="227.8,116.7 237.7,23.5 253.1,23.5 263,116.7 	"/>
	<path class="st2" d="M252.8,23.8l9.8,92.5h-34.4l9.8-92.5H252.8 M253.5,23.1h-0.6H238h-0.6l-0.1,0.6l-9.8,92.5l-0.1,0.8h0.8h34.4
		h0.8l-0.1-0.8l-9.8-92.5L253.5,23.1L253.5,23.1z"/>
</g>
<circle class="st5" cx="245.4" cy="14.5" r="8.4"/>
<rect x="234.9" y="14.8" class="st5" width="19.6" height="9.1"/>
<path class="st7" d="M254.9,44.8c0,1.6-0.7,3-1.5,3c-0.8,0-1.5-1.4-1.5-3c0,0,0,0,0,0h-0.3c0,0,0,0,0,0c0,1.6-0.7,3-1.5,3
	c-0.8,0-1.5-1.4-1.5-3h-0.3c0,1.6-0.7,3-1.5,3c-0.8,0-1.5-1.4-1.5-3h-0.3c0,1.6-0.7,3-1.5,3c-0.8,0-1.5-1.4-1.5-3H242
	c0,1.6-0.7,3-1.5,3c-0.8,0-1.5-1.4-1.5-3h-0.3c0,1.6-0.7,3-1.5,3c-0.8,0-1.5-1.4-1.5-3h-0.3c0,1.8,0.8,3.3,1.7,3.3
	c0.7,0,1.3-0.8,1.6-2c0.3,1.2,0.9,2,1.6,2c0.7,0,1.3-0.8,1.6-2c0.3,1.2,0.9,2,1.6,2c0.7,0,1.3-0.8,1.6-2c0.3,1.2,0.9,2,1.6,2
	c0.7,0,1.3-0.8,1.6-2c0.3,1.2,0.9,2,1.6,2c0.7,0,1.3-0.8,1.6-2c0.3,1.2,0.9,2,1.6,2c1,0,1.7-1.5,1.7-3.3H254.9z"/>
</svg>
