<?xml version="1.0" encoding="utf-8"?>
<!-- Generator: Adobe Illustrator 25.4.1, SVG Export Plug-In . SVG Version: 6.00 Build 0)  -->
<svg version="1.1" id="Ebene_1" xmlns="http://www.w3.org/2000/svg" xmlns:xlink="http://www.w3.org/1999/xlink" x="0px" y="0px"
	 viewBox="0 0 354.7 95.5" style="enable-background:new 0 0 354.7 95.5;" xml:space="preserve">
<style type="text/css">
	.st0{display:none;}
	.st1{fill:#CF172E;}
	.st2{fill:#4363AC;}
	.st3{fill:#360923;}
	.st4{fill:none;stroke:#360923;stroke-miterlimit:10;}
	.st5{fill:#FCD245;}
</style>
<g id="Ebene_9">
</g>
<g id="Ebene_4" class="st0">
</g>
<g>
	<polygon class="st1" points="381.3,9 354.5,37.9 354.3,63.9 382.2,63.9 	"/>
	<polygon class="st1" points="483.5,12 456.6,37.9 456.4,63.9 484.9,63.9 	"/>
	<polygon class="st1" points="584.4,14.7 558.1,37.9 557.9,63.9 586.5,63.9 	"/>
	<polygon class="st2" points="303.5,62.8 329.8,62.8 329,20.8 303.5,35.7 	"/>
	<polygon class="st2" points="406.9,62.8 433.2,62.8 432.8,16.4 406.9,37.5 	"/>
	<polygon class="st2" points="507.9,62.8 535.2,62.8 534.9,20.7 507.9,37.5 	"/>
	<polygon class="st3" points="355,62.8 328.7,62.8 328.7,20.2 355,36.5 	"/>
	<polygon class="st3" points="558.6,62.8 534.6,62.8 534.6,20.2 558.6,36.5 	"/>
	<polygon class="st3" points="608.1,62.8 584.1,62.8 584.1,13.7 608.1,36.5 	"/>
	<polygon class="st3" points="407.1,62.8 380.9,62.8 380.9,8.6 407.1,36.5 	"/>
	<polygon class="st3" points="457,62.8 432.7,62.8 432.7,15.3 457,36.5 	"/>
	<polygon class="st3" points="508.2,62.8 483.3,62.8 483.3,10.8 508.2,36.5 	"/>
	<polyline class="st4" points="329,20.8 303.5,35.7 303.5,62.7 	"/>
	<line class="st4" x1="381.3" y1="9" x2="354.5" y2="37.9"/>
	<line class="st4" x1="406.3" y1="38" x2="433" y2="15.8"/>
	<line class="st4" x1="456.4" y1="38" x2="483.7" y2="11.2"/>
	<line class="st4" x1="507.3" y1="37.8" x2="534.9" y2="20.7"/>
	<line class="st4" x1="557.8" y1="38" x2="584.5" y2="14.2"/>
	<g>
		<polygon class="st5" points="337.3,38.5 333.1,35.9 333.1,28.7 337.3,31.3 		"/>
		<polygon class="st5" points="343.9,42.6 339.7,40 339.7,32.8 343.9,35.4 		"/>
		<polygon class="st5" points="350.5,46.7 346.3,44.1 346.3,36.9 350.5,39.5 		"/>
		<polygon class="st5" points="337.3,49.1 333.1,46.5 333.1,39.3 337.3,41.9 		"/>
		<polygon class="st5" points="343.9,53.2 339.7,50.6 339.7,43.4 343.9,46 		"/>
		<polygon class="st5" points="350.5,57.3 346.3,54.7 346.3,47.5 350.5,50.1 		"/>
		<polygon class="st5" points="337.3,59.7 333.1,57.1 333.1,49.9 337.3,52.5 		"/>
		<polygon class="st5" points="343.9,63.9 339.7,61.2 339.7,54 343.9,56.6 		"/>
		<polygon class="st5" points="350.5,68 346.3,65.3 346.3,58.1 350.5,60.8 		"/>
		<polygon class="st5" points="337.3,70.4 333.1,67.7 333.1,60.5 337.3,63.2 		"/>
		<polygon class="st5" points="343.9,74.5 339.7,71.8 339.7,64.6 343.9,67.3 		"/>
		<polygon class="st5" points="350.5,78.6 346.3,76 346.3,68.7 350.5,71.4 		"/>
	</g>
	<g>
		<polygon class="st5" points="390,32.8 385.8,28.4 385.8,20.2 390,24.6 		"/>
		<polygon class="st5" points="396.6,39.8 392.4,35.3 392.4,27.1 396.6,31.6 		"/>
		<polygon class="st5" points="403.2,46.7 399,42.3 399,34.1 403.2,38.5 		"/>
		<polygon class="st5" points="390,44.9 385.8,40.5 385.8,32.2 390,36.7 		"/>
		<polygon class="st5" points="396.6,51.9 392.4,47.4 392.4,39.2 396.6,43.7 		"/>
		<polygon class="st5" points="403.2,58.8 399,54.4 399,46.1 403.2,50.6 		"/>
		<polygon class="st5" points="390,57 385.8,52.5 385.8,44.3 390,48.8 		"/>
		<polygon class="st5" points="396.6,63.9 392.4,59.5 392.4,51.3 396.6,55.7 		"/>
		<polygon class="st5" points="403.2,70.9 399,66.4 399,58.2 403.2,62.7 		"/>
		<polygon class="st5" points="390,69.1 385.8,64.6 385.8,56.4 390,60.9 		"/>
		<polygon class="st5" points="396.6,76 392.4,71.6 392.4,63.4 396.6,67.8 		"/>
		<polygon class="st5" points="403.2,83 399,78.5 399,70.3 403.2,74.8 		"/>
	</g>
	<g>
		<polygon class="st5" points="440.8,36.8 437,33.2 437,25.1 440.8,28.8 		"/>
		<polygon class="st5" points="446.8,42.4 443,38.8 443,30.8 446.8,34.4 		"/>
		<polygon class="st5" points="452.8,48 449,44.4 449,36.4 452.8,40 		"/>
		<polygon class="st5" points="440.8,48.6 437,45 437,37 440.8,40.6 		"/>
		<polygon class="st5" points="446.8,54.2 443,50.6 443,42.6 446.8,46.2 		"/>
		<polygon class="st5" points="452.8,59.8 449,56.2 449,48.2 452.8,51.8 		"/>
		<polygon class="st5" points="440.8,60.4 437,56.8 437,48.8 440.8,52.4 		"/>
		<polygon class="st5" points="446.8,66 443,62.4 443,54.4 446.8,58 		"/>
		<polygon class="st5" points="452.8,71.7 449,68 449,60 452.8,63.6 		"/>
		<polygon class="st5" points="440.8,72.2 437,68.6 437,60.6 440.8,64.2 		"/>
		<polygon class="st5" points="446.8,77.8 443,74.2 443,66.2 446.8,69.8 		"/>
		<polygon class="st5" points="452.8,83.5 449,79.9 449,71.8 452.8,75.5 		"/>
	</g>
	<g>
		<polygon class="st5" points="491.8,32.9 487.8,28.7 487.8,20.7 491.8,24.9 		"/>
		<polygon class="st5" points="498,39.5 494,35.3 494,27.3 498,31.5 		"/>
		<polygon class="st5" points="504.2,46.1 500.2,41.9 500.2,33.9 504.2,38.1 		"/>
		<polygon class="st5" points="491.8,44.7 487.8,40.5 487.8,32.5 491.8,36.7 		"/>
		<polygon class="st5" points="498,51.3 494,47.1 494,39.1 498,43.3 		"/>
		<polygon class="st5" points="504.2,58 500.2,53.7 500.2,45.7 504.2,49.9 		"/>
		<polygon class="st5" points="491.8,56.5 487.8,52.3 487.8,44.3 491.8,48.5 		"/>
		<polygon class="st5" points="498,63.2 494,58.9 494,50.9 498,55.1 		"/>
		<polygon class="st5" points="504.2,69.8 500.2,65.5 500.2,57.5 504.2,61.7 		"/>
		<polygon class="st5" points="491.8,68.4 487.8,64.1 487.8,56.1 491.8,60.3 		"/>
		<polygon class="st5" points="498,75 494,70.7 494,62.7 498,67 		"/>
		<polygon class="st5" points="504.2,81.6 500.2,77.3 500.2,69.3 504.2,73.6 		"/>
	</g>
	<g>
		<polygon class="st5" points="543,39.8 539.3,37.3 539.3,29.3 543,31.8 		"/>
		<polygon class="st5" points="548.8,43.6 545.1,41.2 545.1,33.1 548.8,35.6 		"/>
		<polygon class="st5" points="554.6,47.5 550.9,45 550.9,37 554.6,39.4 		"/>
		<polygon class="st5" points="543,51.6 539.3,49.1 539.3,41.1 543,43.6 		"/>
		<polygon class="st5" points="548.8,55.4 545.1,53 545.1,44.9 548.8,47.4 		"/>
		<polygon class="st5" points="554.6,59.3 550.9,56.8 550.9,48.8 554.6,51.2 		"/>
		<polygon class="st5" points="543,63.4 539.3,61 539.3,52.9 543,55.4 		"/>
		<polygon class="st5" points="548.8,67.2 545.1,64.8 545.1,56.8 548.8,59.2 		"/>
		<polygon class="st5" points="554.6,71.1 550.9,68.6 550.9,60.6 554.6,63.1 		"/>
		<polygon class="st5" points="543,75.2 539.3,72.8 539.3,64.7 543,67.2 		"/>
		<polygon class="st5" points="548.8,79.1 545.1,76.6 545.1,68.6 548.8,71 		"/>
		<polygon class="st5" points="554.6,82.9 550.9,80.4 550.9,72.4 554.6,74.9 		"/>
	</g>
	<g>
		<polygon class="st5" points="592.1,35 587.7,30.7 587.7,22.3 592.1,26.6 		"/>
		<polygon class="st5" points="598.9,41.8 594.5,37.5 594.5,29 598.9,33.4 		"/>
		<polygon class="st5" points="605.6,48.6 601.3,44.2 601.3,35.8 605.6,40.1 		"/>
		<polygon class="st5" points="592.1,47.4 587.7,43.1 587.7,34.7 592.1,39 		"/>
		<polygon class="st5" points="598.9,54.2 594.5,49.9 594.5,41.4 598.9,45.8 		"/>
		<polygon class="st5" points="605.6,61 601.3,56.6 601.3,48.2 605.6,52.5 		"/>
		<polygon class="st5" points="592.1,59.9 587.7,55.5 587.7,47.1 592.1,51.4 		"/>
		<polygon class="st5" points="598.9,66.6 594.5,62.3 594.5,53.9 598.9,58.2 		"/>
		<polygon class="st5" points="605.6,73.4 601.3,69 601.3,60.6 605.6,64.9 		"/>
		<polygon class="st5" points="592.1,72.3 587.7,67.9 587.7,59.5 592.1,63.8 		"/>
		<polygon class="st5" points="598.9,79 594.5,74.7 594.5,66.3 598.9,70.6 		"/>
		<polygon class="st5" points="605.6,85.8 601.3,81.4 601.3,73 605.6,77.4 		"/>
	</g>
	<g>
		<polygon class="st3" points="516.5,45.5 512,48.4 512,40.4 516.5,37.6 		"/>
		<polygon class="st3" points="523.7,41.1 519.1,43.9 519.1,36 523.7,33.1 		"/>
		<polygon class="st3" points="530.8,36.6 526.2,39.5 526.2,31.5 530.8,28.7 		"/>
		<polygon class="st3" points="516.5,57.2 512,60.1 512,52.1 516.5,49.3 		"/>
		<polygon class="st3" points="523.7,52.8 519.1,55.6 519.1,47.7 523.7,44.8 		"/>
		<polygon class="st3" points="530.8,48.3 526.2,51.2 526.2,43.2 530.8,40.4 		"/>
		<polygon class="st3" points="516.5,68.9 512,71.8 512,63.8 516.5,61 		"/>
		<polygon class="st3" points="523.7,64.5 519.1,67.3 519.1,59.4 523.7,56.5 		"/>
		<polygon class="st3" points="530.8,60 526.2,62.9 526.2,54.9 530.8,52.1 		"/>
		<polygon class="st3" points="516.5,80.6 512,83.5 512,75.5 516.5,72.7 		"/>
		<polygon class="st3" points="523.7,76.2 519.1,79 519.1,71.1 523.7,68.2 		"/>
		<polygon class="st3" points="530.8,71.7 526.2,74.6 526.2,66.6 530.8,63.8 		"/>
	</g>
	<g>
		<polygon class="st3" points="465.3,43 460.9,47.5 460.9,40.6 465.3,36.2 		"/>
		<polygon class="st3" points="472.2,36.1 467.8,40.6 467.8,33.7 472.2,29.3 		"/>
		<polygon class="st3" points="479.2,29.2 474.7,33.6 474.7,26.8 479.2,22.3 		"/>
		<polygon class="st3" points="465.3,53.1 460.9,57.6 460.9,50.7 465.3,46.3 		"/>
		<polygon class="st3" points="472.2,46.2 467.8,50.7 467.8,43.8 472.2,39.4 		"/>
		<polygon class="st3" points="479.2,39.3 474.7,43.7 474.7,36.9 479.2,32.4 		"/>
		<polygon class="st3" points="465.3,63.3 460.9,67.7 460.9,60.8 465.3,56.4 		"/>
		<polygon class="st3" points="472.2,56.3 467.8,60.8 467.8,53.9 472.2,49.5 		"/>
		<polygon class="st3" points="479.2,49.4 474.7,53.8 474.7,47 479.2,42.5 		"/>
		<polygon class="st3" points="465.3,73.4 460.9,77.8 460.9,70.9 465.3,66.5 		"/>
		<polygon class="st3" points="472.2,66.4 467.8,70.9 467.8,64 472.2,59.6 		"/>
		<polygon class="st3" points="479.2,59.5 474.7,63.9 474.7,57.1 479.2,52.6 		"/>
	</g>
	<g>
		<polygon class="st3" points="363.2,44.2 358.8,49.1 358.8,40.7 363.2,35.8 		"/>
		<polygon class="st3" points="370.1,36.5 365.7,41.4 365.7,33.1 370.1,28.2 		"/>
		<polygon class="st3" points="377,28.9 372.6,33.8 372.6,25.5 377,20.6 		"/>
		<polygon class="st3" points="363.2,56.5 358.8,61.4 358.8,53 363.2,48.1 		"/>
		<polygon class="st3" points="370.1,48.8 365.7,53.7 365.7,45.4 370.1,40.5 		"/>
		<polygon class="st3" points="377,41.2 372.6,46.1 372.6,37.8 377,32.9 		"/>
		<polygon class="st3" points="363.2,68.8 358.8,73.7 358.8,65.3 363.2,60.4 		"/>
		<polygon class="st3" points="370.1,61.2 365.7,66 365.7,57.7 370.1,52.8 		"/>
		<polygon class="st3" points="377,53.5 372.6,58.4 372.6,50.1 377,45.2 		"/>
		<polygon class="st3" points="363.2,81.1 358.8,86 358.8,77.6 363.2,72.7 		"/>
		<polygon class="st3" points="370.1,73.5 365.7,78.3 365.7,70 370.1,65.1 		"/>
		<polygon class="st3" points="377,65.8 372.6,70.7 372.6,62.4 377,57.5 		"/>
	</g>
	<g>
		<polygon class="st3" points="566.7,43.9 562.5,47.6 562.5,39.7 566.7,36 		"/>
		<polygon class="st3" points="573.3,38.2 569.1,41.9 569.1,33.9 573.3,30.3 		"/>
		<polygon class="st3" points="579.9,32.5 575.6,36.2 575.6,28.2 579.9,24.5 		"/>
		<polygon class="st3" points="566.7,55.6 562.5,59.3 562.5,51.4 566.7,47.7 		"/>
		<polygon class="st3" points="573.3,49.9 569.1,53.6 569.1,45.6 573.3,42 		"/>
		<polygon class="st3" points="579.9,44.2 575.6,47.9 575.6,39.9 579.9,36.2 		"/>
		<polygon class="st3" points="566.7,67.3 562.5,71 562.5,63.1 566.7,59.4 		"/>
		<polygon class="st3" points="573.3,61.6 569.1,65.3 569.1,57.3 573.3,53.7 		"/>
		<polygon class="st3" points="579.9,55.9 575.6,59.6 575.6,51.6 579.9,47.9 		"/>
		<polygon class="st3" points="566.7,79 562.5,82.7 562.5,74.8 566.7,71.1 		"/>
		<polygon class="st3" points="573.3,73.3 569.1,77 569.1,69 573.3,65.4 		"/>
		<polygon class="st3" points="579.9,67.6 575.6,71.3 575.6,63.3 579.9,59.6 		"/>
	</g>
	<g>
		<polygon class="st3" points="311.8,44.3 307.5,46.7 307.5,38.8 311.8,36.3 		"/>
		<polygon class="st3" points="318.3,40.5 314.1,42.9 314.1,35 318.3,32.5 		"/>
		<polygon class="st3" points="324.9,36.7 320.7,39.1 320.7,31.2 324.9,28.7 		"/>
		<polygon class="st3" points="311.8,56 307.5,58.4 307.5,50.5 311.8,48 		"/>
		<polygon class="st3" points="318.3,52.2 314.1,54.6 314.1,46.7 318.3,44.2 		"/>
		<polygon class="st3" points="324.9,48.4 320.7,50.8 320.7,42.9 324.9,40.4 		"/>
		<polygon class="st3" points="311.8,67.7 307.5,70.1 307.5,62.2 311.8,59.7 		"/>
		<polygon class="st3" points="318.3,63.9 314.1,66.3 314.1,58.4 318.3,55.9 		"/>
		<polygon class="st3" points="324.9,60.1 320.7,62.5 320.7,54.6 324.9,52.1 		"/>
		<polygon class="st3" points="311.8,79.4 307.5,81.8 307.5,73.9 311.8,71.4 		"/>
		<polygon class="st3" points="318.3,75.6 314.1,78 314.1,70.1 318.3,67.6 		"/>
		<polygon class="st3" points="324.9,71.8 320.7,74.2 320.7,66.3 324.9,63.8 		"/>
	</g>
	<g>
		<polygon class="st3" points="415.2,43.8 411,47.3 411,39.3 415.2,35.9 		"/>
		<polygon class="st3" points="421.8,38.5 417.6,41.9 417.6,34 421.8,30.6 		"/>
		<polygon class="st3" points="428.4,33.2 424.2,36.6 424.2,28.6 428.4,25.2 		"/>
		<polygon class="st3" points="415.2,55.5 411,59 411,51 415.2,47.6 		"/>
		<polygon class="st3" points="421.8,50.2 417.6,53.6 417.6,45.7 421.8,42.3 		"/>
		<polygon class="st3" points="428.4,44.9 424.2,48.3 424.2,40.3 428.4,36.9 		"/>
		<polygon class="st3" points="415.2,67.2 411,70.7 411,62.7 415.2,59.3 		"/>
		<polygon class="st3" points="421.8,61.9 417.6,65.3 417.6,57.4 421.8,54 		"/>
		<polygon class="st3" points="428.4,56.6 424.2,60 424.2,52 428.4,48.6 		"/>
		<polygon class="st3" points="415.2,78.9 411,82.4 411,74.4 415.2,71 		"/>
		<polygon class="st3" points="421.8,73.6 417.6,77 417.6,69.1 421.8,65.7 		"/>
		<polygon class="st3" points="428.4,68.3 424.2,71.7 424.2,63.7 428.4,60.3 		"/>
	</g>
</g>
<g>
	<polygon class="st1" points="77.1,9 50.3,37.9 50.2,63.9 78.1,63.9 	"/>
	<polygon class="st1" points="179.3,12 152.4,37.9 152.2,63.9 180.7,63.9 	"/>
	<polygon class="st1" points="280.2,14.7 253.9,37.9 253.8,63.9 282.3,63.9 	"/>
	<polygon class="st2" points="-0.7,62.8 25.6,62.8 24.8,20.8 -0.7,35.7 	"/>
	<polygon class="st2" points="102.8,62.8 129.1,62.8 128.7,16.4 102.8,37.5 	"/>
	<polygon class="st2" points="203.8,62.8 231.1,62.8 230.7,20.7 203.8,37.5 	"/>
	<polygon class="st3" points="50.8,62.8 24.5,62.8 24.5,20.2 50.8,36.5 	"/>
	<polygon class="st3" points="254.4,62.8 230.4,62.8 230.4,20.2 254.4,36.5 	"/>
	<polygon class="st3" points="303.9,62.8 280,62.8 280,13.7 303.9,36.5 	"/>
	<polygon class="st3" points="103,62.8 76.7,62.8 76.7,8.6 103,36.5 	"/>
	<polygon class="st3" points="152.8,62.8 128.5,62.8 128.5,15.3 152.8,36.5 	"/>
	<polygon class="st3" points="204,62.8 179.1,62.8 179.1,10.8 204,36.5 	"/>
	<polyline class="st4" points="24.8,20.8 -0.7,35.7 -0.7,62.7 	"/>
	<line class="st4" x1="77.1" y1="9" x2="50.3" y2="37.9"/>
	<line class="st4" x1="102.2" y1="38" x2="128.9" y2="15.8"/>
	<line class="st4" x1="152.2" y1="38" x2="179.5" y2="11.2"/>
	<line class="st4" x1="203.1" y1="37.8" x2="230.7" y2="20.7"/>
	<line class="st4" x1="253.6" y1="38" x2="280.4" y2="14.2"/>
	<g>
		<polygon class="st5" points="33.2,38.5 29,35.9 29,28.7 33.2,31.3 		"/>
		<polygon class="st5" points="39.8,42.6 35.5,40 35.5,32.8 39.8,35.4 		"/>
		<polygon class="st5" points="46.3,46.7 42.1,44.1 42.1,36.9 46.3,39.5 		"/>
		<polygon class="st5" points="33.2,49.1 29,46.5 29,39.3 33.2,41.9 		"/>
		<polygon class="st5" points="39.8,53.2 35.5,50.6 35.5,43.4 39.8,46 		"/>
		<polygon class="st5" points="46.3,57.3 42.1,54.7 42.1,47.5 46.3,50.1 		"/>
		<polygon class="st5" points="33.2,59.7 29,57.1 29,49.9 33.2,52.5 		"/>
		<polygon class="st5" points="39.8,63.9 35.5,61.2 35.5,54 39.8,56.6 		"/>
		<polygon class="st5" points="46.3,68 42.1,65.3 42.1,58.1 46.3,60.8 		"/>
		<polygon class="st5" points="33.2,70.4 29,67.7 29,60.5 33.2,63.2 		"/>
		<polygon class="st5" points="39.8,74.5 35.5,71.8 35.5,64.6 39.8,67.3 		"/>
		<polygon class="st5" points="46.3,78.6 42.1,76 42.1,68.7 46.3,71.4 		"/>
	</g>
	<g>
		<polygon class="st5" points="85.9,32.8 81.6,28.4 81.6,20.2 85.9,24.6 		"/>
		<polygon class="st5" points="92.4,39.8 88.2,35.3 88.2,27.1 92.4,31.6 		"/>
		<polygon class="st5" points="99,46.7 94.8,42.3 94.8,34.1 99,38.5 		"/>
		<polygon class="st5" points="85.9,44.9 81.6,40.5 81.6,32.2 85.9,36.7 		"/>
		<polygon class="st5" points="92.4,51.9 88.2,47.4 88.2,39.2 92.4,43.7 		"/>
		<polygon class="st5" points="99,58.8 94.8,54.4 94.8,46.1 99,50.6 		"/>
		<polygon class="st5" points="85.9,57 81.6,52.5 81.6,44.3 85.9,48.8 		"/>
		<polygon class="st5" points="92.4,63.9 88.2,59.5 88.2,51.3 92.4,55.7 		"/>
		<polygon class="st5" points="99,70.9 94.8,66.4 94.8,58.2 99,62.7 		"/>
		<polygon class="st5" points="85.9,69.1 81.6,64.6 81.6,56.4 85.9,60.9 		"/>
		<polygon class="st5" points="92.4,76 88.2,71.6 88.2,63.4 92.4,67.8 		"/>
		<polygon class="st5" points="99,83 94.8,78.5 94.8,70.3 99,74.8 		"/>
	</g>
	<g>
		<polygon class="st5" points="136.7,36.8 132.8,33.2 132.8,25.1 136.7,28.8 		"/>
		<polygon class="st5" points="142.7,42.4 138.8,38.8 138.8,30.8 142.7,34.4 		"/>
		<polygon class="st5" points="148.7,48 144.8,44.4 144.8,36.4 148.7,40 		"/>
		<polygon class="st5" points="136.7,48.6 132.8,45 132.8,37 136.7,40.6 		"/>
		<polygon class="st5" points="142.7,54.2 138.8,50.6 138.8,42.6 142.7,46.2 		"/>
		<polygon class="st5" points="148.7,59.8 144.8,56.2 144.8,48.2 148.7,51.8 		"/>
		<polygon class="st5" points="136.7,60.4 132.8,56.8 132.8,48.8 136.7,52.4 		"/>
		<polygon class="st5" points="142.7,66 138.8,62.4 138.8,54.4 142.7,58 		"/>
		<polygon class="st5" points="148.7,71.7 144.8,68 144.8,60 148.7,63.6 		"/>
		<polygon class="st5" points="136.7,72.2 132.8,68.6 132.8,60.6 136.7,64.2 		"/>
		<polygon class="st5" points="142.7,77.8 138.8,74.2 138.8,66.2 142.7,69.8 		"/>
		<polygon class="st5" points="148.7,83.5 144.8,79.9 144.8,71.8 148.7,75.5 		"/>
	</g>
	<g>
		<polygon class="st5" points="187.6,32.9 183.6,28.7 183.6,20.7 187.6,24.9 		"/>
		<polygon class="st5" points="193.8,39.5 189.8,35.3 189.8,27.3 193.8,31.5 		"/>
		<polygon class="st5" points="200.1,46.1 196.1,41.9 196.1,33.9 200.1,38.1 		"/>
		<polygon class="st5" points="187.6,44.7 183.6,40.5 183.6,32.5 187.6,36.7 		"/>
		<polygon class="st5" points="193.8,51.3 189.8,47.1 189.8,39.1 193.8,43.3 		"/>
		<polygon class="st5" points="200.1,58 196.1,53.7 196.1,45.7 200.1,49.9 		"/>
		<polygon class="st5" points="187.6,56.5 183.6,52.3 183.6,44.3 187.6,48.5 		"/>
		<polygon class="st5" points="193.8,63.2 189.8,58.9 189.8,50.9 193.8,55.1 		"/>
		<polygon class="st5" points="200.1,69.8 196.1,65.5 196.1,57.5 200.1,61.7 		"/>
		<polygon class="st5" points="187.6,68.4 183.6,64.1 183.6,56.1 187.6,60.3 		"/>
		<polygon class="st5" points="193.8,75 189.8,70.7 189.8,62.7 193.8,67 		"/>
		<polygon class="st5" points="200.1,81.6 196.1,77.3 196.1,69.3 200.1,73.6 		"/>
	</g>
	<g>
		<polygon class="st5" points="238.8,39.8 235.1,37.3 235.1,29.3 238.8,31.8 		"/>
		<polygon class="st5" points="244.6,43.6 240.9,41.2 240.9,33.1 244.6,35.6 		"/>
		<polygon class="st5" points="250.4,47.5 246.7,45 246.7,37 250.4,39.4 		"/>
		<polygon class="st5" points="238.8,51.6 235.1,49.1 235.1,41.1 238.8,43.6 		"/>
		<polygon class="st5" points="244.6,55.4 240.9,53 240.9,44.9 244.6,47.4 		"/>
		<polygon class="st5" points="250.4,59.3 246.7,56.8 246.7,48.8 250.4,51.2 		"/>
		<polygon class="st5" points="238.8,63.4 235.1,61 235.1,52.9 238.8,55.4 		"/>
		<polygon class="st5" points="244.6,67.2 240.9,64.8 240.9,56.8 244.6,59.2 		"/>
		<polygon class="st5" points="250.4,71.1 246.7,68.6 246.7,60.6 250.4,63.1 		"/>
		<polygon class="st5" points="238.8,75.2 235.1,72.8 235.1,64.7 238.8,67.2 		"/>
		<polygon class="st5" points="244.6,79.1 240.9,76.6 240.9,68.6 244.6,71 		"/>
		<polygon class="st5" points="250.4,82.9 246.7,80.4 246.7,72.4 250.4,74.9 		"/>
	</g>
	<g>
		<polygon class="st5" points="287.9,35 283.6,30.7 283.6,22.3 287.9,26.6 		"/>
		<polygon class="st5" points="294.7,41.8 290.3,37.5 290.3,29 294.7,33.4 		"/>
		<polygon class="st5" points="301.5,48.6 297.1,44.2 297.1,35.8 301.5,40.1 		"/>
		<polygon class="st5" points="287.9,47.4 283.6,43.1 283.6,34.7 287.9,39 		"/>
		<polygon class="st5" points="294.7,54.2 290.3,49.9 290.3,41.4 294.7,45.8 		"/>
		<polygon class="st5" points="301.5,61 297.1,56.6 297.1,48.2 301.5,52.5 		"/>
		<polygon class="st5" points="287.9,59.9 283.6,55.5 283.6,47.1 287.9,51.4 		"/>
		<polygon class="st5" points="294.7,66.6 290.3,62.3 290.3,53.9 294.7,58.2 		"/>
		<polygon class="st5" points="301.5,73.4 297.1,69 297.1,60.6 301.5,64.9 		"/>
		<polygon class="st5" points="287.9,72.3 283.6,67.9 283.6,59.5 287.9,63.8 		"/>
		<polygon class="st5" points="294.7,79 290.3,74.7 290.3,66.3 294.7,70.6 		"/>
		<polygon class="st5" points="301.5,85.8 297.1,81.4 297.1,73 301.5,77.4 		"/>
	</g>
	<g>
		<polygon class="st3" points="212.4,45.5 207.8,48.4 207.8,40.4 212.4,37.6 		"/>
		<polygon class="st3" points="219.5,41.1 214.9,43.9 214.9,36 219.5,33.1 		"/>
		<polygon class="st3" points="226.6,36.6 222,39.5 222,31.5 226.6,28.7 		"/>
		<polygon class="st3" points="212.4,57.2 207.8,60.1 207.8,52.1 212.4,49.3 		"/>
		<polygon class="st3" points="219.5,52.8 214.9,55.6 214.9,47.7 219.5,44.8 		"/>
		<polygon class="st3" points="226.6,48.3 222,51.2 222,43.2 226.6,40.4 		"/>
		<polygon class="st3" points="212.4,68.9 207.8,71.8 207.8,63.8 212.4,61 		"/>
		<polygon class="st3" points="219.5,64.5 214.9,67.3 214.9,59.4 219.5,56.5 		"/>
		<polygon class="st3" points="226.6,60 222,62.9 222,54.9 226.6,52.1 		"/>
		<polygon class="st3" points="212.4,80.6 207.8,83.5 207.8,75.5 212.4,72.7 		"/>
		<polygon class="st3" points="219.5,76.2 214.9,79 214.9,71.1 219.5,68.2 		"/>
		<polygon class="st3" points="226.6,71.7 222,74.6 222,66.6 226.6,63.8 		"/>
	</g>
	<g>
		<polygon class="st3" points="161.2,43 156.7,47.5 156.7,40.6 161.2,36.2 		"/>
		<polygon class="st3" points="168.1,36.1 163.6,40.6 163.6,33.7 168.1,29.3 		"/>
		<polygon class="st3" points="175,29.2 170.6,33.6 170.6,26.8 175,22.3 		"/>
		<polygon class="st3" points="161.2,53.1 156.7,57.6 156.7,50.7 161.2,46.3 		"/>
		<polygon class="st3" points="168.1,46.2 163.6,50.7 163.6,43.8 168.1,39.4 		"/>
		<polygon class="st3" points="175,39.3 170.6,43.7 170.6,36.9 175,32.4 		"/>
		<polygon class="st3" points="161.2,63.3 156.7,67.7 156.7,60.8 161.2,56.4 		"/>
		<polygon class="st3" points="168.1,56.3 163.6,60.8 163.6,53.9 168.1,49.5 		"/>
		<polygon class="st3" points="175,49.4 170.6,53.8 170.6,47 175,42.5 		"/>
		<polygon class="st3" points="161.2,73.4 156.7,77.8 156.7,70.9 161.2,66.5 		"/>
		<polygon class="st3" points="168.1,66.4 163.6,70.9 163.6,64 168.1,59.6 		"/>
		<polygon class="st3" points="175,59.5 170.6,63.9 170.6,57.1 175,52.6 		"/>
	</g>
	<g>
		<polygon class="st3" points="59.1,44.2 54.7,49.1 54.7,40.7 59.1,35.8 		"/>
		<polygon class="st3" points="65.9,36.5 61.5,41.4 61.5,33.1 65.9,28.2 		"/>
		<polygon class="st3" points="72.8,28.9 68.4,33.8 68.4,25.5 72.8,20.6 		"/>
		<polygon class="st3" points="59.1,56.5 54.7,61.4 54.7,53 59.1,48.1 		"/>
		<polygon class="st3" points="65.9,48.8 61.5,53.7 61.5,45.4 65.9,40.5 		"/>
		<polygon class="st3" points="72.8,41.2 68.4,46.1 68.4,37.8 72.8,32.9 		"/>
		<polygon class="st3" points="59.1,68.8 54.7,73.7 54.7,65.3 59.1,60.4 		"/>
		<polygon class="st3" points="65.9,61.2 61.5,66 61.5,57.7 65.9,52.8 		"/>
		<polygon class="st3" points="72.8,53.5 68.4,58.4 68.4,50.1 72.8,45.2 		"/>
		<polygon class="st3" points="59.1,81.1 54.7,86 54.7,77.6 59.1,72.7 		"/>
		<polygon class="st3" points="65.9,73.5 61.5,78.3 61.5,70 65.9,65.1 		"/>
		<polygon class="st3" points="72.8,65.8 68.4,70.7 68.4,62.4 72.8,57.5 		"/>
	</g>
	<g>
		<polygon class="st3" points="262.5,43.9 258.3,47.6 258.3,39.7 262.5,36 		"/>
		<polygon class="st3" points="269.1,38.2 264.9,41.9 264.9,33.9 269.1,30.3 		"/>
		<polygon class="st3" points="275.7,32.5 271.5,36.2 271.5,28.2 275.7,24.5 		"/>
		<polygon class="st3" points="262.5,55.6 258.3,59.3 258.3,51.4 262.5,47.7 		"/>
		<polygon class="st3" points="269.1,49.9 264.9,53.6 264.9,45.6 269.1,42 		"/>
		<polygon class="st3" points="275.7,44.2 271.5,47.9 271.5,39.9 275.7,36.2 		"/>
		<polygon class="st3" points="262.5,67.3 258.3,71 258.3,63.1 262.5,59.4 		"/>
		<polygon class="st3" points="269.1,61.6 264.9,65.3 264.9,57.3 269.1,53.7 		"/>
		<polygon class="st3" points="275.7,55.9 271.5,59.6 271.5,51.6 275.7,47.9 		"/>
		<polygon class="st3" points="262.5,79 258.3,82.7 258.3,74.8 262.5,71.1 		"/>
		<polygon class="st3" points="269.1,73.3 264.9,77 264.9,69 269.1,65.4 		"/>
		<polygon class="st3" points="275.7,67.6 271.5,71.3 271.5,63.3 275.7,59.6 		"/>
	</g>
	<g>
		<polygon class="st3" points="7.6,44.3 3.4,46.7 3.4,38.8 7.6,36.3 		"/>
		<polygon class="st3" points="14.2,40.5 10,42.9 10,35 14.2,32.5 		"/>
		<polygon class="st3" points="20.8,36.7 16.5,39.1 16.5,31.2 20.8,28.7 		"/>
		<polygon class="st3" points="7.6,56 3.4,58.4 3.4,50.5 7.6,48 		"/>
		<polygon class="st3" points="14.2,52.2 10,54.6 10,46.7 14.2,44.2 		"/>
		<polygon class="st3" points="20.8,48.4 16.5,50.8 16.5,42.9 20.8,40.4 		"/>
		<polygon class="st3" points="7.6,67.7 3.4,70.1 3.4,62.2 7.6,59.7 		"/>
		<polygon class="st3" points="14.2,63.9 10,66.3 10,58.4 14.2,55.9 		"/>
		<polygon class="st3" points="20.8,60.1 16.5,62.5 16.5,54.6 20.8,52.1 		"/>
		<polygon class="st3" points="7.6,79.4 3.4,81.8 3.4,73.9 7.6,71.4 		"/>
		<polygon class="st3" points="14.2,75.6 10,78 10,70.1 14.2,67.6 		"/>
		<polygon class="st3" points="20.8,71.8 16.5,74.2 16.5,66.3 20.8,63.8 		"/>
	</g>
	<g>
		<polygon class="st3" points="111,43.8 106.8,47.3 106.8,39.3 111,35.9 		"/>
		<polygon class="st3" points="117.6,38.5 113.4,41.9 113.4,34 117.6,30.6 		"/>
		<polygon class="st3" points="124.2,33.2 120,36.6 120,28.6 124.2,25.2 		"/>
		<polygon class="st3" points="111,55.5 106.8,59 106.8,51 111,47.6 		"/>
		<polygon class="st3" points="117.6,50.2 113.4,53.6 113.4,45.7 117.6,42.3 		"/>
		<polygon class="st3" points="124.2,44.9 120,48.3 120,40.3 124.2,36.9 		"/>
		<polygon class="st3" points="111,67.2 106.8,70.7 106.8,62.7 111,59.3 		"/>
		<polygon class="st3" points="117.6,61.9 113.4,65.3 113.4,57.4 117.6,54 		"/>
		<polygon class="st3" points="124.2,56.6 120,60 120,52 124.2,48.6 		"/>
		<polygon class="st3" points="111,78.9 106.8,82.4 106.8,74.4 111,71 		"/>
		<polygon class="st3" points="117.6,73.6 113.4,77 113.4,69.1 117.6,65.7 		"/>
		<polygon class="st3" points="124.2,68.3 120,71.7 120,63.7 124.2,60.3 		"/>
	</g>
</g>
<g>
	<rect x="-34.4" y="62.4" class="st3" width="679.8" height="34.1"/>
	<g>
		<path class="st5" d="M636.1,80.6h-21.3v-2.4h21.3V80.6z M593.5,80.6h-21.3v-2.4h21.3V80.6z M550.9,80.6h-21.3v-2.4h21.3V80.6z
			 M508.3,80.6h-21.3v-2.4h21.3V80.6z M465.8,80.6h-21.3v-2.4h21.3V80.6z M423.2,80.6h-21.3v-2.4h21.3V80.6z M380.6,80.6h-21.3v-2.4
			h21.3V80.6z M338,80.6h-21.3v-2.4H338V80.6z M295.4,80.6h-21.3v-2.4h21.3V80.6z M252.8,80.6h-21.3v-2.4h21.3V80.6z M210.2,80.6
			h-21.3v-2.4h21.3V80.6z M167.7,80.6h-21.3v-2.4h21.3V80.6z M125.1,80.6h-21.3v-2.4h21.3V80.6z M82.5,80.6H61.2v-2.4h21.3V80.6z
			 M39.9,80.6H18.6v-2.4h21.3V80.6z M-2.7,80.6H-24v-2.4h21.3V80.6z"/>
	</g>
</g>
</svg>
