<?xml version="1.0" encoding="utf-8"?>
<!-- Generator: Adobe Illustrator 25.4.1, SVG Export Plug-In . SVG Version: 6.00 Build 0)  -->
<svg version="1.1" id="Ebene_1" xmlns="http://www.w3.org/2000/svg" xmlns:xlink="http://www.w3.org/1999/xlink" x="0px" y="0px"
	 viewBox="0 0 280 316.2" style="enable-background:new 0 0 280 316.2;" xml:space="preserve">
<style type="text/css">
	.st0{fill:#CF122E;}
	.st1{fill:#FFFFFF;}
	.st2{fill:#3D6833;stroke:#3D6833;stroke-width:2.000000e-02;stroke-miterlimit:10;}
	.st3{fill:#FFD245;}
	.st4{display:none;}
</style>
<g id="Ebene_6">
</g>
<g id="Straße">
</g>
<g id="Ebene_7">
</g>
<g id="Ebene_8">
</g>
<g id="Ebene_9">
</g>
<g id="Ebene_1_00000150797225169900902830000009570334946742707109_">
	<g>
		<path class="st0" d="M193.2,24.3L193.2,24.3c-2.5-0.1-4.9,0-8.6-1.1c-2.6-0.8-4.6-1.4-6.7-3.1c-0.3-0.2-0.5-0.4-0.7-0.6
			c-0.2-0.3-0.5-0.6-0.8-0.9l0,0c-6-6.2-19.7-10.5-35.6-10.5s-29.6,4.3-35.6,10.5c-0.4,0.3-0.9,0.8-1.7,1.5
			c-2.1,1.7-4.2,2.3-6.7,3.1c-2.1,0.6-3.6,0.9-5,1H91c-0.5,0-1.1,0-1.6,0c-0.3,0-0.5,0-0.8,0v0.1c-28.5,1.3-51.4,25-51.4,53.7v5.6
			c0,9.2,7.5,16.8,16.8,16.8h173.7c9.2,0,16.8-7.6,16.8-16.8v-4.5C244.4,50.1,221.7,26.2,193.2,24.3z"/>
		<path class="st1" d="M240.4,91.1v-1h1.1c0.1-0.5,0.2-1.1,0.2-1.6c0-5.6-7.4-10.2-16.8-10.7c-0.8-0.2-1.5-0.3-2.4-0.3H57.9
			c-1,0-2,0.2-2.9,0.5c-8.5,1-14.8,5.3-14.8,10.5c0,5.9,8.4,10.8,18.7,10.8c1.3,0,2.6-0.1,3.8-0.2h156.6c1.2,0.1,2.5,0.2,3.8,0.2
			c8.7,0,16-3.5,18.1-8.1h-0.8V91.1z"/>
		<g>
			<path class="st2" d="M113.3,86.2v-0.4l-57.8-7.9v-0.2c-0.2,0.1-0.4,0.1-0.6,0.2c-2.5,0.3-4.8,0.9-6.9,1.7L113.3,86.2z"/>
			<path class="st2" d="M113.3,85.2v-0.7l-38.5-7.1H57.9c-0.4,0-0.8,0-1.1,0.1L113.3,85.2z"/>
			<path class="st2" d="M42.7,93.9c0.6,0.6,1.4,1.2,2.2,1.7l68.3-4.8v-0.1L42.7,93.9z"/>
			<path class="st2" d="M113.3,91.6v-0.2l-67.5,4.8c1.3,0.7,2.7,1.3,4.2,1.8L113.3,91.6z"/>
			<polygon class="st2" points="113.3,78.7 113.3,77.4 109.7,77.4 			"/>
			<path class="st2" d="M113.3,88.9l-73-1.6c-0.1,0.4-0.1,0.8-0.1,1.2c0,0.2,0,0.3,0,0.4H113.3L113.3,88.9z"/>
			<polygon class="st2" points="108,77.4 95.2,77.4 113.3,82 113.3,79.4 			"/>
			<polygon class="st2" points="113.3,83.9 113.3,82.6 92.8,77.4 78,77.4 			"/>
			<path class="st2" d="M113.3,92.5v-0.3l-61.7,6.2c2.2,0.5,4.6,0.8,7.2,0.8c1.3,0,2.6-0.1,3.8-0.2h3.7L113.3,92.5z"/>
			<polygon class="st2" points="113.3,95.7 113.3,94.4 88.8,99 100.6,99 			"/>
			<polygon class="st2" points="70.7,99 85.5,99 113.3,93.8 113.3,93.1 			"/>
			<polygon class="st2" points="103,99 113.3,99 113.3,96.3 			"/>
			<path class="st2" d="M47,80.1c-1.2,0.6-2.3,1.2-3.2,1.9l69.5,4.9v-0.2L47,80.1z"/>
			<path class="st2" d="M43.2,82.6c-0.6,0.6-1.2,1.2-1.6,1.8l71.8,3.3v-0.1L43.2,82.6z"/>
			<path class="st2" d="M113.3,89.5L113.3,89.5H40.2c0.1,0.6,0.3,1.1,0.5,1.6L113.3,89.5z"/>
			<path class="st2" d="M113.3,90.1L113.3,90.1L41,91.6c0.3,0.6,0.7,1.1,1.2,1.7L113.3,90.1z"/>
			<path class="st2" d="M40.4,86.7l72.9,1.6l0,0L41.1,85C40.8,85.5,40.6,86.1,40.4,86.7z"/>
		</g>
		<g>
			<path class="st2" d="M241.5,87.2l-72,1.6v0.1h72.1c0-0.2,0-0.3,0-0.4C241.6,88,241.6,87.6,241.5,87.2z"/>
			<path class="st2" d="M169.5,89.5L169.5,89.5l71.5,1.6c0.2-0.5,0.4-1.1,0.5-1.6H169.5z"/>
			<path class="st2" d="M169.5,85.9l63.9-6.4c-2.5-1-5.3-1.6-8.4-1.8v0.2l-55.5,7.6V85.9z"/>
			<path class="st2" d="M169.5,90.8V91l67.2,4.8c0.9-0.5,1.6-1.1,2.3-1.8L169.5,90.8z"/>
			<path class="st2" d="M237.9,81.9c-1-0.7-2.1-1.4-3.3-2l-65.1,6.5v0.3L237.9,81.9z"/>
			<path class="st2" d="M231.4,98c1.6-0.5,3.1-1.1,4.4-1.8l-66.3-4.7v0.3L231.4,98z"/>
			<path class="st2" d="M240.2,84.3c-0.5-0.7-1-1.3-1.7-1.8l-69,4.9v0.2L240.2,84.3z"/>
			<path class="st2" d="M169.5,90.1L169.5,90.1l70,3.3c0.5-0.5,0.9-1.1,1.2-1.7L169.5,90.1z"/>
			<polygon class="st2" points="180,99 191.8,99 169.5,94.9 169.5,96.3 			"/>
			<polygon class="st2" points="170.9,77.4 169.5,77.4 169.5,77.9 			"/>
			<polygon class="st2" points="169.5,93.5 169.5,94.3 195,99 209.9,99 			"/>
			<polygon class="st2" points="169.5,96.9 169.5,99 177.6,99 			"/>
			<path class="st2" d="M169.5,92.4v0.5l44.7,6.1h5c1.2,0.1,2.5,0.2,3.8,0.2c2.4,0,4.7-0.3,6.8-0.7L169.5,92.4z"/>
			<polygon class="st2" points="202.6,77.4 187.7,77.4 169.5,82 169.5,83.5 			"/>
			<path class="st2" d="M169.5,84.1v0.8l54.2-7.4c-0.4-0.1-0.8-0.1-1.2-0.1h-16.7L169.5,84.1z"/>
			<path class="st2" d="M241.4,86.6c-0.2-0.6-0.4-1.2-0.8-1.7l-71.1,3.2v0.1L241.4,86.6z"/>
			<polygon class="st2" points="169.5,78.5 169.5,81.4 185.4,77.4 172.6,77.4 			"/>
		</g>
		<polygon class="st3" points="197.1,301.7 83.6,301.7 113.2,77.4 169.3,77.4 		"/>
		<path class="st1" d="M197.7,301.7L169.9,77.4h-0.6c0,0.1,0,0.2,0.1,0.3l27.8,224H83.6l29.6-224.3l0,0l0,0h-0.6L83,301.6l-0.1,0.7
			h114.8L197.7,301.7z"/>
		<path class="st3" d="M94.7,148.9c2.2,0.1,2.9-0.1,4.1-0.6c0.4-0.1,1.7-0.7,3.2-2.1c2.3-2.3,2.2-4.2,2.8-4.2c1.2,0,4.1,6.8,1.5,8.7
			c-0.6,0.5-2.1,1-3.2,1.1c-2.3,0.2-4.3-0.9-5.3-1.4"/>
		<path class="st3" d="M186.7,148.8c-2.1,0.1-2.8-0.1-4-0.6c-0.3-0.1-1.7-0.7-3-2.1c-2.2-2.3-2.1-4.2-2.7-4.2
			c-1.2,0-3.1,6.9-0.6,8.8c0.6,0.5,0.9,1,1.9,1.1c2.2,0.2,4.4-0.9,5.3-1.4"/>
		<path class="st1" d="M186.9,148.5c-0.1,0-0.3,0-0.4,0h-0.1h-0.1c-0.1,0-0.2,0-0.3,0h-0.1c-0.4,0-0.9,0-1.3-0.1
			c-0.7-0.1-1.2-0.3-1.8-0.5c-0.5-0.2-1.7-0.8-2.9-2.1s-1.7-2.4-2-3.2c-0.3-0.6-0.1-1.1-0.6-1.1l-0.1,0.4c0.1,0.2,0,0.7,0.1,0.9
			c0.3,0.8,0.8,2,2.1,3.4s2.6,2,3.1,2.2c0.8,0.3,1.4,0.5,2.4,0.6c-0.6,0.3-1.1,0.5-1.7,0.8c-1.6,0.8-3,1.6-6,1.6s-4.5-0.8-6-1.6
			s-3.1-1.7-6.3-1.7s-4.8,0.9-6.3,1.7c-1.6,0.8-3,1.6-6,1.6s-4.5-0.8-6-1.6s-3.1-1.7-6.3-1.7s-4.8,0.9-6.3,1.7c-1.6,0.8-3,1.6-6,1.6
			s-4.5-0.8-6-1.6s-3.1-1.7-6.3-1.7c-3.2,0-4.8,0.9-6.3,1.7c-1.6,0.8-3,1.6-6,1.6s-4.5-0.8-6-1.6c-0.4-0.2-0.8-0.4-1.2-0.6
			c1.2-0.1,1.8-0.3,2.8-0.6c0.7-0.3,1.9-0.9,3.3-2.2c1.3-1.3,1.9-2.6,2.2-3.4c0.1-0.1,0.1-0.3,0.2-0.4c0.1-0.7,0-0.4,0.1-0.7
			c-0.4,0.1-0.6,0.3-0.8,0.9c-0.3,0.8-0.8,1.9-2.1,3.2c-1.2,1.2-2.4,1.8-3.1,2.1c-1.2,0.5-1.9,0.7-4,0.6l0,0l0,0c0,0.2,0,0.4,0,0.6
			c0.9,0.3,1.7,0.7,2.5,1.1c1.5,0.8,3.1,1.7,6.3,1.7c3.2,0,4.8-0.9,6.3-1.7c1.6-0.8,3-1.6,6-1.6s4.5,0.8,6,1.6s3.1,1.7,6.3,1.7
			s4.8-0.9,6.3-1.7c1.6-0.8,3-1.6,6-1.6s4.5,0.8,6,1.6s3.1,1.7,6.3,1.7s4.8-0.9,6.3-1.7c1.6-0.8,3-1.6,6-1.6s4.5,0.8,6,1.6
			s3.1,1.7,6.3,1.7s4.8-0.9,6.3-1.7c1-0.5,2-1.1,3.4-1.4C187,148.9,186.9,148.7,186.9,148.5z"/>
		<g>
			<circle class="st1" cx="113.8" cy="40.7" r="2.9"/>
			<circle class="st1" cx="122.5" cy="18.3" r="2.9"/>
			<circle class="st1" cx="172.5" cy="26.2" r="2.9"/>
			<circle class="st1" cx="217.1" cy="41.7" r="2.9"/>
			<circle class="st1" cx="108" cy="51.4" r="2.9"/>
			<circle class="st1" cx="165" cy="31.7" r="3.3"/>
			<circle class="st1" cx="135.1" cy="41.2" r="3.3"/>
			<circle class="st1" cx="181.7" cy="62.6" r="3.3"/>
			<circle class="st1" cx="50" cy="63.5" r="2.7"/>
			<circle class="st1" cx="161.9" cy="48.7" r="2.2"/>
			<circle class="st1" cx="146.8" cy="29.5" r="2.2"/>
			<circle class="st1" cx="148.3" cy="16.8" r="2.2"/>
			<circle class="st1" cx="133" cy="65.9" r="2.2"/>
			<circle class="st1" cx="155.2" cy="72.2" r="2.2"/>
			<circle class="st1" cx="200.6" cy="47.3" r="2.2"/>
			<circle class="st1" cx="73.6" cy="33.1" r="2.1"/>
			<circle class="st1" cx="40.7" cy="75.7" r="2.1"/>
			<circle class="st1" cx="61.5" cy="47.2" r="0.9"/>
			<circle class="st1" cx="57.5" cy="57.7" r="0.9"/>
			<circle class="st1" cx="77.7" cy="48.8" r="0.9"/>
			<circle class="st1" cx="91.6" cy="73" r="0.9"/>
			<circle class="st1" cx="125.4" cy="57.8" r="0.9"/>
			<circle class="st1" cx="159.3" cy="53.2" r="0.9"/>
			<circle class="st1" cx="177.8" cy="58" r="0.9"/>
			<circle class="st1" cx="179.5" cy="42" r="0.9"/>
			<circle class="st1" cx="192.4" cy="32.8" r="0.9"/>
			<circle class="st1" cx="195.5" cy="30.4" r="0.9"/>
			<circle class="st1" cx="212.1" cy="36.2" r="0.9"/>
			<circle class="st1" cx="64.2" cy="37" r="0.9"/>
			<circle class="st1" cx="101.5" cy="28.1" r="0.9"/>
			<circle class="st1" cx="232.1" cy="57.8" r="1.5"/>
			<circle class="st1" cx="222.6" cy="61.5" r="1.5"/>
			<circle class="st1" cx="202" cy="69.4" r="1.5"/>
			<circle class="st1" cx="198.9" cy="73.5" r="1.5"/>
			<circle class="st1" cx="174.7" cy="73.2" r="1.5"/>
			<circle class="st1" cx="129.7" cy="54.7" r="1.5"/>
			<circle class="st1" cx="76.2" cy="52.8" r="1.5"/>
			<circle class="st1" cx="94.7" cy="30" r="1.5"/>
			<circle class="st1" cx="115.8" cy="20.7" r="1.5"/>
			<circle class="st1" cx="166.4" cy="20.7" r="1.5"/>
			<circle class="st1" cx="71.4" cy="72.7" r="1.5"/>
			<circle class="st1" cx="238.5" cy="75" r="1.5"/>
			<circle class="st1" cx="86" cy="47.4" r="5"/>
			<circle class="st1" cx="53.4" cy="50.1" r="5"/>
			<circle class="st1" cx="134.6" cy="19.2" r="5"/>
			<circle class="st1" cx="203.9" cy="58.8" r="5"/>
			<circle class="st1" cx="110.4" cy="64.2" r="4.3"/>
			<circle class="st1" cx="151.4" cy="52.4" r="4.3"/>
			<circle class="st1" cx="64.2" cy="69.4" r="4.3"/>
		</g>
	</g>
</g>
<g id="Ebene_2_00000026131279052942371530000007329776495940197512_">
</g>
<g id="Stadt_x5F_vorne">
</g>
<g id="Ebene_10">
</g>
<g id="Stadt_x5F_hinten">
</g>
<g id="Ebene_4" class="st4">
</g>
</svg>
