<svg width="335" height="224" viewBox="0 0 335 224" fill="none" xmlns="http://www.w3.org/2000/svg">
<rect width="335" height="223.333" fill="#E8E8E8"/>
<path d="M135.117 109.456V118H137.037V113.504C137.037 111.744 137.933 110.944 139.133 110.944C140.237 110.944 140.685 111.68 140.685 112.832V118H142.605V112.384C142.605 110.112 140.909 109.28 139.677 109.28C138.173 109.28 137.405 110.08 137.005 110.832L137.037 109.456H135.117ZM148.161 109.248C145.793 109.248 144.065 110.912 144.065 113.728C144.065 116.432 145.697 118.208 148.161 118.208C150.705 118.208 152.241 116.624 152.241 113.712C152.241 110.928 150.609 109.248 148.161 109.248ZM148.177 110.768C149.697 110.768 150.337 112.08 150.337 113.728C150.337 115.456 149.841 116.672 148.129 116.672C146.529 116.672 145.969 115.328 145.969 113.6C145.969 111.92 146.641 110.768 148.177 110.768ZM157.471 109.456V118H159.391V109.456H157.471ZM157.407 105.872V108.016H159.455V105.872H157.407ZM168.532 110.88C168.004 109.76 166.98 109.28 166.052 109.28C164.548 109.28 163.828 110.112 163.428 110.832L163.46 109.456H161.54V118H163.46V113.504C163.46 111.744 164.308 110.944 165.508 110.944C166.612 110.944 167.012 111.68 167.012 112.832V118H168.932V113.504C168.932 111.744 169.78 110.944 170.98 110.944C172.084 110.944 172.484 111.68 172.484 112.832V118H174.404V112.384C174.404 110.112 172.756 109.28 171.524 109.28C170.1 109.28 169.188 109.776 168.532 110.88ZM181.319 112.624C177.687 112.88 175.799 113.552 175.799 115.728C175.799 117.504 177.175 118.144 178.647 118.144C180.167 118.144 180.887 117.648 181.399 116.88C181.607 117.648 182.103 118.144 183.079 118.144C183.399 118.144 183.831 118.112 184.023 118.08L184.295 116.512H184.263C184.135 116.544 183.991 116.56 183.863 116.56C183.511 116.56 183.239 116.4 183.239 115.92V112.224C183.239 110.144 181.783 109.28 179.927 109.28C178.119 109.28 176.775 109.84 176.007 111.312L177.431 112.24C177.879 111.28 178.663 110.944 179.719 110.944C180.679 110.944 181.319 111.232 181.319 112.256V112.624ZM181.319 114.064V114.576C181.319 115.776 180.199 116.56 178.919 116.56C178.103 116.56 177.671 116.24 177.671 115.616C177.671 114.464 179.127 114.224 181.319 114.064ZM191.303 110.48C190.791 109.792 189.799 109.312 188.647 109.312C186.711 109.312 185.335 110.496 185.335 112.368C185.335 113.296 185.703 114.032 186.343 114.512C185.399 114.784 184.823 115.312 184.823 116.096C184.823 116.992 185.255 117.504 186.199 117.68C185.335 117.936 184.711 118.336 184.711 119.136C184.711 120.512 186.135 121.056 188.743 121.056C191.639 121.056 192.983 120.272 192.983 118.512C192.983 117.584 192.647 116.992 192.023 116.64C191.431 116.304 190.503 116.272 189.015 116.272C186.903 116.272 186.407 116.192 186.407 115.696C186.407 115.328 186.903 115.152 187.367 115.152C187.831 115.152 187.879 115.216 188.551 115.216C190.551 115.216 191.879 114.24 191.879 112.368C191.879 112.144 191.831 111.936 191.831 111.712C191.831 111.344 192.199 110.992 192.551 110.992C192.743 110.992 192.903 111.088 192.999 111.216H193.031L193.399 109.584C193.303 109.472 193.063 109.36 192.807 109.36C192.199 109.36 191.655 109.664 191.303 110.48ZM188.647 110.8C189.687 110.8 190.151 111.504 190.151 112.304C190.151 113.136 189.655 113.728 188.615 113.728C187.591 113.728 187.063 113.232 187.063 112.336C187.063 111.472 187.559 110.8 188.647 110.8ZM186.455 118.736C186.455 118.128 187.063 118 188.631 118C189.831 118 190.535 118 190.871 118.128C191.079 118.208 191.159 118.464 191.159 118.672C191.159 119.168 190.663 119.504 188.839 119.504C186.967 119.504 186.455 119.296 186.455 118.736ZM195.471 114.144H201.391C201.391 110.656 199.791 109.28 197.519 109.28C195.215 109.28 193.567 110.976 193.567 113.664C193.567 116.64 195.263 118.144 197.583 118.144C199.887 118.144 200.943 117.072 201.359 115.632L199.727 115.04C199.391 116.032 198.767 116.512 197.647 116.512C196.191 116.512 195.583 115.712 195.471 114.144ZM195.519 112.672C195.727 111.408 196.399 110.848 197.519 110.848C198.671 110.848 199.263 111.536 199.359 112.672H195.519Z" fill="black" fill-opacity="0.2"/>
</svg>
