<?xml version="1.0" encoding="utf-8"?>
<!-- Generator: Adobe Illustrator 25.4.1, SVG Export Plug-In . SVG Version: 6.00 Build 0)  -->
<svg version="1.1" id="Ebene_1" xmlns="http://www.w3.org/2000/svg" xmlns:xlink="http://www.w3.org/1999/xlink" x="0px" y="0px"
	 viewBox="0 0 161 164.6" style="enable-background:new 0 0 161 164.6;" xml:space="preserve">
<style type="text/css">
	.st0{fill:none;}
	.st1{fill:#CE122F;}
	.st2{fill:#FFFFFF;}
	.st3{fill:#3E6933;}
	.st4{fill:#FFD246;}
	.st5{fill:#FDD245;}
	.st6{fill:#350D24;}
</style>
<g>
	<polygon class="st0" points="89.6,164.6 79.2,80.7 79.2,80.7 	"/>
	<rect x="77.1" y="51.6" class="st0" width="0" height="23.4"/>
	<rect x="75.6" y="51" class="st1" width="0" height="0.8"/>
	<path class="st1" d="M36.9,51h-1.3h-6.6h-1.8h-8.3h-2.4h-2.1c-0.7,0.1-1.4,0.1-2.1,0.1c-0.4,0-0.7,0-1.1,0c-0.3,0-0.6,0-0.9-0.1
		c0,0-0.1,0-0.1,0c-1-0.1-1.9-0.3-2.8-0.6l0,0c0,0,0,0,0,0C6.8,50.3,6.4,50.1,6,50c0,0-0.1,0-0.1-0.1c-0.8-0.4-1.6-0.8-2.2-1.3
		c0,0,0,0,0,0c-0.3-0.3-0.6-0.5-0.9-0.8l0,0c0,0,0,0,0,0c-0.5-0.5-0.8-1.1-1-1.7c0-0.1,0-0.1,0-0.2c-0.1-0.2-0.1-0.4-0.1-0.6l0,0
		c0,0,0,0,0,0c0-0.1,0-0.1,0-0.2c0-0.5,0.1-1,0.3-1.5c0,0,0,0,0,0c0.1-0.3,0.3-0.5,0.4-0.8l0,0c0,0,0,0,0,0c0.1-0.2,0.3-0.3,0.4-0.5
		c0,0,0,0,0,0c0.8-0.9,1.9-1.6,3.3-2.1h0c0,0,0,0,0,0C6.4,40,6.7,39.9,7,39.8c0,0,0.1,0,0.1,0c0.2-0.1,0.5-0.1,0.7-0.2
		c0.1,0,0.1,0,0.2-0.1c0.2-0.1,0.5-0.1,0.7-0.2c0.1,0,0.2,0,0.2,0c0.3-0.1,0.6-0.1,1-0.1c0,0,0,0,0,0c0.1,0,0.2-0.1,0.3-0.1l0,0
		c0.2-0.1,0.5-0.1,0.7-0.1l0,0c0.2,0,0.4,0,0.6,0h9.5h1.8h8.3h1.3h7.2h0.9h1.6l0,0h0.4c0,0,0,0,0,0h0H74c0,0,0,0,0,0h0.3l0,0h0.6
		h0.9H83h1.3h8.3h1.8h9.4c0.2,0,0.5,0,0.7,0.1h0l0,0c0.2,0,0.4,0.1,0.6,0.1c0,0,0.1,0,0.1,0v0c0,0,0,0,0,0c0.4,0,0.8,0.1,1.2,0.1
		c0.1,0,0.1,0,0.2,0c0.4,0.1,0.7,0.1,1.1,0.2c0,0,0.1,0,0.1,0c0.8,0.2,1.5,0.4,2.2,0.7c0,0,0,0,0,0h0c0.2,0.1,0.4,0.2,0.6,0.3h0
		c0,0,0,0,0,0c0.3,0.1,0.6,0.3,0.9,0.5c0,0,0.1,0.1,0.1,0.1c0.7,0.4,1.2,0.9,1.7,1.3c0,0,0,0,0,0c0.2,0.2,0.3,0.3,0.4,0.5
		c0,0,0,0,0,0h0c0.2,0.3,0.3,0.5,0.4,0.8c0,0,0,0,0,0c0.1,0.2,0.1,0.3,0.2,0.5c0,0,0,0,0,0h0c0,0.1,0.1,0.2,0.1,0.3h0c0,0,0,0,0,0
		c0,0.2,0.1,0.4,0.1,0.7c0,0.2,0,0.4-0.1,0.6h0c-0.1,0.3-0.2,0.6-0.3,0.9h0c0,0,0,0,0,0c0,0,0,0,0,0l0,0c0,0.1-0.1,0.2-0.2,0.3l0,0
		c-0.1,0.2-0.3,0.4-0.4,0.6c0,0,0,0,0,0c-0.1,0.1-0.2,0.2-0.3,0.3l0,0c-0.1,0.1-0.2,0.2-0.3,0.3l0,0c0,0-0.1,0-0.1,0.1
		c-0.1,0.1-0.3,0.3-0.4,0.4c0,0-0.1,0.1-0.1,0.1c-0.3,0.3-0.7,0.5-1.2,0.7l0,0c0,0,0,0,0,0c-0.4,0.2-0.7,0.4-1.1,0.5c0,0,0,0-0.1,0
		c-0.4,0.2-0.8,0.3-1.3,0.4c0,0,0,0,0,0l0,0c-0.3,0.1-0.6,0.2-0.9,0.2l0,0h0c-0.6,0.1-1.2,0.2-1.8,0.3c0,0,0,0,0,0
		c-0.6,0.1-1.3,0.1-1.9,0.1h0l0,0h0c-0.4,0-0.7,0-1.1,0c-0.4,0-0.7-0.1-1-0.1h-2.8h-2.4h-8.3h-1.8H80h-1.3h-2.8l0.1,0.7h30.8
		c5.2,0,9.4-4.2,9.4-9.4v-2.5c0-16.2-12.7-29.6-28.7-30.7v0c-1.4,0-2.7,0-4.8-0.6c-1.4-0.4-2.6-0.8-3.8-1.7
		c-0.2-0.1-0.3-0.3-0.4-0.4c-0.1-0.2-0.3-0.3-0.4-0.5c0,0,0,0,0,0C74.6,2.4,67,0,58.1,0c-8.9,0-16.6,2.4-19.9,5.9
		c-0.2,0.2-0.5,0.5-1,0.9c-1.2,1-2.3,1.3-3.8,1.7c-1.2,0.3-2,0.5-2.8,0.6h-0.4c-0.3,0-0.6,0-0.9,0c-0.1,0-0.3,0-0.5,0l0,0
		C12.8,9.8,0,23.1,0,39.2v3.1c0,5.2,4.2,9.4,9.4,9.4h31.2l0.1-0.7H36.9z M112.8,36.7c0.5,0,0.8,0.4,0.8,0.8s-0.4,0.8-0.8,0.8
		S112,38,112,37.5S112.4,36.7,112.8,36.7z M109.3,27.1c0.5,0,0.8,0.4,0.8,0.8s-0.4,0.8-0.8,0.8s-0.8-0.4-0.8-0.8
		S108.8,27.1,109.3,27.1z M92.4,35.2c-0.5,0-0.8-0.4-0.8-0.8s0.4-0.8,0.8-0.8s0.8,0.4,0.8,0.8S92.8,35.2,92.4,35.2z M103.9,29.2
		c0.5,0,0.8,0.4,0.8,0.8s-0.4,0.8-0.8,0.8s-0.8-0.4-0.8-0.8S103.5,29.2,103.9,29.2z M100.8,17.3c0.9,0,1.6,0.7,1.6,1.6
		s-0.7,1.6-1.6,1.6c-0.9,0-1.6-0.7-1.6-1.6S99.9,17.3,100.8,17.3z M98,15.3c0.3,0,0.5,0.2,0.5,0.5c0,0.3-0.2,0.5-0.5,0.5
		c-0.3,0-0.5-0.2-0.5-0.5C97.5,15.5,97.8,15.3,98,15.3z M96.2,28.5c0,1.5-1.2,2.8-2.8,2.8s-2.8-1.2-2.8-2.8c0-1.5,1.2-2.8,2.8-2.8
		S96.2,26.9,96.2,28.5z M91.6,20.8c0.7,0,1.2,0.5,1.2,1.2c0,0.7-0.5,1.2-1.2,1.2c-0.7,0-1.2-0.5-1.2-1.2
		C90.4,21.4,90.9,20.8,91.6,20.8z M90.7,35.9c0.5,0,0.8,0.4,0.8,0.8s-0.4,0.8-0.8,0.8s-0.8-0.4-0.8-0.8S90.2,35.9,90.7,35.9z
		 M88.7,12.1c0.3,0,0.5,0.2,0.5,0.5c0,0.3-0.2,0.5-0.5,0.5c-0.3,0-0.5-0.2-0.5-0.5C88.3,12.3,88.5,12.1,88.7,12.1z M87,13.4
		c0.3,0,0.5,0.2,0.5,0.5c0,0.3-0.2,0.5-0.5,0.5c-0.3,0-0.5-0.2-0.5-0.5C86.5,13.6,86.7,13.4,87,13.4z M82.8,30.6
		c0,1-0.8,1.9-1.9,1.9s-1.9-0.8-1.9-1.9c0-1,0.8-1.9,1.9-1.9S82.8,29.6,82.8,30.6z M79.8,18.6c0.3,0,0.5,0.2,0.5,0.5
		s-0.2,0.5-0.5,0.5s-0.5-0.2-0.5-0.5S79.5,18.6,79.8,18.6z M78.8,27.5c0.3,0,0.5,0.2,0.5,0.5c0,0.3-0.2,0.5-0.5,0.5
		c-0.3,0-0.5-0.2-0.5-0.5C78.3,27.7,78.6,27.5,78.8,27.5z M77.9,36.6c0,0.5-0.4,0.8-0.8,0.8s-0.8-0.4-0.8-0.8c0-0.5,0.4-0.8,0.8-0.8
		S77.9,36.1,77.9,36.6z M75.8,8.6c0.9,0,1.6,0.7,1.6,1.6s-0.7,1.6-1.6,1.6s-1.6-0.7-1.6-1.6S74.9,8.6,75.8,8.6z M72.4,6.3
		c0.5,0,0.8,0.4,0.8,0.8s-0.4,0.8-0.8,0.8s-0.8-0.4-0.8-0.8S72,6.3,72.4,6.3z M71.6,11.4c1,0,1.9,0.8,1.9,1.9s-0.8,1.9-1.9,1.9
		s-1.9-0.8-1.9-1.9S70.6,11.4,71.6,11.4z M69.9,21.6c0.7,0,1.2,0.5,1.2,1.2c0,0.7-0.5,1.2-1.2,1.2c-0.7,0-1.2-0.5-1.2-1.2
		C68.7,22.1,69.2,21.6,69.9,21.6z M68.5,24.9c0.3,0,0.5,0.2,0.5,0.5c0,0.3-0.2,0.5-0.5,0.5c-0.3,0-0.5-0.2-0.5-0.5
		C68,25.1,68.2,24.9,68.5,24.9z M67.4,36c0,0.7-0.5,1.2-1.2,1.2c-0.7,0-1.2-0.5-1.2-1.2c0-0.7,0.5-1.2,1.2-1.2
		C66.8,34.8,67.4,35.3,67.4,36z M66.4,24.9c0,1.3-1.1,2.4-2.4,2.4s-2.4-1.1-2.4-2.4c0-1.3,1.1-2.4,2.4-2.4S66.4,23.5,66.4,24.9z
		 M62.3,3.7c0.7,0,1.2,0.5,1.2,1.2S63,6.1,62.3,6.1c-0.7,0-1.2-0.5-1.2-1.2S61.6,3.7,62.3,3.7z M61.4,10.9c0.7,0,1.2,0.5,1.2,1.2
		s-0.5,1.2-1.2,1.2c-0.7,0-1.2-0.5-1.2-1.2S60.8,10.9,61.4,10.9z M41,33.9c-1.3,0-2.4-1.1-2.4-2.4s1.1-2.4,2.4-2.4
		c1.3,0,2.4,1.1,2.4,2.4S42.4,33.9,41,33.9z M53.7,33.7c-0.7,0-1.2-0.5-1.2-1.2c0-0.7,0.5-1.2,1.2-1.2c0.7,0,1.2,0.5,1.2,1.2
		C54.9,33.1,54.4,33.7,53.7,33.7z M54.9,20.4c-1,0-1.9-0.8-1.9-1.9s0.8-1.9,1.9-1.9c1,0,1.9,0.8,1.9,1.9S55.9,20.4,54.9,20.4z
		 M54.6,3.5c1.5,0,2.8,1.2,2.8,2.8c0,1.5-1.2,2.8-2.8,2.8c-1.5,0-2.8-1.2-2.8-2.8C51.8,4.7,53.1,3.5,54.6,3.5z M51.9,25.3
		c0.5,0,0.8,0.4,0.8,0.8S52.3,27,51.9,27S51,26.6,51,26.2S51.4,25.3,51.9,25.3z M49.9,27.9c0,0.3-0.2,0.5-0.5,0.5s-0.5-0.2-0.5-0.5
		s0.2-0.5,0.5-0.5S49.9,27.6,49.9,27.9z M47.8,4.2c0.9,0,1.6,0.7,1.6,1.6s-0.7,1.6-1.6,1.6c-0.9,0-1.6-0.7-1.6-1.6
		S46.9,4.2,47.8,4.2z M44,6.3c0.5,0,0.8,0.4,0.8,0.8S44.5,7.9,44,7.9s-0.8-0.4-0.8-0.8S43.6,6.3,44,6.3z M42.9,16.7
		c0.9,0,1.6,0.7,1.6,1.6c0,0.9-0.7,1.6-1.6,1.6s-1.6-0.7-1.6-1.6C41.3,17.4,42,16.7,42.9,16.7z M39.7,22.7c0.9,0,1.6,0.7,1.6,1.6
		c0,0.9-0.7,1.6-1.6,1.6s-1.6-0.7-1.6-1.6C38.1,23.4,38.8,22.7,39.7,22.7z M35.6,11.1c0.1-0.2,0.4-0.4,0.6-0.3s0.4,0.4,0.3,0.6
		c-0.1,0.2-0.4,0.4-0.6,0.3S35.5,11.4,35.6,11.1z M32.2,11.5c0.5,0,0.8,0.4,0.8,0.8s-0.4,0.8-0.8,0.8s-0.8-0.4-0.8-0.8
		S31.8,11.5,32.2,11.5z M11.4,28.3c-0.3,0-0.5-0.2-0.5-0.5c0-0.3,0.2-0.5,0.5-0.5c0.3,0,0.5,0.2,0.5,0.5
		C11.9,28.1,11.7,28.3,11.4,28.3z M31,36.4c0,0.3-0.2,0.5-0.5,0.5c-0.3,0-0.5-0.2-0.5-0.5c0-0.3,0.2-0.5,0.5-0.5
		C30.8,35.9,31,36.2,31,36.4z M27.4,19.3c1.5,0,2.8,1.2,2.8,2.8s-1.2,2.8-2.8,2.8s-2.8-1.2-2.8-2.8S25.9,19.3,27.4,19.3z M22.7,22.4
		c0.3,0,0.5,0.2,0.5,0.5c0,0.3-0.2,0.5-0.5,0.5c-0.3,0-0.5-0.2-0.5-0.5C22.2,22.6,22.4,22.4,22.7,22.4z M22.7,25.1
		c0,0.5-0.4,0.8-0.8,0.8c-0.5,0-0.8-0.4-0.8-0.8s0.4-0.8,0.8-0.8C22.3,24.3,22.7,24.7,22.7,25.1z M20.4,12.9c0.6,0,1.2,0.5,1.2,1.2
		s-0.5,1.2-1.2,1.2c-0.6,0-1.2-0.5-1.2-1.2S19.8,12.9,20.4,12.9z M19.2,35.4c0.5,0,0.8,0.4,0.8,0.8s-0.4,0.8-0.8,0.8
		s-0.8-0.4-0.8-0.8S18.8,35.4,19.2,35.4z M14.7,16.1c0.1-0.2,0.4-0.4,0.6-0.3c0.2,0.1,0.4,0.4,0.3,0.6c-0.1,0.2-0.4,0.4-0.6,0.3
		C14.8,16.6,14.6,16.3,14.7,16.1z M13.7,21.5c0.3,0,0.5,0.2,0.5,0.5c0,0.3-0.2,0.5-0.5,0.5c-0.3,0-0.5-0.2-0.5-0.5
		C13.2,21.7,13.4,21.5,13.7,21.5z M15.2,32c1.3,0,2.4,1.1,2.4,2.4s-1.1,2.4-2.4,2.4s-2.4-1.1-2.4-2.4S13.8,32,15.2,32z M9.1,20.8
		c1.5,0,2.8,1.2,2.8,2.8s-1.2,2.8-2.8,2.8s-2.8-1.2-2.8-2.8S7.6,20.8,9.1,20.8z M7.2,29.6c0.8,0,1.5,0.7,1.5,1.5
		c0,0.8-0.7,1.5-1.5,1.5S5.7,32,5.7,31.1C5.7,30.3,6.4,29.6,7.2,29.6z M0.8,37.9c0-0.6,0.5-1.2,1.2-1.2s1.2,0.5,1.2,1.2
		S2.6,39.1,2,39.1S0.8,38.6,0.8,37.9z"/>
	<path class="st2" d="M107.8,39.4c0.8,0.2,1.5,0.4,2.2,0.7C109.3,39.8,108.6,39.6,107.8,39.4z"/>
	<path class="st2" d="M111.3,49.4c-0.4,0.2-0.7,0.4-1.1,0.5C110.6,49.8,111,49.6,111.3,49.4z"/>
	<path class="st2" d="M113.7,47.5C113.7,47.5,113.7,47.5,113.7,47.5C113.7,47.5,113.7,47.5,113.7,47.5z"/>
	<path class="st2" d="M113,48.2c-0.1,0.1-0.3,0.3-0.4,0.4C112.7,48.5,112.9,48.4,113,48.2z"/>
	<path class="st2" d="M113.4,42.2c0.2,0.2,0.3,0.3,0.4,0.5C113.7,42.6,113.5,42.4,113.4,42.2z"/>
	<path class="st2" d="M110.6,40.3c0.3,0.1,0.6,0.3,0.9,0.5C111.3,40.6,111,40.5,110.6,40.3z"/>
	<path class="st2" d="M114.3,43.6c0.1,0.2,0.1,0.3,0.2,0.5C114.4,43.9,114.3,43.7,114.3,43.6z"/>
	<path class="st2" d="M106.7,39.2c0.4,0.1,0.7,0.1,1.1,0.2C107.4,39.3,107,39.3,106.7,39.2z"/>
	<path class="st2" d="M105.3,39.1c0.4,0,0.8,0.1,1.2,0.1C106.1,39.1,105.7,39.1,105.3,39.1z"/>
	<polygon class="st2" points="114.3,46.5 114.3,46.5 114.3,46.6 	"/>
	<path class="st2" d="M114.6,45.1c0-0.2,0-0.5-0.1-0.7C114.6,44.6,114.6,44.8,114.6,45.1z"/>
	<path class="st2" d="M9,39.3c0.3-0.1,0.6-0.1,1-0.1C9.6,39.2,9.3,39.3,9,39.3z"/>
	<path class="st2" d="M107.9,50.7c-0.6,0.1-1.2,0.2-1.8,0.3C106.7,50.9,107.4,50.8,107.9,50.7z"/>
	<path class="st2" d="M106.1,51c-0.6,0.1-1.3,0.1-1.9,0.1C104.8,51.1,105.5,51.1,106.1,51z"/>
	<path class="st2" d="M8,39.5c0.2-0.1,0.5-0.1,0.7-0.2C8.5,39.4,8.3,39.5,8,39.5z"/>
	<path class="st2" d="M110.1,50c-0.4,0.2-0.8,0.3-1.3,0.4C109.3,50.3,109.7,50.2,110.1,50z"/>
	<path class="st2" d="M103.9,38.9c0.2,0,0.5,0,0.7,0.1C104.3,38.9,104.1,38.9,103.9,38.9z"/>
	<path class="st2" d="M104.1,51.1L104.1,51.1c-0.4,0-0.7,0-1.1,0C103.4,51.1,103.8,51.1,104.1,51.1z"/>
	<path class="st2" d="M7.1,39.8c0.2-0.1,0.5-0.1,0.7-0.2C7.6,39.6,7.3,39.7,7.1,39.8z"/>
	<path class="st2" d="M2.4,42.8c0.1-0.2,0.3-0.3,0.4-0.5C2.7,42.5,2.6,42.6,2.4,42.8z"/>
	<path class="st2" d="M7.2,50.4C6.8,50.3,6.4,50.1,6,50C6.4,50.1,6.8,50.3,7.2,50.4z"/>
	<path class="st2" d="M6.1,40.1C6.4,40,6.7,39.9,7,39.8C6.7,39.9,6.4,40,6.1,40.1z"/>
	<path class="st2" d="M11.1,51.1c-0.3,0-0.6,0-0.9-0.1C10.5,51,10.8,51.1,11.1,51.1z"/>
	<path class="st3" d="M10,39.2C10,39.2,10,39.2,10,39.2c-0.3,0-0.7,0.1-1,0.1c-0.1,0-0.2,0-0.2,0c-0.2,0-0.5,0.1-0.7,0.2
		c-0.1,0-0.1,0-0.2,0.1c-0.3,0.1-0.5,0.1-0.7,0.2c0,0-0.1,0-0.1,0c-0.3,0.1-0.6,0.2-0.8,0.3c0,0,0,0,0,0h0l35.5,3.6l0-0.2l-31.4-4.3
		l0-0.1l0,0C10.2,39.1,10.1,39.1,10,39.2z"/>
	<path class="st3" d="M11,38.9L11,38.9l30.7,4.2l0.1-0.4l-20.7-3.8h-9.5C11.4,38.9,11.2,38.9,11,38.9z"/>
	<path class="st3" d="M4.4,49.1l36.9-2.6l0-0.1L3.1,48.1c0.2,0.2,0.4,0.3,0.6,0.5c0,0,0,0,0,0C3.9,48.8,4.1,49,4.4,49.1z"/>
	<path class="st3" d="M7.2,50.4C7.2,50.4,7.2,50.4,7.2,50.4L7.2,50.4l34-3.4l0-0.2L4.9,49.4c0.3,0.2,0.7,0.4,1,0.5
		c0,0,0.1,0,0.1,0.1C6.4,50.1,6.8,50.3,7.2,50.4z"/>
	<polygon class="st3" points="42.6,38.9 42.7,38.9 42.7,38.9 42.6,38.9 	"/>
	<polygon class="st3" points="42.2,39.5 42.3,38.9 40.6,38.9 	"/>
	<path class="st3" d="M1.7,45.3l39.7,0l0,0L1.7,44.4c0,0.2-0.1,0.4-0.1,0.7C1.7,45.1,1.7,45.2,1.7,45.3C1.7,45.3,1.7,45.3,1.7,45.3
		L1.7,45.3z"/>
	<polygon class="st3" points="42,41.3 42.2,39.8 39.7,38.9 32.5,38.9 	"/>
	<polygon class="st3" points="41.8,42.4 41.9,41.6 31.2,38.9 22.9,38.9 	"/>
	<path class="st3" d="M11.1,51.1c0.3,0,0.7,0,1.1,0c0.7,0,1.4,0,2.1-0.1h2.1l24.8-3.4l0-0.3L8.1,50.6c0.6,0.1,1.3,0.3,1.9,0.3
		c0,0,0.1,0,0.1,0C10.5,51,10.8,51.1,11.1,51.1z"/>
	<polygon class="st3" points="40.9,49.6 41,48.8 28.9,51 35.5,51 	"/>
	<polygon class="st3" points="41,48.4 41.1,47.9 18.8,51 27.1,51 	"/>
	<polygon class="st3" points="40.8,50 36.9,51 40.7,51 	"/>
	<path class="st3" d="M5.5,40.4c-0.7,0.3-1.3,0.7-1.8,1.1l37.9,2.7l0-0.1L5.5,40.4z"/>
	<path class="st3" d="M2.8,42.3c-0.2,0.2-0.3,0.3-0.4,0.5c0,0,0,0,0,0l0,0l39.1,1.8l0-0.1L3.4,41.8C3.2,41.9,3,42.1,2.8,42.3
		C2.9,42.3,2.9,42.3,2.8,42.3z"/>
	<path class="st3" d="M2,46.6l39.4-0.9l0,0l-39.7,0c0,0.1,0,0.2,0.1,0.3c0,0.1,0,0.1,0,0.2C1.9,46.3,1.9,46.4,2,46.6z"/>
	<path class="st3" d="M2.8,47.8l38.5-1.7l0-0.1L2.1,46.9C2.3,47.2,2.6,47.5,2.8,47.8C2.8,47.8,2.8,47.8,2.8,47.8L2.8,47.8z"/>
	<path class="st3" d="M1.8,44.1L41.5,45l0,0L2.2,43.1c-0.1,0.2-0.2,0.3-0.2,0.5c0,0,0,0,0,0C1.9,43.8,1.9,43.9,1.8,44.1z"/>
	<path class="st3" d="M114.5,44.4L114.5,44.4l-39.4,0.9l0,0.1l39.4,0c0-0.1,0-0.2,0-0.3C114.6,44.8,114.6,44.6,114.5,44.4
		C114.5,44.4,114.5,44.4,114.5,44.4z"/>
	<rect x="74.8" y="45.3" transform="matrix(0.9925 -0.1224 0.1224 0.9925 -4.9809 9.4993)" class="st3" width="0" height="0"/>
	<path class="st3" d="M114.3,46.6C114.3,46.6,114.3,46.5,114.3,46.6c0.1-0.3,0.2-0.6,0.3-0.9h0l-39.3,0l0,0.1L114.3,46.6L114.3,46.6
		C114.3,46.6,114.3,46.6,114.3,46.6z"/>
	<rect x="74.9" y="45.7" transform="matrix(0.9924 -0.1231 0.1231 0.9924 -5.0524 9.5628)" class="st3" width="0" height="0"/>
	<path class="st3" d="M110,40.1c-0.7-0.3-1.4-0.5-2.2-0.7c0,0-0.1,0-0.1,0c-0.3-0.1-0.7-0.1-1.1-0.2c-0.1,0-0.1,0-0.2,0
		c-0.4-0.1-0.8-0.1-1.2-0.1c0,0,0,0,0,0v0l0,0.1l-30.4,4.2l0,0.3L110,40.1L110,40.1C110,40.1,110,40.1,110,40.1z"/>
	<rect x="74.6" y="43.4" transform="matrix(0.9924 -0.1232 0.1232 0.9924 -4.7903 9.5231)" class="st3" width="0" height="0.3"/>
	<rect x="75" y="46.4" transform="matrix(0.9924 -0.1229 0.1229 0.9924 -5.1453 9.5693)" class="st3" width="0" height="0.1"/>
	<path class="st3" d="M113,48.2C113,48.2,113.1,48.2,113,48.2L113,48.2l-37.7-1.8l0,0.1l36.5,2.6c0.2-0.1,0.4-0.3,0.7-0.5
		c0,0,0.1-0.1,0.1-0.1C112.7,48.5,112.9,48.4,113,48.2z"/>
	<path class="st3" d="M110.6,40.3C110.6,40.3,110.6,40.3,110.6,40.3L110.6,40.3L75,43.9l0,0.2l37.5-2.7c-0.3-0.2-0.5-0.4-0.8-0.5
		c0,0-0.1-0.1-0.1-0.1C111.3,40.6,111,40.5,110.6,40.3z"/>
	<rect x="74.7" y="44" transform="matrix(0.9923 -0.1235 0.1235 0.9923 -4.8669 9.5582)" class="st3" width="0" height="0.2"/>
	<path class="st3" d="M108.9,50.4c0.4-0.1,0.9-0.3,1.3-0.4c0,0,0,0,0.1,0c0.4-0.2,0.8-0.3,1.1-0.5c0,0,0,0,0,0l0,0l-36-2.6l0,0.2
		L108.9,50.4L108.9,50.4C108.9,50.4,108.9,50.4,108.9,50.4z"/>
	<rect x="75" y="46.9" transform="matrix(0.9924 -0.1232 0.1232 0.9924 -5.2149 9.6051)" class="st3" width="0" height="0.2"/>
	<path class="st3" d="M113.8,42.8c-0.1-0.2-0.3-0.4-0.4-0.5c0,0,0,0,0,0c-0.2-0.2-0.3-0.3-0.5-0.5l-37.8,2.7l0,0.1L113.8,42.8
		L113.8,42.8C113.8,42.8,113.8,42.8,113.8,42.8z"/>
	<rect x="74.7" y="44.4" transform="matrix(0.9924 -0.1232 0.1232 0.9924 -4.9134 9.5467)" class="st3" width="0" height="0.1"/>
	<path class="st3" d="M113.7,47.5C113.7,47.5,113.7,47.5,113.7,47.5c0.2-0.2,0.3-0.4,0.4-0.6l0,0L75.3,46l0,0.1l38.1,1.7l0,0
		C113.5,47.7,113.6,47.6,113.7,47.5z"/>
	<rect x="74.9" y="46" transform="matrix(0.9923 -0.1237 0.1237 0.9923 -5.1228 9.6222)" class="st3" width="0" height="0.1"/>
	<rect x="75.3" y="48.9" transform="matrix(0.9924 -0.1232 0.1232 0.9924 -5.5054 9.6583)" class="st3" width="0" height="0.9"/>
	<polygon class="st3" points="75.6,48.9 75.7,49.9 80,51 86.7,51 	"/>
	<polygon class="st3" points="74.4,39.1 74.9,38.9 74.4,38.9 	"/>
	<rect x="75.2" y="48" transform="matrix(0.9924 -0.1232 0.1232 0.9924 -5.3748 9.632)" class="st3" width="0" height="0.5"/>
	<polygon class="st3" points="75.5,48.1 75.6,48.6 88.5,51 96.8,51 	"/>
	<polygon class="st3" points="75.8,50.2 75.9,51 78.7,51 	"/>
	<rect x="75.5" y="50.1" transform="matrix(0.9924 -0.1232 0.1232 0.9924 -5.654 9.6842)" class="st3" width="0" height="0.8"/>
	<path class="st3" d="M103.1,51.1c0.4,0,0.7,0,1.1,0l0,0h0c0.7,0,1.3,0,1.9-0.1c0,0,0,0,0,0c0.6-0.1,1.2-0.2,1.8-0.3h0l0,0
		l-32.5-3.3l0,0.3L99.2,51h2.8C102.4,51,102.7,51,103.1,51.1z"/>
	<rect x="75.1" y="47.4" transform="matrix(0.9924 -0.1232 0.1232 0.9924 -5.283 9.6136)" class="st3" width="0" height="0.3"/>
	<polygon class="st3" points="74.7,41.4 74.8,42.2 92.7,38.9 84.4,38.9 	"/>
	<rect x="74.4" y="41.4" transform="matrix(0.9924 -0.1232 0.1232 0.9924 -4.5875 9.4847)" class="st3" width="0" height="0.8"/>
	<path class="st3" d="M104.6,38.9c-0.2,0-0.5-0.1-0.7-0.1h-9.4l-19.7,3.6l0.1,0.5L104.6,38.9L104.6,38.9L104.6,38.9z"/>
	<rect x="74.5" y="42.6" transform="matrix(0.9924 -0.1231 0.1231 0.9924 -4.7029 9.5014)" class="st3" width="0" height="0.5"/>
	<path class="st3" d="M114.4,44.1c0-0.2-0.1-0.3-0.2-0.5c0,0,0,0,0,0c-0.1-0.2-0.2-0.3-0.2-0.5l-38.9,1.8l0,0.1L114.4,44.1
		L114.4,44.1C114.4,44.1,114.4,44.1,114.4,44.1z"/>
	<rect x="74.8" y="44.9" transform="matrix(0.9924 -0.1232 0.1232 0.9924 -4.9633 9.556)" class="st3" width="0" height="0.1"/>
	<rect x="74.2" y="40" transform="matrix(0.9924 -0.1232 0.1232 0.9924 -4.4326 9.4586)" class="st3" width="0" height="1.1"/>
	<polygon class="st3" points="74.4,39.4 74.6,41 83,38.9 75.9,38.9 	"/>
	<path class="st4" d="M78.6,80.7c-1.8,0-2.7-0.5-3.5-0.9c-0.9-0.5-1.7-0.9-3.4-0.9c-1.7,0-2.5,0.4-3.4,0.9c-0.9,0.5-1.8,0.9-3.5,0.9
		c-1.8,0-2.7-0.5-3.5-0.9c-0.9-0.5-1.7-0.9-3.4-0.9c-1.7,0-2.5,0.4-3.4,0.9c-0.9,0.5-1.8,0.9-3.5,0.9c-1.8,0-2.7-0.5-3.5-0.9
		c-0.9-0.5-1.7-0.9-3.4-0.9c-1.7,0-2.5,0.4-3.4,0.9c-0.9,0.5-1.8,0.9-3.5,0.9c0,0,0,0,0,0L26,164.6h63.6L79.2,80.7
		C79,80.7,78.8,80.7,78.6,80.7z"/>
	<path class="st4" d="M42.6,38.9L37.8,75c0,0,0,0,0,0c0,0.2,0,0,0,0.4c0,0.1-0.1,0.2-0.1,0.2c-0.2,0.5-0.5,1.1-1.2,1.9
		c-0.7,0.7-1.5,1.1-1.8,1.2c-0.5,0.2-0.9,0.3-1.6,0.4c0.2,0.1,0.5,0.2,0.7,0.3c0.9,0.5,1.7,0.9,3.4,0.9c1.7,0,2.5-0.4,3.4-0.9
		c0.9-0.5,1.8-0.9,3.5-0.9c1.8,0,2.7,0.5,3.5,0.9c0.9,0.5,1.7,0.9,3.4,0.9c1.7,0,2.5-0.4,3.4-0.9c0.9-0.5,1.8-0.9,3.5-0.9
		c1.8,0,2.7,0.5,3.5,0.9c0.9,0.5,1.7,0.9,3.4,0.9c1.7,0,2.5-0.4,3.4-0.9c0.9-0.5,1.8-0.9,3.5-0.9c1.8,0,2.7,0.5,3.5,0.9
		c0.9,0.5,1.7,0.9,3.4,0.9c1.7,0,2.5-0.4,3.4-0.9c0.3-0.2,0.6-0.3,0.9-0.5c-0.6,0-0.9-0.2-1.4-0.3c-0.3-0.1-1-0.5-1.8-1.2
		c-0.7-0.8-1-1.4-1.2-1.9c-0.1-0.1,0-0.4-0.1-0.5c0,0,0-0.1,0-0.1l-2.9-23.2L75.5,51l-0.1-0.8l0-0.4l-0.1-0.9l0-0.3L75.2,48l0-0.3
		l0-0.3l0-0.3l0-0.2l0-0.3l0-0.1l0-0.3l0-0.1l0-0.3l0,0l0-0.3l0,0l0-0.3l0-0.1l0-0.3l0-0.1l0-0.3l0-0.2l0-0.3l0-0.3l0-0.3l-0.1-0.5
		l0-0.3l-0.1-0.8l0-0.3L74.2,40l-0.1-0.9c0-0.1,0-0.1,0-0.2H42.6L42.6,38.9L42.6,38.9z"/>
	<path class="st2" d="M75.9,51l-0.1-0.7l2.9,0.7H80l-4.3-1.1l-0.1-0.9l11,2h1.8l-12.9-2.4l-0.1-0.5L96.8,51h2.4l-23.8-3.2l0-0.3
		l32.5,3.3c0.3-0.1,0.6-0.1,0.9-0.2l-33.5-3.4l0-0.2l36,2.6c0.4-0.2,0.8-0.5,1.2-0.7c-0.2,0.2-0.4,0.3-0.7,0.5l-36.5-2.6l0-0.1
		l37.8,1.7c0.1-0.1,0.2-0.2,0.3-0.3l-38.1-1.7l0-0.1l38.8,0.9c0.1-0.1,0.1-0.2,0.2-0.3l-39-0.9l0-0.1l39.3,0c0-0.2,0.1-0.4,0.1-0.6
		c0,0.1,0,0.2,0,0.3l-39.4,0l0-0.1l39.4-0.9c0-0.1,0-0.2-0.1-0.3l-39.3,0.9l0-0.1l38.9-1.8c0.1,0.2,0.2,0.3,0.2,0.5
		c-0.1-0.3-0.3-0.5-0.4-0.8l-38.7,1.8l0-0.1l37.8-2.7c0.2,0.2,0.4,0.3,0.5,0.5c-0.5-0.5-1-0.9-1.7-1.3c0.3,0.2,0.6,0.4,0.8,0.5
		L75,44.1l0-0.2l35.6-3.6c-0.2-0.1-0.4-0.2-0.6-0.3l-35.1,3.5l0-0.3l30.4-4.2l0-0.1c0,0-0.1,0-0.1,0c-0.2-0.1-0.4-0.1-0.6-0.1
		l-29.7,4l-0.1-0.5l19.7-3.6h-1.8l-17.9,3.3l-0.1-0.8l9.7-2.5H83L74.6,41l-0.2-1.6l1.4-0.5h-0.9l-0.5,0.2l0-0.2l0,0H74c0,0,0,0,0,0
		H42.7v0H74c0,0.1,0,0.1,0,0.2l0.1,0.9l0,0l0.1,1.1l0,0l0,0.3h0l0.1,0.8l0,0l0,0.3l0,0l0.1,0.5l0,0l0,0.3l0,0l0,0.3l0,0l0,0.3l0,0
		l0,0.2l0,0l0,0.3l0,0l0,0.1l0,0l0,0.3l0,0l0,0.1l0,0l0,0.3l0,0l0,0l0,0l0,0.3l0,0l0,0l0,0l0,0.3l0,0l0,0.1l0,0l0,0.3l0,0l0,0.1l0,0
		l0,0.3l0,0l0,0.2l0,0l0,0.3l0,0l0,0.3l0,0l0,0.3l0,0l0.1,0.5l0,0l0,0.3l0,0l0.1,0.9l0,0l0,0.4h0l0.1,0.8l0.1,0.7l2.9,23.2l0,0
		c0,0.1,0,0.1,0,0.1c0,0.1,0,0.4,0.1,0.5c0.2,0.5,0.5,1.1,1.2,1.9c0.7,0.8,1.5,1.1,1.8,1.2c0.5,0.2,0.8,0.3,1.4,0.3
		c-0.3,0.1-0.6,0.3-0.9,0.5c-0.9,0.5-1.7,0.9-3.4,0.9c-1.7,0-2.5-0.4-3.4-0.9c-0.9-0.5-1.8-0.9-3.5-0.9c-1.8,0-2.7,0.5-3.5,0.9
		c-0.9,0.5-1.7,0.9-3.4,0.9c-1.7,0-2.5-0.4-3.4-0.9c-0.9-0.5-1.8-0.9-3.5-0.9c-1.8,0-2.7,0.5-3.5,0.9c-0.9,0.5-1.7,0.9-3.4,0.9
		c-1.7,0-2.5-0.4-3.4-0.9c-0.9-0.5-1.8-0.9-3.5-0.9c-1.8,0-2.7,0.5-3.5,0.9c-0.9,0.5-1.7,0.9-3.4,0.9c-1.7,0-2.5-0.4-3.4-0.9
		c-0.2-0.1-0.4-0.2-0.7-0.3c0.7,0,1-0.2,1.6-0.4c0.4-0.1,1.1-0.5,1.8-1.2c0.8-0.8,1-1.4,1.2-1.9c0-0.1,0.1-0.2,0.1-0.2
		c0-0.4,0-0.2,0-0.4c0,0,0,0,0,0l4.8-36.2h0c0,0,0,0,0,0c0,0,0,0,0,0h-0.4l0,0l-0.1,0.6l-1.6-0.6h-0.9l2.5,0.9L42,41.3l-9.4-2.4
		h-1.3l10.7,2.7l-0.1,0.8l-18.9-3.5h-1.8l20.7,3.8l-0.1,0.4L11,38.9c-0.2,0-0.5,0.1-0.7,0.1l0,0.1l31.4,4.3l0,0.2L6.1,40.1
		c-1.4,0.6-2.5,1.3-3.3,2.1c0.2-0.2,0.3-0.3,0.5-0.5l38.2,2.7l0,0.1L2.4,42.8c-0.2,0.3-0.3,0.5-0.4,0.8c0.1-0.2,0.2-0.3,0.2-0.5
		l39.3,1.8l0,0L1.8,44.1c0-0.2,0.1-0.3,0.2-0.5c-0.2,0.5-0.3,1-0.3,1.5c0,0.1,0,0.1,0,0.2c0-0.1,0-0.1,0-0.2c0-0.2,0-0.4,0.1-0.7
		l39.7,0.9l0,0l-39.7,0c0,0.2,0,0.4,0.1,0.6c0-0.1-0.1-0.2-0.1-0.3l39.7,0l0,0L2,46.6c-0.1-0.1-0.1-0.3-0.2-0.4
		c0.2,0.6,0.5,1.2,1,1.7c-0.3-0.3-0.5-0.6-0.7-0.9L41.3,46l0,0.1L2.8,47.8c0.3,0.3,0.6,0.6,0.9,0.8c-0.2-0.2-0.4-0.3-0.6-0.5
		l38.2-1.7l0,0.1L4.4,49.1c-0.2-0.2-0.5-0.3-0.7-0.5c0.6,0.5,1.4,0.9,2.2,1.3c-0.4-0.2-0.7-0.3-1-0.5l36.4-2.6l0,0.2l-34,3.4
		C8.1,50.7,9,50.9,10,51c-0.7-0.1-1.3-0.2-1.9-0.3l33.1-3.3l0,0.3L16.3,51h2.4l22.3-3L41,48.4L27.1,51h1.8L41,48.8l-0.1,0.9L35.5,51
		h1.3l3.9-1l-0.1,1l-0.1,0.7l-3.1,23.7c0,0-0.1,0.1-0.1,0.2c-0.2,0.4-0.5,1.1-1.2,1.8c-0.7,0.7-1.4,1-1.7,1.2
		c-0.7,0.3-1,0.4-2.3,0.3l0,0c0,0,0,0,0,0c0,0.1,0,0.2,0,0.3c0.5,0.2,0.9,0.4,1.4,0.6c0.8,0.4,1.6,0.9,3.2,0.9l-11.1,83.8l0,0.4H90
		l0-0.4L79.6,80.7c1.1-0.1,1.9-0.5,2.5-0.9c0.6-0.3,1.1-0.6,1.9-0.8c0-0.1-0.1-0.2-0.1-0.3c-0.1,0-0.1,0-0.2,0c0,0,0,0,0,0
		c0,0,0,0-0.1,0c-0.1,0-0.1,0-0.2,0c0,0,0,0,0,0c-0.2,0-0.5,0-0.7-0.1c-0.4-0.1-0.6-0.1-1-0.3c-0.3-0.1-0.9-0.4-1.6-1.2
		c-0.6-0.6-0.9-1.2-1.1-1.6l-3-23.9L75.9,51z M3.7,41.5c0.5-0.4,1.1-0.8,1.8-1.1L41.6,44l0,0.1L3.7,41.5z M89.6,164.6H26l11.1-83.9
		c0,0,0,0,0,0c1.8,0,2.7-0.5,3.5-0.9c0.9-0.5,1.7-0.9,3.4-0.9c1.7,0,2.5,0.4,3.4,0.9c0.9,0.5,1.8,0.9,3.5,0.9c1.8,0,2.7-0.5,3.5-0.9
		c0.9-0.5,1.7-0.9,3.4-0.9c1.7,0,2.5,0.4,3.4,0.9c0.9,0.5,1.8,0.9,3.5,0.9c1.8,0,2.7-0.5,3.5-0.9c0.9-0.5,1.7-0.9,3.4-0.9
		c1.7,0,2.5,0.4,3.4,0.9c0.9,0.5,1.8,0.9,3.5,0.9c0.2,0,0.5,0,0.7,0l0,0L89.6,164.6z"/>
	<circle class="st2" cx="42.9" cy="18.3" r="1.6"/>
	<circle class="st2" cx="47.8" cy="5.8" r="1.6"/>
	<circle class="st2" cx="75.8" cy="10.2" r="1.6"/>
	<circle class="st2" cx="100.8" cy="18.9" r="1.6"/>
	<circle class="st2" cx="39.7" cy="24.3" r="1.6"/>
	<path class="st2" d="M71.6,15.1c1,0,1.9-0.8,1.9-1.9s-0.8-1.9-1.9-1.9s-1.9,0.8-1.9,1.9S70.6,15.1,71.6,15.1z"/>
	<path class="st2" d="M54.9,16.7c-1,0-1.9,0.8-1.9,1.9s0.8,1.9,1.9,1.9c1,0,1.9-0.8,1.9-1.9S55.9,16.7,54.9,16.7z"/>
	<path class="st2" d="M79.1,30.6c0,1,0.8,1.9,1.9,1.9s1.9-0.8,1.9-1.9c0-1-0.8-1.9-1.9-1.9S79.1,29.6,79.1,30.6z"/>
	<path class="st2" d="M7.2,32.6c0.8,0,1.5-0.7,1.5-1.5c0-0.8-0.7-1.5-1.5-1.5s-1.5,0.7-1.5,1.5C5.7,32,6.4,32.6,7.2,32.6z"/>
	<circle class="st2" cx="69.9" cy="22.8" r="1.2"/>
	<circle class="st2" cx="61.4" cy="12.1" r="1.2"/>
	<circle class="st2" cx="62.3" cy="4.9" r="1.2"/>
	<circle class="st2" cx="53.7" cy="32.5" r="1.2"/>
	<path class="st2" d="M65,36c0,0.7,0.5,1.2,1.2,1.2c0.7,0,1.2-0.5,1.2-1.2c0-0.7-0.5-1.2-1.2-1.2C65.5,34.8,65,35.3,65,36z"/>
	<circle class="st2" cx="91.6" cy="22" r="1.2"/>
	<path class="st2" d="M20.4,15.3c0.6,0,1.2-0.5,1.2-1.2s-0.5-1.2-1.2-1.2c-0.6,0-1.2,0.5-1.2,1.2S19.8,15.3,20.4,15.3z"/>
	<path class="st2" d="M3.2,37.9c0-0.6-0.5-1.2-1.2-1.2s-1.2,0.5-1.2,1.2s0.5,1.2,1.2,1.2S3.2,38.6,3.2,37.9z"/>
	<path class="st2" d="M13.7,22.5c0.3,0,0.5-0.2,0.5-0.5c0-0.3-0.2-0.5-0.5-0.5c-0.3,0-0.5,0.2-0.5,0.5
		C13.2,22.3,13.4,22.5,13.7,22.5z"/>
	<path class="st2" d="M11.4,27.4c-0.3,0-0.5,0.2-0.5,0.5c0,0.3,0.2,0.5,0.5,0.5c0.3,0,0.5-0.2,0.5-0.5
		C11.9,27.6,11.7,27.4,11.4,27.4z"/>
	<circle class="st2" cx="22.7" cy="22.9" r="0.5"/>
	<circle class="st2" cx="30.5" cy="36.4" r="0.5"/>
	<circle class="st2" cx="49.4" cy="27.9" r="0.5"/>
	<path class="st2" d="M68.5,25.8c0.3,0,0.5-0.2,0.5-0.5c0-0.3-0.2-0.5-0.5-0.5c-0.3,0-0.5,0.2-0.5,0.5C68,25.6,68.2,25.8,68.5,25.8z
		"/>
	<path class="st2" d="M78.8,28.5c0.3,0,0.5-0.2,0.5-0.5c0-0.3-0.2-0.5-0.5-0.5c-0.3,0-0.5,0.2-0.5,0.5
		C78.3,28.3,78.6,28.5,78.8,28.5z"/>
	<circle class="st2" cx="79.8" cy="19.1" r="0.5"/>
	<path class="st2" d="M87,14.4c0.3,0,0.5-0.2,0.5-0.5c0-0.3-0.2-0.5-0.5-0.5c-0.3,0-0.5,0.2-0.5,0.5C86.5,14.2,86.7,14.4,87,14.4z"
		/>
	<circle class="st2" cx="88.7" cy="12.5" r="0.5"/>
	<path class="st2" d="M98,16.3c0.3,0,0.5-0.2,0.5-0.5c0-0.3-0.2-0.5-0.5-0.5c-0.3,0-0.5,0.2-0.5,0.5C97.5,16.1,97.8,16.3,98,16.3z"
		/>
	<path class="st2" d="M15,16.7c0.2,0.1,0.5,0,0.6-0.3c0.1-0.2,0-0.5-0.3-0.6c-0.2-0.1-0.5,0-0.6,0.3C14.6,16.3,14.8,16.6,15,16.7z"
		/>
	<path class="st2" d="M35.9,11.7c0.2,0.1,0.5,0,0.6-0.3c0.1-0.2,0-0.5-0.3-0.6s-0.5,0-0.6,0.3C35.5,11.4,35.7,11.6,35.9,11.7z"/>
	<path class="st2" d="M109.3,28.7c0.5,0,0.8-0.4,0.8-0.8s-0.4-0.8-0.8-0.8s-0.8,0.4-0.8,0.8S108.8,28.7,109.3,28.7z"/>
	<circle class="st2" cx="103.9" cy="30" r="0.8"/>
	<circle class="st2" cx="92.4" cy="34.4" r="0.8"/>
	<path class="st2" d="M90.7,37.5c0.5,0,0.8-0.4,0.8-0.8s-0.4-0.8-0.8-0.8s-0.8,0.4-0.8,0.8S90.2,37.5,90.7,37.5z"/>
	<path class="st2" d="M76.3,36.6c0,0.5,0.4,0.8,0.8,0.8s0.8-0.4,0.8-0.8c0-0.5-0.4-0.8-0.8-0.8S76.3,36.1,76.3,36.6z"/>
	<path class="st2" d="M51.9,27c0.5,0,0.8-0.4,0.8-0.8s-0.4-0.8-0.8-0.8S51,25.7,51,26.2S51.4,27,51.9,27z"/>
	<path class="st2" d="M21.1,25.1c0,0.5,0.4,0.8,0.8,0.8c0.5,0,0.8-0.4,0.8-0.8s-0.4-0.8-0.8-0.8C21.4,24.3,21.1,24.7,21.1,25.1z"/>
	<path class="st2" d="M32.2,13.1c0.5,0,0.8-0.4,0.8-0.8s-0.4-0.8-0.8-0.8s-0.8,0.4-0.8,0.8S31.8,13.1,32.2,13.1z"/>
	<path class="st2" d="M44,7.9c0.5,0,0.8-0.4,0.8-0.8S44.5,6.3,44,6.3s-0.8,0.4-0.8,0.8S43.6,7.9,44,7.9z"/>
	<circle class="st2" cx="72.4" cy="7.1" r="0.8"/>
	<circle class="st2" cx="19.2" cy="36.3" r="0.8"/>
	<circle class="st2" cx="112.8" cy="37.5" r="0.8"/>
	<path class="st2" d="M27.4,24.9c1.5,0,2.8-1.2,2.8-2.8s-1.2-2.8-2.8-2.8s-2.8,1.2-2.8,2.8S25.9,24.9,27.4,24.9z"/>
	<path class="st2" d="M9.1,26.4c1.5,0,2.8-1.2,2.8-2.8s-1.2-2.8-2.8-2.8s-2.8,1.2-2.8,2.8S7.6,26.4,9.1,26.4z"/>
	<path class="st2" d="M54.6,9c1.5,0,2.8-1.2,2.8-2.8c0-1.5-1.2-2.8-2.8-2.8c-1.5,0-2.8,1.2-2.8,2.8C51.8,7.8,53.1,9,54.6,9z"/>
	<path class="st2" d="M90.7,28.5c0,1.5,1.2,2.8,2.8,2.8s2.8-1.2,2.8-2.8c0-1.5-1.2-2.8-2.8-2.8S90.7,26.9,90.7,28.5z"/>
	<path class="st2" d="M41,29.1c-1.3,0-2.4,1.1-2.4,2.4s1.1,2.4,2.4,2.4c1.3,0,2.4-1.1,2.4-2.4S42.4,29.1,41,29.1z"/>
	<path class="st2" d="M61.6,24.9c0,1.3,1.1,2.4,2.4,2.4s2.4-1.1,2.4-2.4c0-1.3-1.1-2.4-2.4-2.4S61.6,23.5,61.6,24.9z"/>
	<circle class="st2" cx="15.2" cy="34.4" r="2.4"/>
	<path class="st5" d="M161,98.1c0-1.8-0.8-3.5-2.1-5.1c-0.7-0.9-1.5-1.6-2.4-2.2c-3.2-2.4-7.9-4.2-13.3-5.1c-0.9-3.4-4-5.9-7.7-5.9
		c-3.7,0-6.8,2.5-7.7,5.9c-5.1,0.8-9.6,2.5-12.7,4.7c-1.7,1-3.1,2.4-4,4.2c-0.5,1-0.9,2-0.9,3.1c-0.1,0.4-0.1,0.8-0.1,1.3
		c0,5.4,4.4,9.8,9.8,9.8h6.7l0.1-0.4h-5.2c-0.1,0-0.1,0-0.2,0h0c-0.8,0-1.6-0.1-2.3-0.2c0,0,0,0,0,0c-0.8-0.1-1.6-0.3-2.3-0.6
		c0,0-0.1,0-0.1-0.1c-0.5-0.2-1-0.4-1.4-0.7l0,0c0,0,0,0,0,0c-0.2-0.1-0.4-0.3-0.7-0.4c0,0,0,0,0,0c-0.2-0.1-0.4-0.3-0.6-0.4
		c0,0,0,0,0,0c-0.2-0.2-0.4-0.3-0.5-0.5c0,0,0,0,0,0c-0.2-0.2-0.3-0.3-0.4-0.5c0,0,0,0,0,0l0,0c-0.1-0.1-0.1-0.2-0.2-0.3h0
		c0,0,0,0,0,0c-0.4-0.6-0.6-1.2-0.7-1.9c0,0,0,0,0,0l0,0c0-0.1,0-0.1,0-0.2c0,0,0,0,0-0.1l0,0c0,0,0,0,0,0c0-1,0.4-1.9,1.2-2.7
		c0,0,0,0,0,0c0.1-0.2,0.3-0.3,0.5-0.5c0,0,0,0,0,0c0.4-0.3,0.8-0.6,1.2-0.9c0,0,0,0,0,0l0,0c0.4-0.3,0.9-0.5,1.4-0.7c0,0,0,0,0,0
		c0.3-0.1,0.7-0.2,1-0.4c0,0,0,0,0.1,0c1.2-0.3,2.5-0.5,3.9-0.5h4.2h1.4h1h0.2h0.3h4.1h0.9h4.1h0.9h4h0.3h0.3h1h0h5.5
		c0.5,0,1.1,0,1.6,0.1l0,0c0,0,0,0,0,0c0.8,0.1,1.6,0.2,2.4,0.5c0,0,0,0,0.1,0c1.5,0.4,2.7,1.1,3.7,1.9c0,0,0,0,0,0
		c0.2,0.1,0.3,0.3,0.5,0.5c0,0,0,0,0,0c0.2,0.3,0.4,0.5,0.6,0.8l0,0c0,0,0,0,0,0c0.4,0.6,0.6,1.2,0.6,1.9c0,0,0,0,0,0h0
		c0,0,0,0,0,0.1c0,0.1,0,0.1,0,0.2l0,0c0,0,0,0,0,0c0,0.7-0.3,1.3-0.6,1.9c0,0,0,0,0,0l0,0c-0.1,0.1-0.1,0.2-0.2,0.3l0,0
		c0,0,0,0,0,0c-0.1,0.2-0.3,0.3-0.4,0.5c0,0,0,0,0,0c-0.2,0.2-0.3,0.3-0.5,0.5c0,0,0,0,0,0c-0.4,0.3-0.8,0.6-1.2,0.8c0,0,0,0,0,0h0
		c-0.1,0.1-0.3,0.2-0.4,0.2h0c0,0,0,0,0,0c-0.3,0.1-0.6,0.3-0.9,0.4c-0.1,0-0.1,0-0.2,0.1c-1.1,0.4-2.2,0.6-3.5,0.8c0,0,0,0,0,0l0,0
		c-0.4,0-0.8,0.1-1.3,0.1h-5.2l0.1,0.4h6.7c5.4,0,9.8-4.4,9.8-9.8C160.9,98.7,160.9,98.4,161,98.1L161,98.1z"/>
	<path class="st2" d="M112.6,104.7c-0.4-0.6-0.6-1.2-0.7-1.9C112,103.5,112.2,104.1,112.6,104.7z"/>
	<path class="st2" d="M113.1,99.8c0.1-0.2,0.3-0.3,0.5-0.5C113.4,99.5,113.2,99.6,113.1,99.8z"/>
	<path class="st2" d="M113.2,105.5c-0.2-0.2-0.3-0.3-0.4-0.5C112.9,105.2,113,105.4,113.2,105.5z"/>
	<path class="st2" d="M113.6,99.3c0.4-0.3,0.8-0.6,1.2-0.9C114.3,98.7,113.9,99,113.6,99.3z"/>
	<path class="st2" d="M114.3,106.4c-0.2-0.1-0.4-0.3-0.6-0.4C113.9,106.2,114.1,106.3,114.3,106.4z"/>
	<path class="st2" d="M113.7,106c-0.2-0.2-0.4-0.3-0.5-0.5C113.4,105.7,113.5,105.9,113.7,106z"/>
	<path class="st2" d="M115,106.9c-0.2-0.1-0.4-0.3-0.7-0.4C114.5,106.6,114.7,106.7,115,106.9z"/>
	<path class="st2" d="M157.3,99.3c0.2,0.1,0.3,0.3,0.5,0.5C157.7,99.6,157.5,99.5,157.3,99.3z"/>
	<path class="st2" d="M118.7,108.2c-0.8-0.1-1.6-0.3-2.3-0.6C117.2,107.8,117.9,108,118.7,108.2z"/>
	<path class="st2" d="M157.2,106c-0.4,0.3-0.8,0.6-1.2,0.8C156.4,106.6,156.8,106.3,157.2,106z"/>
	<path class="st2" d="M155.5,107.1c-0.3,0.1-0.6,0.3-0.9,0.4C154.9,107.4,155.2,107.2,155.5,107.1z"/>
	<path class="st2" d="M154.4,107.6c-1.1,0.4-2.2,0.6-3.5,0.8C152.2,108.2,153.4,107.9,154.4,107.6z"/>
	<path class="st2" d="M157.7,105.5c-0.2,0.2-0.3,0.3-0.5,0.5C157.4,105.8,157.5,105.7,157.7,105.5z"/>
	<path class="st2" d="M158.4,100.6c0.4,0.6,0.6,1.2,0.6,1.9C159,101.9,158.8,101.2,158.4,100.6z"/>
	<path class="st2" d="M158.1,105c-0.1,0.2-0.3,0.3-0.4,0.5C157.9,105.4,158,105.2,158.1,105z"/>
	<path class="st2" d="M159,102.8c0,0.7-0.3,1.3-0.6,1.9C158.7,104.1,158.9,103.5,159,102.8z"/>
	<path class="st2" d="M151.2,96.9c0.8,0.1,1.6,0.2,2.4,0.5C152.9,97.2,152.1,97,151.2,96.9z"/>
	<path class="st2" d="M116.2,97.8c0.3-0.1,0.7-0.2,1-0.4C116.9,97.5,116.6,97.6,116.2,97.8z"/>
	<polygon class="st6" points="128.1,96.9 127.9,96.9 128,97 	"/>
	<path class="st6" d="M143.6,102.5l15.4,0h0c0,0,0,0,0,0c0-0.7-0.2-1.3-0.6-1.9c0,0,0,0,0,0l0,0l-14.9,1.5L143.6,102.5z"/>
	<path class="st6" d="M144,105.7l6.9,2.6l0,0c0,0,0,0,0,0c1.3-0.1,2.5-0.4,3.5-0.8c0.1,0,0.1,0,0.2-0.1c0.3-0.1,0.6-0.3,0.9-0.4
		c0,0,0,0,0,0h0l-11.6-2.4L144,105.7z"/>
	<path class="st6" d="M143.2,99.5l7.1-2.6c-0.2,0-0.4,0-0.6,0h-5.5h0l-1.2,0.8L143.2,99.5z"/>
	<path class="st6" d="M143.7,103.3l14.6,1.4l0,0c0,0,0,0,0,0c0.4-0.6,0.6-1.2,0.6-1.9c0,0,0,0,0,0l0,0l-15.3,0L143.7,103.3z"/>
	<path class="st6" d="M143.3,100l0.1,0.8l12.3-2.6c-0.6-0.3-1.3-0.6-2-0.8c0,0,0,0-0.1,0c-0.7-0.2-1.5-0.4-2.4-0.5c0,0,0,0,0,0l0,0
		L143.3,100z"/>
	<path class="st6" d="M143.4,101.2l0.1,0.5l14.7-1.4c-0.1-0.2-0.3-0.3-0.4-0.5c0,0,0,0,0,0c-0.1-0.2-0.3-0.3-0.5-0.5c0,0,0,0,0,0
		c-0.3-0.3-0.7-0.6-1.2-0.9L143.4,101.2z"/>
	<path class="st6" d="M127.1,103.7l-14.4,1.4l0,0c0,0,0,0,0,0c0.1,0.2,0.3,0.3,0.4,0.5c0,0,0,0,0,0c0.2,0.2,0.3,0.3,0.5,0.5
		c0,0,0,0,0,0c0.2,0.2,0.4,0.3,0.6,0.4c0,0,0,0,0,0c0.2,0.1,0.4,0.3,0.7,0.4c0,0,0,0,0,0l0,0l12.1-2.6L127.1,103.7z"/>
	<path class="st6" d="M121.1,108.4L121.1,108.4c0.1,0,0.1,0,0.2,0h5.2l0.3-2.1L121.1,108.4z"/>
	<path class="st6" d="M143.8,104.2l12.1,2.6h0c0,0,0,0,0,0c0.5-0.3,0.9-0.5,1.2-0.8c0,0,0,0,0,0c0.2-0.2,0.3-0.3,0.5-0.5
		c0,0,0,0,0,0c0.2-0.2,0.3-0.3,0.4-0.5c0,0,0,0,0,0l0,0l-14.4-1.4L143.8,104.2z"/>
	<polygon class="st6" points="143.1,96.9 142.8,96.9 142.9,97 	"/>
	<path class="st6" d="M144.1,106.2l0.3,2.2h5.2c0.1,0,0.2,0,0.3,0L144.1,106.2z"/>
	<path class="st6" d="M127.2,102.9l-15.3,0l0,0c0,0,0,0,0,0c0,0.7,0.3,1.3,0.7,1.9c0,0,0,0,0,0h0l14.6-1.4L127.2,102.9z"/>
	<path class="st6" d="M127.7,99.5l0.3-1.8l-1.1-0.8h-1.4h-4.2c-0.2,0-0.4,0-0.5,0L127.7,99.5z"/>
	<path class="st6" d="M115.2,98.2l12.3,2.6l0.1-0.8l-7.9-3c-0.9,0.1-1.7,0.2-2.4,0.5c0,0,0,0-0.1,0c-0.4,0.1-0.7,0.2-1,0.4
		c0,0,0,0,0,0C115.8,97.9,115.5,98.1,115.2,98.2z"/>
	<path class="st6" d="M126.9,105.7l0.1-1l-11.6,2.4c0.3,0.2,0.6,0.3,1,0.4c0,0,0.1,0,0.1,0.1c0.7,0.3,1.5,0.5,2.3,0.6c0,0,0,0,0,0
		c0.4,0.1,0.8,0.1,1.3,0.2L126.9,105.7z"/>
	<path class="st6" d="M127.4,101.7l0.1-0.5l-12.7-2.7l0,0c0,0,0,0,0,0c-0.4,0.3-0.8,0.5-1.2,0.9c0,0,0,0,0,0
		c-0.2,0.1-0.3,0.3-0.5,0.5c0,0,0,0,0,0c-0.2,0.2-0.3,0.3-0.4,0.5L127.4,101.7z"/>
	<path class="st6" d="M127.3,102.1l-14.8-1.5c-0.4,0.6-0.6,1.3-0.6,1.9c0,0,0,0,0,0l0,0l15.4,0L127.3,102.1z"/>
	<path class="st3" d="M151.8,164.6l-6.5-47.5c-0.3,1.2-0.9,2-1.7,2c-0.7,0-1.4-0.8-1.6-1.9c-0.3,1.1-0.9,1.9-1.6,1.9
		c-0.7,0-1.4-0.8-1.7-2c-0.3,1.1-0.9,2-1.7,2c-0.7,0-1.4-0.8-1.6-1.9c-0.3,1.1-0.9,1.9-1.6,1.9c-0.7,0-1.4-0.8-1.6-1.9
		c-0.3,1.1-0.9,1.9-1.6,1.9c-0.7,0-1.4-0.8-1.6-1.9c-0.3,1.1-0.9,1.9-1.6,1.9c-0.7,0-1.4-0.8-1.7-2l-6.5,47.5H151.8z"/>
	<path class="st3" d="M125.7,116.3c0,1.5,0.7,2.8,1.5,2.8c0.8,0,1.5-1.3,1.5-2.9h0.3c0,1.6,0.7,2.9,1.5,2.9s1.5-1.3,1.5-2.9h0.3
		c0,1.6,0.7,2.9,1.5,2.9s1.5-1.3,1.5-2.9h0.3c0,1.6,0.7,2.9,1.5,2.9c0.8,0,1.5-1.3,1.5-2.9h0.3c0,1.6,0.7,2.9,1.5,2.9
		c0.8,0,1.5-1.3,1.5-2.9c0,0,0,0,0,0h0.3c0,0,0,0,0,0c0,1.6,0.7,2.9,1.5,2.9c0.8,0,1.5-1.3,1.5-2.9l-2.7-19.4h-4h-0.9h-4.1h-0.9
		h-4.1L125.7,116.3z"/>
	<path class="st2" d="M144.1,105.9l5.8,2.2c-0.1,0-0.2,0-0.3,0c0.4,0,0.9,0,1.3-0.1l-6.9-2.6l-0.1-1l11.6,2.4
		c0.2-0.1,0.3-0.2,0.4-0.2l-12.1-2.6l-0.1-0.6l14.4,1.4c0.1-0.1,0.1-0.2,0.2-0.3l-14.6-1.4l-0.1-0.4l15.3,0c0-0.1,0-0.1,0-0.2
		c0,0,0,0,0-0.1l-15.4,0l-0.1-0.4l14.9-1.5c-0.2-0.3-0.4-0.5-0.6-0.8c0.1,0.2,0.3,0.3,0.4,0.5l-14.7,1.4l-0.1-0.5l12.7-2.7
		c0.4,0.3,0.8,0.5,1.2,0.9c-0.9-0.8-2.2-1.5-3.7-1.9c0.7,0.2,1.4,0.5,2,0.8l-12.3,2.6l-0.1-0.8l8-3.1c-0.5-0.1-1-0.1-1.6-0.1
		c0.2,0,0.4,0,0.6,0l-7.1,2.6l-0.2-1.8l1.2-0.8h-1l-0.3,0.2l0-0.2h-0.3l2.7,19.4c0,1.6-0.7,2.9-1.5,2.9c-0.8,0-1.5-1.3-1.5-2.9
		c0,0,0,0,0,0h-0.3c0,0,0,0,0,0c0,1.6-0.7,2.9-1.5,2.9c-0.8,0-1.5-1.3-1.5-2.9h-0.3c0,1.6-0.7,2.9-1.5,2.9c-0.8,0-1.5-1.3-1.5-2.9
		h-0.3c0,1.6-0.7,2.9-1.5,2.9s-1.5-1.3-1.5-2.9H132c0,1.6-0.7,2.9-1.5,2.9s-1.5-1.3-1.5-2.9h-0.3c0,1.6-0.7,2.9-1.5,2.9
		c-0.8,0-1.5-1.3-1.5-2.8l2.7-19.5h-0.3l0,0.1l-0.2-0.1h-1l1.1,0.8l-0.3,1.8l-7-2.6c0.2,0,0.3,0,0.5,0c-1.4,0-2.7,0.2-3.9,0.5
		c0.8-0.2,1.6-0.4,2.4-0.5l7.9,3l-0.1,0.8l-12.3-2.6c0.3-0.2,0.6-0.3,1-0.5c-0.5,0.2-1,0.4-1.4,0.7l12.7,2.7l-0.1,0.5l-14.7-1.4
		c0.1-0.2,0.3-0.3,0.4-0.5c-0.7,0.8-1.1,1.7-1.2,2.7c0-0.7,0.2-1.3,0.6-1.9l14.8,1.5l-0.1,0.4l-15.4,0c0,0,0,0,0,0.1
		c0,0.1,0,0.1,0,0.2l15.3,0l-0.1,0.4l-14.6,1.4c0.1,0.1,0.1,0.2,0.2,0.3l14.4-1.4L127,104l-12.1,2.6c0.4,0.2,0.9,0.5,1.4,0.7
		c-0.3-0.1-0.7-0.3-1-0.4l11.6-2.4l-0.1,1L120,108c-0.4,0-0.8-0.1-1.3-0.2c0.7,0.1,1.5,0.2,2.3,0.2l5.7-2.1l-0.3,2.1l-0.1,0.4
		l-7.7,56.2l0,0.3h0.3h32.8h0.3l0-0.3l-7.7-56.2l-0.1-0.4L144.1,105.9z M127.2,119.1c0.7,0,1.4-0.8,1.6-1.9c0.3,1.1,0.9,1.9,1.6,1.9
		c0.7,0,1.4-0.8,1.6-1.9c0.3,1.1,0.9,1.9,1.6,1.9c0.7,0,1.4-0.8,1.6-1.9c0.3,1.1,0.9,1.9,1.6,1.9c0.7,0,1.4-0.8,1.7-2
		c0.3,1.1,0.9,2,1.7,2c0.7,0,1.4-0.8,1.6-1.9c0.3,1.1,0.9,1.9,1.6,1.9c0.8,0,1.4-0.8,1.7-2l6.5,47.5h-32.8l6.5-47.5
		C125.8,118.3,126.5,119.1,127.2,119.1z"/>
</g>
</svg>
