<?xml version="1.0" encoding="utf-8"?>
<!-- Generator: Adobe Illustrator 25.4.1, SVG Export Plug-In . SVG Version: 6.00 Build 0)  -->
<svg version="1.1" id="Ebene_1" xmlns="http://www.w3.org/2000/svg" xmlns:xlink="http://www.w3.org/1999/xlink" x="0px" y="0px"
	 viewBox="0 0 181.3 230.5" style="enable-background:new 0 0 181.3 230.5;" xml:space="preserve">
<style type="text/css">
	.st0{fill:#CE122F;}
	.st1{fill:#3E6933;}
	.st2{fill:#FFD246;}
	.st3{fill:#FFFFFF;}
</style>
<g>
	<g>
		<path class="st0" d="M135.1,15.4L135.1,15.4c-2.2-0.1-4.2,0-7.4-1c-2.2-0.7-3.9-1.2-5.8-2.6c-0.3-0.2-0.4-0.4-0.6-0.6
			c-0.2-0.3-0.4-0.5-0.7-0.8c0,0,0,0,0,0c-5.2-5.3-16.9-9-30.5-9c-13.6,0-25.3,3.7-30.5,9c-0.3,0.3-0.7,0.7-1.5,1.3
			c-1.8,1.5-3.6,2-5.8,2.6c-1.8,0.5-3.1,0.8-4.3,0.9h-0.6c-0.5,0-0.9,0-1.4,0c-0.2,0-0.5,0-0.7,0l0,0.1c-24.4,1.1-44,21.4-44,46v4.8
			C1.5,74,8,80.5,15.8,80.5H64l0.2-1.1H23.2c-1,0.1-2.1,0.2-3.2,0.2c-8.8,0-16-4.1-16-9.2c0-4.4,5.4-8.1,12.7-9
			c0.8-0.3,1.6-0.4,2.5-0.4h140.9c0.7,0,1.4,0.1,2,0.3c8.1,0.5,14.4,4.4,14.4,9.2c0,0.5-0.1,0.9-0.2,1.4h-0.9v0.9h0.6
			c-1.7,4-8,7-15.5,7c-1.1,0-2.2-0.1-3.2-0.2h-40.5l0.1,1.1h47.5c7.9,0,14.4-6.5,14.4-14.4v-3.8C178.9,37.5,159.5,17.1,135.1,15.4z"
			/>
	</g>
	<g>
		<path class="st1" d="M114.6,60.9l2.3,18.5h40.5c1,0.1,2.1,0.2,3.2,0.2c7.5,0,13.7-3,15.5-7h-0.6v-0.9h0.9c0.1-0.5,0.2-0.9,0.2-1.4
			c0-4.8-6.3-8.7-14.4-9.2c-0.6-0.2-1.3-0.3-2-0.3H19.2c-0.9,0-1.7,0.2-2.5,0.4C9.5,62.2,4,65.9,4,70.3c0,5.1,7.2,9.2,16,9.2
			c1.1,0,2.2-0.1,3.2-0.2h40.9l2.4-18.5H114.6z"/>
	</g>
	<g>
		<path class="st2" d="M114.6,60.9h-48l-2.4,18.5L64,80.5l-4.7,35.7c-0.4,0.2-0.5,1.8-2.3,3.6c-1.2,1.2-2.4,1.7-2.7,1.8
			c-1.1,0.4-1.7,0.6-3.5,0.5l2.7,1.3c0.9,0.4,2.6,1.3,4.5,1.2c0.1,0,0.1,0,0.2,0L41.3,229h97.2l-16-104.5c1.8,0.1,3.6-0.8,4.4-1.2
			l2.6-1.3c-1.8,0.1-2.4-0.1-3.4-0.5c-0.3-0.1-1.4-0.6-2.6-1.8c-1.4-1.5-1.7-2.9-2-3.4L117,80.5l-0.1-1.1L114.6,60.9z"/>
	</g>
</g>
<g>
	<path class="st3" d="M138.4,230.5H41.3c-0.4,0-0.9-0.2-1.1-0.5c-0.3-0.3-0.4-0.8-0.3-1.2L56.4,126c-1.4-0.2-2.5-0.7-3.2-1.1
		l-0.3-0.1l-2.8-1.3c-0.6-0.3-1-1-0.8-1.7c0.2-0.7,0.8-1.2,1.5-1.1c1.7,0.1,2-0.1,2.9-0.4c0.3-0.1,1.2-0.5,2.2-1.5
		c0.9-0.9,1.3-1.7,1.5-2.4c0.1-0.3,0.2-0.5,0.4-0.8L62.3,82H15.8C7.1,82,0,74.9,0,66.1v-4.8C0,36,19.8,15.2,45.1,13.9
		c0.2-0.1,0.3-0.1,0.5-0.1c0.2,0,0.4,0,0.6,0l0.3,0c0.3,0,0.7,0,1,0h0.6c1.2-0.1,2.4-0.3,3.9-0.8c2.1-0.6,3.7-1.1,5.2-2.4
		c0.4-0.3,0.7-0.6,0.9-0.8c0.2-0.2,0.3-0.3,0.5-0.4C64.3,3.7,76.7,0,90.2,0c13.6,0,25.9,3.7,31.5,9.5c0.3,0.3,0.5,0.5,0.7,0.8
		c0.1,0.1,0.3,0.3,0.4,0.4c1.6,1.3,3.1,1.7,5.2,2.4c2.6,0.8,4.3,0.8,6.1,0.8l0.9,0c0.2,0,0.3,0,0.4,0.1
		c25.1,1.9,44.8,23.1,44.8,48.4v3.8c0,8.7-7.1,15.9-15.9,15.9h-45.8l4.2,33.8c0.1,0.1,0.1,0.3,0.2,0.4c0.3,0.6,0.6,1.4,1.5,2.4
		c0.9,0.9,1.7,1.3,2.1,1.5c0.9,0.3,1.2,0.5,2.8,0.4c0.7,0,1.3,0.4,1.5,1.1c0.2,0.7-0.1,1.4-0.8,1.7l-2.9,1.4
		c-0.7,0.3-1.8,0.8-3.1,1.1l15.7,102.9c0.1,0.4-0.1,0.9-0.3,1.2C139.3,230.3,138.9,230.5,138.4,230.5z M43,227.5h93.7L121,124.7
		c-0.1-0.4,0.1-0.9,0.4-1.2c0.3-0.3,0.7-0.5,1.2-0.5c0.8,0,1.6-0.2,2.3-0.4c-0.7-0.4-1.5-0.9-2.4-1.9c-1.3-1.3-1.8-2.5-2.1-3.3
		c-0.1-0.1-0.1-0.3-0.2-0.4c-0.1-0.2-0.2-0.4-0.2-0.6l-4.4-35.8c-0.1-0.4,0.1-0.9,0.4-1.2s0.7-0.5,1.1-0.5h47.5
		c7.1,0,12.9-5.8,12.9-12.9v-3.8c0-23.8-18.6-43.8-42.4-45.4c-0.1,0-0.2,0-0.3-0.1l-0.5,0c-1.9,0-3.9-0.1-6.9-1
		c-2.3-0.7-4.2-1.3-6.3-2.9c-0.3-0.2-0.5-0.5-0.7-0.7c0,0-0.1-0.1-0.1-0.1c-0.2-0.2-0.4-0.5-0.6-0.7C114.5,6.4,103,3,90.2,3
		c-12.8,0-24.3,3.4-29.4,8.6c0,0-0.1,0.1-0.2,0.1c-0.1,0.1-0.2,0.2-0.4,0.3c-0.3,0.3-0.6,0.6-1.1,1c-2.1,1.6-4,2.2-6.3,2.9
		c-1.7,0.5-3.2,0.8-4.6,0.9c0,0-0.1,0-0.1,0h-0.6c-0.3,0-0.6,0-0.9,0l-0.4,0c0,0-0.1,0-0.1,0c-0.1,0-0.2,0-0.3,0c-0.1,0-0.2,0-0.2,0
		C21.7,17.9,3,37.5,3,61.4v4.8C3,73.2,8.8,79,15.8,79H64c0.4,0,0.8,0.2,1.1,0.5c0.3,0.3,0.4,0.8,0.4,1.2l-4.7,35.7
		c0,0.3-0.2,0.6-0.4,0.9c0,0.1-0.1,0.2-0.1,0.3c-0.3,0.7-0.9,2-2.2,3.3c-0.9,0.9-1.8,1.5-2.5,1.8c0.7,0.3,1.5,0.5,2.4,0.4
		c0.5-0.1,1,0.1,1.3,0.4c0.3,0.3,0.5,0.8,0.5,1.3L43,227.5z M60,117.5C60,117.5,60,117.5,60,117.5C60,117.5,60,117.5,60,117.5z"/>
</g>
</svg>
