<?xml version="1.0" encoding="utf-8"?>
<!-- Generator: Adobe Illustrator 25.4.1, SVG Export Plug-In . SVG Version: 6.00 Build 0)  -->
<svg version="1.1" id="Ebene_1" xmlns="http://www.w3.org/2000/svg" xmlns:xlink="http://www.w3.org/1999/xlink" x="0px" y="0px"
	 viewBox="0 0 22.7 27.1" style="enable-background:new 0 0 22.7 27.1;" xml:space="preserve">
<style type="text/css">
	.st0{fill:#350D24;}
	.st1{fill:#4464AD;}
	.st2{fill:#D0182E;}
</style>
<rect x="1.4" y="5.7" class="st0" width="19.9" height="6.1"/>
<path class="st1" d="M19.5,13.6H3.2c-1,0-1.8-0.8-1.8-1.8v0c0-1,0.8-1.8,1.8-1.8h16.2c1,0,1.8,0.8,1.8,1.8v0
	C21.3,12.8,20.5,13.6,19.5,13.6z"/>
<polygon class="st2" points="17.9,27.1 4.8,27.1 7.8,10 15,10 "/>
<polygon class="st0" points="1.4,0 1.4,5.8 7.6,5.8 "/>
<polygon class="st0" points="21.3,0 21.3,5.8 15.1,5.8 "/>
<polygon class="st0" points="11.3,0.2 13.3,3 15.3,5.7 11.3,5.7 7.4,5.7 9.4,3 "/>
</svg>
