<?xml version="1.0" encoding="utf-8"?>
<!-- Generator: Adobe Illustrator 25.4.1, SVG Export Plug-In . SVG Version: 6.00 Build 0)  -->
<svg version="1.1" id="Ebene_1" xmlns="http://www.w3.org/2000/svg" xmlns:xlink="http://www.w3.org/1999/xlink" x="0px" y="0px"
	 viewBox="0 0 22.7 27.1" style="enable-background:new 0 0 22.7 27.1;" xml:space="preserve">
<style type="text/css">
	.st0{fill:#FDD245;}
	.st1{fill:#D0182E;}
	.st2{fill:#3E6933;}
	.st3{fill:#FFFFFF;}
</style>
<path class="st0" d="M16.5,2.5H6c-2.6,0-4.8,2.1-4.8,4.8v0.3h20V7.3C21.2,4.7,19.1,2.5,16.5,2.5z"/>
<path class="st1" d="M18.7,10.1H3.7c-1.4,0-2.5-1.1-2.5-2.5v0C1.2,6.2,2.4,5,3.7,5h14.9c1.4,0,2.5,1.1,2.5,2.5v0
	C21.2,9,20.1,10.1,18.7,10.1z"/>
<path class="st0" d="M15.6,2.7c0-1.4-2-2.5-4.4-2.5c-2.4,0-4.4,1.1-4.4,2.5H15.6z"/>
<g>
	<polygon class="st2" points="8,13.6 9.3,13 10.6,13.6 11.8,13 13.1,13.6 14.4,13 15.6,13.6 16.4,13.2 14.6,5 7.6,5 5.8,13.4 
		6.8,13 	"/>
	<polygon class="st2" points="19.5,27.1 16.5,13.7 15.6,14.1 14.4,13.5 13.1,14.1 11.8,13.5 10.6,14.1 9.3,13.5 8,14.1 6.8,13.5 
		5.7,14 2.9,27.1 	"/>
	<polygon class="st3" points="8,14.1 9.3,13.5 10.6,14.1 11.8,13.5 13.1,14.1 14.4,13.5 15.6,14.1 16.5,13.7 16.4,13.2 15.6,13.6 
		14.4,13 13.1,13.6 11.8,13 10.6,13.6 9.3,13 8,13.6 6.8,13 5.8,13.4 5.7,14 6.8,13.5 	"/>
</g>
</svg>
