<?xml version="1.0" encoding="utf-8"?>
<!-- Generator: Adobe Illustrator 25.4.1, SVG Export Plug-In . SVG Version: 6.00 Build 0)  -->
<svg version="1.1" id="Ebene_1" xmlns="http://www.w3.org/2000/svg" xmlns:xlink="http://www.w3.org/1999/xlink" x="0px" y="0px"
	 viewBox="0 0 22.7 27.1" style="enable-background:new 0 0 22.7 27.1;" xml:space="preserve">
<style type="text/css">
	.st0{fill:#3E6933;}
	.st1{fill:#FDD245;}
	.st2{fill:#4464AD;}
	.st3{fill:#FFFFFF;}
</style>
<path class="st0" d="M11.3,0.2c-6,0-10.8,3.2-10.8,7.2c0,0.5,0.1,1.1,0.3,1.6h21.1c0.2-0.5,0.3-1,0.3-1.6
	C22.2,3.4,17.3,0.2,11.3,0.2z"/>
<path class="st1" d="M20.1,6.4H2.5c-1,0-1.9,0.8-1.9,1.9v0.1c0,1,0.8,1.9,1.9,1.9h17.6c1,0,1.9-0.8,1.9-1.9V8.2
	C22,7.2,21.1,6.4,20.1,6.4z"/>
<g>
	<path class="st2" d="M15.3,13.6c-0.3,0-0.4,0.1-0.6,0.2c-0.2,0.1-0.4,0.3-0.9,0.3c-0.5,0-0.7-0.2-0.9-0.3c-0.2-0.1-0.3-0.2-0.6-0.2
		c-0.3,0-0.4,0.1-0.6,0.2c-0.2,0.1-0.4,0.3-0.9,0.3s-0.7-0.2-0.9-0.3c-0.2-0.1-0.3-0.2-0.6-0.2c-0.3,0-0.4,0.1-0.6,0.2
		c-0.2,0.1-0.4,0.3-0.9,0.3c-0.3,0-0.6-0.1-0.7-0.2L5.3,27.1h12.5l-1.7-13.2c-0.1,0-0.1-0.1-0.2-0.1C15.8,13.7,15.6,13.6,15.3,13.6z
		"/>
	<path class="st2" d="M7.7,13.7c0.3,0,0.4-0.1,0.6-0.2c0.2-0.1,0.4-0.3,0.9-0.3s0.7,0.2,0.9,0.3c0.2,0.1,0.3,0.2,0.6,0.2
		c0.3,0,0.4-0.1,0.6-0.2c0.2-0.1,0.4-0.3,0.9-0.3s0.7,0.2,0.9,0.3c0.2,0.1,0.3,0.2,0.6,0.2s0.4-0.1,0.6-0.2c0.2-0.1,0.4-0.3,0.9-0.3
		c0.3,0,0.5,0.1,0.7,0.2l-0.9-6.9H8l-0.9,7c0,0,0,0,0.1,0C7.3,13.5,7.4,13.7,7.7,13.7z"/>
	<path class="st3" d="M15.3,13.1c-0.5,0-0.7,0.2-0.9,0.3c-0.2,0.1-0.3,0.2-0.6,0.2s-0.4-0.1-0.6-0.2c-0.2-0.1-0.4-0.3-0.9-0.3
		s-0.7,0.2-0.9,0.3c-0.2,0.1-0.3,0.2-0.6,0.2c-0.3,0-0.4-0.1-0.6-0.2c-0.2-0.1-0.4-0.3-0.9-0.3s-0.7,0.2-0.9,0.3
		c-0.2,0.1-0.3,0.2-0.6,0.2c-0.3,0-0.4-0.1-0.6-0.2c0,0,0,0-0.1,0L7,13.9c0.2,0.1,0.4,0.2,0.7,0.2c0.5,0,0.7-0.2,0.9-0.3
		c0.2-0.1,0.3-0.2,0.6-0.2c0.3,0,0.4,0.1,0.6,0.2c0.2,0.1,0.4,0.3,0.9,0.3s0.7-0.2,0.9-0.3c0.2-0.1,0.3-0.2,0.6-0.2
		c0.3,0,0.4,0.1,0.6,0.2c0.2,0.1,0.4,0.3,0.9,0.3c0.5,0,0.7-0.2,0.9-0.3c0.2-0.1,0.3-0.2,0.6-0.2s0.4,0.1,0.6,0.2
		c0.1,0,0.1,0.1,0.2,0.1l-0.1-0.7C15.9,13.2,15.7,13.1,15.3,13.1z"/>
</g>
</svg>
