<?xml version="1.0" encoding="utf-8"?>
<!-- Generator: Adobe Illustrator 25.4.1, SVG Export Plug-In . SVG Version: 6.00 Build 0)  -->
<svg version="1.1" id="Ebene_1" xmlns="http://www.w3.org/2000/svg" xmlns:xlink="http://www.w3.org/1999/xlink" x="0px" y="0px"
	 viewBox="0 0 22.7 27.1" style="enable-background:new 0 0 22.7 27.1;" xml:space="preserve">
<style type="text/css">
	.st0{fill:#350D24;}
	.st1{fill:#3E6933;}
	.st2{fill:#FDD245;}
	.st3{fill:#FFFFFF;}
</style>
<path class="st0" d="M16.7,0.5H6c-2.5,0-4.6,2.1-4.6,4.6v4.6h19.9V5.1C21.3,2.6,19.2,0.5,16.7,0.5z"/>
<path class="st1" d="M18.2,12.8H4.5c-1.7,0-3.1-1.4-3.1-3.1v0c0-1.7,1.4-3.1,3.1-3.1h13.7c1.7,0,3.1,1.4,3.1,3.1v0
	C21.3,11.4,19.9,12.8,18.2,12.8z"/>
<g>
	<path class="st2" d="M15.1,14.6c-0.3,0-0.4,0.1-0.6,0.2c-0.2,0.1-0.4,0.3-0.9,0.3c-0.5,0-0.7-0.2-0.9-0.3c-0.2-0.1-0.3-0.2-0.6-0.2
		s-0.4,0.1-0.6,0.2c-0.2,0.1-0.4,0.3-0.9,0.3S9.9,15,9.7,14.8c-0.2-0.1-0.3-0.2-0.6-0.2c-0.3,0-0.4,0.1-0.6,0.2
		C8.2,15,8,15.2,7.5,15.2c-0.4,0-0.7-0.2-0.9-0.3L5,27.1h12.5L16,15c-0.1-0.1-0.2-0.1-0.3-0.2C15.6,14.7,15.4,14.6,15.1,14.6z"/>
	<path class="st2" d="M7.5,14.7c0.3,0,0.4-0.1,0.6-0.2c0.2-0.1,0.4-0.3,0.9-0.3s0.7,0.2,0.9,0.3c0.2,0.1,0.3,0.2,0.6,0.2
		c0.3,0,0.4-0.1,0.6-0.2c0.2-0.1,0.4-0.3,0.9-0.3c0.5,0,0.7,0.2,0.9,0.3c0.2,0.1,0.3,0.2,0.6,0.2c0.3,0,0.4-0.1,0.6-0.2
		c0.2-0.1,0.4-0.3,0.9-0.3c0.4,0,0.6,0.1,0.8,0.2l-1-7.7H7.7l-1,7.7c0.1,0,0.1,0.1,0.2,0.1C7.1,14.5,7.2,14.7,7.5,14.7z"/>
	<path class="st3" d="M15.1,14.1c-0.5,0-0.7,0.2-0.9,0.3c-0.2,0.1-0.3,0.2-0.6,0.2c-0.3,0-0.4-0.1-0.6-0.2c-0.2-0.1-0.4-0.3-0.9-0.3
		c-0.5,0-0.7,0.2-0.9,0.3c-0.2,0.1-0.3,0.2-0.6,0.2c-0.3,0-0.4-0.1-0.6-0.2c-0.2-0.1-0.4-0.3-0.9-0.3s-0.7,0.2-0.9,0.3
		c-0.2,0.1-0.3,0.2-0.6,0.2c-0.3,0-0.4-0.1-0.6-0.2c-0.1,0-0.1-0.1-0.2-0.1l-0.1,0.6c0.2,0.1,0.4,0.3,0.9,0.3c0.5,0,0.7-0.2,0.9-0.3
		c0.2-0.1,0.3-0.2,0.6-0.2c0.3,0,0.4,0.1,0.6,0.2c0.2,0.1,0.4,0.3,0.9,0.3s0.7-0.2,0.9-0.3c0.2-0.1,0.3-0.2,0.6-0.2s0.4,0.1,0.6,0.2
		c0.2,0.1,0.4,0.3,0.9,0.3c0.5,0,0.7-0.2,0.9-0.3c0.2-0.1,0.3-0.2,0.6-0.2c0.3,0,0.4,0.1,0.6,0.2c0.1,0.1,0.2,0.1,0.3,0.2l-0.1-0.7
		C15.7,14.2,15.5,14.1,15.1,14.1z"/>
</g>
</svg>
