<?xml version="1.0" encoding="utf-8"?>
<!-- Generator: Adobe Illustrator 25.4.1, SVG Export Plug-In . SVG Version: 6.00 Build 0)  -->
<svg version="1.1" id="Ebene_1" xmlns="http://www.w3.org/2000/svg" xmlns:xlink="http://www.w3.org/1999/xlink" x="0px" y="0px"
	 viewBox="0 0 22.7 27.1" style="enable-background:new 0 0 22.7 27.1;" xml:space="preserve">
<style type="text/css">
	.st0{fill:#3E6933;}
	.st1{fill:#D0182E;}
	.st2{fill:#350D24;}
	.st3{fill:#FFFFFF;}
</style>
<path class="st0" d="M18.5,5.5H3.8c-1.5,0-2.6,1.2-2.6,2.6V10h20V8.2C21.1,6.7,19.9,5.5,18.5,5.5z"/>
<path class="st1" d="M18.6,12.2H3.7c-1.4,0-2.5-1.1-2.5-2.5v0c0-1.4,1.1-2.5,2.5-2.5h14.9c1.4,0,2.5,1.1,2.5,2.5v0
	C21.1,11.1,20,12.2,18.6,12.2z"/>
<polygon class="st0" points="11.1,0.1 15.4,3 19.7,5.8 11.1,5.8 2.6,5.8 6.9,3 "/>
<g>
	<path class="st2" d="M6.4,15c0.2,0.1,0.3,0.2,0.6,0.2c0.3,0,0.4-0.1,0.6-0.2c0.2-0.1,0.4-0.3,0.9-0.3s0.7,0.2,0.9,0.3
		c0.2,0.1,0.3,0.2,0.6,0.2c0.3,0,0.4-0.1,0.6-0.2c0.2-0.1,0.4-0.3,0.9-0.3c0.5,0,0.7,0.2,0.9,0.3c0.2,0.1,0.3,0.2,0.6,0.2
		c0.3,0,0.4-0.1,0.6-0.2c0.2-0.1,0.4-0.3,0.9-0.3s0.7,0.2,0.9,0.3c0.2,0.1,0.3,0.2,0.6,0.2s0.4-0.1,0.6-0.2c0.1-0.1,0.2-0.2,0.3-0.2
		l-2.5-7.6H7.4l-2.2,7.6c0.1,0,0.2,0,0.3,0C6,14.7,6.2,14.9,6.4,15z"/>
	<path class="st2" d="M6.4,16.5c0.2,0.1,0.3,0.2,0.6,0.2c0.3,0,0.4-0.1,0.6-0.2c0.2-0.1,0.4-0.3,0.9-0.3s0.7,0.2,0.9,0.3
		c0.2,0.1,0.3,0.2,0.6,0.2c0.3,0,0.4-0.1,0.6-0.2c0.2-0.1,0.4-0.3,0.9-0.3c0.5,0,0.7,0.2,0.9,0.3c0.2,0.1,0.3,0.2,0.6,0.2
		c0.3,0,0.4-0.1,0.6-0.2c0.2-0.1,0.4-0.3,0.9-0.3s0.7,0.2,0.9,0.3c0.2,0.1,0.3,0.2,0.6,0.2s0.4-0.1,0.6-0.2c0.2-0.1,0.4-0.3,0.8-0.3
		l-0.3-0.9c-0.1,0-0.1,0.1-0.2,0.1c-0.2,0.1-0.4,0.3-0.9,0.3c-0.5,0-0.7-0.2-0.9-0.3c-0.2-0.1-0.3-0.2-0.6-0.2s-0.4,0.1-0.6,0.2
		c-0.2,0.1-0.4,0.3-0.9,0.3c-0.5,0-0.7-0.2-0.9-0.3c-0.2-0.1-0.3-0.2-0.6-0.2s-0.4,0.1-0.6,0.2c-0.2,0.1-0.4,0.3-0.9,0.3
		s-0.7-0.2-0.9-0.3c-0.2-0.1-0.3-0.2-0.6-0.2c-0.3,0-0.4,0.1-0.6,0.2c-0.2,0.1-0.4,0.3-0.9,0.3s-0.7-0.2-0.9-0.3
		c-0.2-0.1-0.3-0.2-0.6-0.2c-0.2,0-0.3,0-0.4,0.1l-0.3,1.1c0.2-0.1,0.4-0.2,0.8-0.2C6,16.2,6.2,16.4,6.4,16.5z"/>
	<path class="st2" d="M21.1,27.1l-3.4-10.4c0,0,0,0,0,0c-0.3,0-0.4,0.1-0.6,0.2c-0.2,0.1-0.4,0.3-0.9,0.3c-0.5,0-0.7-0.2-0.9-0.3
		c-0.2-0.1-0.3-0.2-0.6-0.2s-0.4,0.1-0.6,0.2c-0.2,0.1-0.4,0.3-0.9,0.3c-0.5,0-0.7-0.2-0.9-0.3c-0.2-0.1-0.3-0.2-0.6-0.2
		s-0.4,0.1-0.6,0.2c-0.2,0.1-0.4,0.3-0.9,0.3s-0.7-0.2-0.9-0.3c-0.2-0.1-0.3-0.2-0.6-0.2c-0.3,0-0.4,0.1-0.6,0.2
		c-0.2,0.1-0.4,0.3-0.9,0.3s-0.7-0.2-0.9-0.3c-0.2-0.1-0.3-0.2-0.6-0.2s-0.4,0.1-0.6,0.2c-0.1,0.1-0.2,0.2-0.4,0.2l-2.9,9.9H21.1z"
		/>
	<path class="st3" d="M6.1,15.4c0.2,0.1,0.4,0.3,0.9,0.3s0.7-0.2,0.9-0.3c0.2-0.1,0.3-0.2,0.6-0.2c0.3,0,0.4,0.1,0.6,0.2
		c0.2,0.1,0.4,0.3,0.9,0.3s0.7-0.2,0.9-0.3c0.2-0.1,0.3-0.2,0.6-0.2s0.4,0.1,0.6,0.2c0.2,0.1,0.4,0.3,0.9,0.3c0.5,0,0.7-0.2,0.9-0.3
		c0.2-0.1,0.3-0.2,0.6-0.2s0.4,0.1,0.6,0.2c0.2,0.1,0.4,0.3,0.9,0.3c0.5,0,0.7-0.2,0.9-0.3c0.1-0.1,0.1-0.1,0.2-0.1l-0.2-0.5
		C17,14.9,16.9,15,16.8,15c-0.2,0.1-0.3,0.2-0.6,0.2s-0.4-0.1-0.6-0.2c-0.2-0.1-0.4-0.3-0.9-0.3s-0.7,0.2-0.9,0.3
		c-0.2,0.1-0.3,0.2-0.6,0.2c-0.3,0-0.4-0.1-0.6-0.2c-0.2-0.1-0.4-0.3-0.9-0.3c-0.5,0-0.7,0.2-0.9,0.3c-0.2,0.1-0.3,0.2-0.6,0.2
		c-0.3,0-0.4-0.1-0.6-0.2c-0.2-0.1-0.4-0.3-0.9-0.3S7.8,14.9,7.6,15c-0.2,0.1-0.3,0.2-0.6,0.2c-0.3,0-0.4-0.1-0.6-0.2
		c-0.2-0.1-0.4-0.3-0.9-0.3c-0.1,0-0.2,0-0.3,0l-0.2,0.6c0.1-0.1,0.2-0.1,0.4-0.1C5.8,15.2,5.9,15.3,6.1,15.4z"/>
	<path class="st3" d="M5.5,16.7c0.3,0,0.4,0.1,0.6,0.2c0.2,0.1,0.4,0.3,0.9,0.3s0.7-0.2,0.9-0.3c0.2-0.1,0.3-0.2,0.6-0.2
		c0.3,0,0.4,0.1,0.6,0.2c0.2,0.1,0.4,0.3,0.9,0.3s0.7-0.2,0.9-0.3c0.2-0.1,0.3-0.2,0.6-0.2s0.4,0.1,0.6,0.2c0.2,0.1,0.4,0.3,0.9,0.3
		c0.5,0,0.7-0.2,0.9-0.3c0.2-0.1,0.3-0.2,0.6-0.2s0.4,0.1,0.6,0.2c0.2,0.1,0.4,0.3,0.9,0.3c0.5,0,0.7-0.2,0.9-0.3
		c0.2-0.1,0.3-0.2,0.6-0.2c0,0,0,0,0,0l-0.2-0.5c-0.4,0-0.6,0.2-0.8,0.3c-0.2,0.1-0.3,0.2-0.6,0.2s-0.4-0.1-0.6-0.2
		c-0.2-0.1-0.4-0.3-0.9-0.3s-0.7,0.2-0.9,0.3c-0.2,0.1-0.3,0.2-0.6,0.2c-0.3,0-0.4-0.1-0.6-0.2c-0.2-0.1-0.4-0.3-0.9-0.3
		c-0.5,0-0.7,0.2-0.9,0.3c-0.2,0.1-0.3,0.2-0.6,0.2c-0.3,0-0.4-0.1-0.6-0.2c-0.2-0.1-0.4-0.3-0.9-0.3s-0.7,0.2-0.9,0.3
		c-0.2,0.1-0.3,0.2-0.6,0.2c-0.3,0-0.4-0.1-0.6-0.2c-0.2-0.1-0.4-0.3-0.9-0.3c-0.4,0-0.6,0.1-0.8,0.2l-0.2,0.7
		c0.1-0.1,0.3-0.1,0.4-0.2C5.1,16.8,5.2,16.7,5.5,16.7z"/>
</g>
</svg>
