<?xml version="1.0" encoding="utf-8"?>
<!-- Generator: Adobe Illustrator 25.4.1, SVG Export Plug-In . SVG Version: 6.00 Build 0)  -->
<svg version="1.1" id="Ebene_1" xmlns="http://www.w3.org/2000/svg" xmlns:xlink="http://www.w3.org/1999/xlink" x="0px" y="0px"
	 viewBox="0 0 22.7 27.1" style="enable-background:new 0 0 22.7 27.1;" xml:space="preserve">
<style type="text/css">
	.st0{fill:#4464AD;}
	.st1{fill:#350D24;}
	.st2{fill:#3E6933;}
	.st3{fill:#FFFFFF;}
</style>
<path class="st0" d="M12,0h-1.8c-5,0-9.1,4.1-9.1,9.1v0h20v0C21.1,4.1,17,0,12,0z"/>
<path class="st1" d="M18.6,11.6H3.6c-1.4,0-2.5-1.1-2.5-2.5v0c0-1.4,1.1-2.5,2.5-2.5h14.9c1.4,0,2.5,1.1,2.5,2.5v0
	C21.1,10.5,20,11.6,18.6,11.6z"/>
<g>
	<path class="st2" d="M21.1,27.1l-2.8-8.8c0,0-0.1,0-0.1,0c-0.3,0-0.4,0.1-0.6,0.2c-0.2,0.1-0.4,0.3-0.9,0.3c-0.5,0-0.7-0.2-0.9-0.3
		c-0.2-0.1-0.3-0.2-0.6-0.2s-0.4,0.1-0.6,0.2c-0.2,0.1-0.4,0.3-0.9,0.3c-0.5,0-0.7-0.2-0.9-0.3c-0.2-0.1-0.3-0.2-0.6-0.2
		s-0.4,0.1-0.6,0.2c-0.2,0.1-0.4,0.3-0.9,0.3s-0.7-0.2-0.9-0.3c-0.2-0.1-0.3-0.2-0.6-0.2c-0.3,0-0.4,0.1-0.6,0.2
		c-0.2,0.1-0.4,0.3-0.9,0.3s-0.7-0.2-0.9-0.3c-0.2-0.1-0.3-0.2-0.6-0.2s-0.4,0.1-0.6,0.2c-0.2,0.1-0.4,0.3-0.9,0.3
		c-0.2,0-0.4,0-0.5-0.1l-2.4,8.3H21.1z"/>
	<path class="st2" d="M5.1,18.1C5.3,18,5.5,17.8,6,17.8c0.5,0,0.7,0.2,0.9,0.3c0.2,0.1,0.3,0.2,0.6,0.2c0.3,0,0.4-0.1,0.6-0.2
		C8.3,18,8.6,17.8,9,17.8s0.7,0.2,0.9,0.3c0.2,0.1,0.3,0.2,0.6,0.2c0.3,0,0.4-0.1,0.6-0.2c0.2-0.1,0.4-0.3,0.9-0.3s0.7,0.2,0.9,0.3
		c0.2,0.1,0.3,0.2,0.6,0.2s0.4-0.1,0.6-0.2c0.2-0.1,0.4-0.3,0.9-0.3c0.5,0,0.7,0.2,0.9,0.3c0.2,0.1,0.3,0.2,0.6,0.2
		c0.3,0,0.4-0.1,0.6-0.2c0.2-0.1,0.4-0.3,0.9-0.3l-0.3-0.9c-0.1,0-0.2,0.1-0.3,0.2c-0.2,0.1-0.4,0.3-0.9,0.3c-0.5,0-0.7-0.2-0.9-0.3
		c-0.2-0.1-0.3-0.2-0.6-0.2s-0.4,0.1-0.6,0.2c-0.2,0.1-0.4,0.3-0.9,0.3c-0.5,0-0.7-0.2-0.9-0.3c-0.2-0.1-0.3-0.2-0.6-0.2
		c-0.3,0-0.4,0.1-0.6,0.2c-0.2,0.1-0.4,0.3-0.9,0.3S9.8,17.2,9.6,17c-0.2-0.1-0.3-0.2-0.6-0.2c-0.3,0-0.4,0.1-0.6,0.2
		c-0.2,0.1-0.4,0.3-0.9,0.3S6.8,17.2,6.6,17c-0.2-0.1-0.3-0.2-0.6-0.2S5.6,16.9,5.4,17c-0.2,0.1-0.4,0.3-0.9,0.3c0,0-0.1,0-0.1,0
		l-0.3,0.9c0.1,0.1,0.2,0.1,0.4,0.1C4.8,18.4,4.9,18.3,5.1,18.1z"/>
	<path class="st2" d="M6,16.3c0.5,0,0.7,0.2,0.9,0.3c0.2,0.1,0.3,0.2,0.6,0.2c0.3,0,0.4-0.1,0.6-0.2c0.2-0.1,0.4-0.3,0.9-0.3
		s0.7,0.2,0.9,0.3c0.2,0.1,0.3,0.2,0.6,0.2c0.3,0,0.4-0.1,0.6-0.2c0.2-0.1,0.4-0.3,0.9-0.3s0.7,0.2,0.9,0.3c0.2,0.1,0.3,0.2,0.6,0.2
		s0.4-0.1,0.6-0.2c0.2-0.1,0.4-0.3,0.9-0.3c0.5,0,0.7,0.2,0.9,0.3c0.2,0.1,0.3,0.2,0.6,0.2s0.4-0.1,0.6-0.2c0.1-0.1,0.3-0.2,0.4-0.2
		l-3.1-9.8H7.4L4.5,16.9c0.3,0,0.4-0.1,0.6-0.2C5.3,16.5,5.5,16.3,6,16.3z"/>
	<path class="st3" d="M5.4,17c0.2-0.1,0.3-0.2,0.6-0.2s0.4,0.1,0.6,0.2c0.2,0.1,0.4,0.3,0.9,0.3s0.7-0.2,0.9-0.3
		c0.2-0.1,0.3-0.2,0.6-0.2c0.3,0,0.4,0.1,0.6,0.2c0.2,0.1,0.4,0.3,0.9,0.3s0.7-0.2,0.9-0.3c0.2-0.1,0.3-0.2,0.6-0.2
		c0.3,0,0.4,0.1,0.6,0.2c0.2,0.1,0.4,0.3,0.9,0.3c0.5,0,0.7-0.2,0.9-0.3c0.2-0.1,0.3-0.2,0.6-0.2s0.4,0.1,0.6,0.2
		c0.2,0.1,0.4,0.3,0.9,0.3c0.5,0,0.7-0.2,0.9-0.3c0.1-0.1,0.2-0.1,0.3-0.2l-0.1-0.5c-0.2,0.1-0.3,0.2-0.4,0.2
		c-0.2,0.1-0.3,0.2-0.6,0.2s-0.4-0.1-0.6-0.2c-0.2-0.1-0.4-0.3-0.9-0.3c-0.5,0-0.7,0.2-0.9,0.3c-0.2,0.1-0.3,0.2-0.6,0.2
		s-0.4-0.1-0.6-0.2c-0.2-0.1-0.4-0.3-0.9-0.3s-0.7,0.2-0.9,0.3c-0.2,0.1-0.3,0.2-0.6,0.2c-0.3,0-0.4-0.1-0.6-0.2
		c-0.2-0.1-0.4-0.3-0.9-0.3s-0.7,0.2-0.9,0.3c-0.2,0.1-0.3,0.2-0.6,0.2c-0.3,0-0.4-0.1-0.6-0.2c-0.2-0.1-0.4-0.3-0.9-0.3
		c-0.5,0-0.7,0.2-0.9,0.3c-0.2,0.1-0.3,0.2-0.6,0.2l-0.1,0.5c0,0,0.1,0,0.1,0C4.9,17.4,5.2,17.2,5.4,17z"/>
	<path class="st3" d="M5.4,18.5c0.2-0.1,0.3-0.2,0.6-0.2s0.4,0.1,0.6,0.2c0.2,0.1,0.4,0.3,0.9,0.3s0.7-0.2,0.9-0.3
		c0.2-0.1,0.3-0.2,0.6-0.2c0.3,0,0.4,0.1,0.6,0.2c0.2,0.1,0.4,0.3,0.9,0.3s0.7-0.2,0.9-0.3c0.2-0.1,0.3-0.2,0.6-0.2s0.4,0.1,0.6,0.2
		c0.2,0.1,0.4,0.3,0.9,0.3c0.5,0,0.7-0.2,0.9-0.3c0.2-0.1,0.3-0.2,0.6-0.2s0.4,0.1,0.6,0.2c0.2,0.1,0.4,0.3,0.9,0.3
		c0.5,0,0.7-0.2,0.9-0.3c0.2-0.1,0.3-0.2,0.6-0.2c0,0,0.1,0,0.1,0l-0.2-0.5c-0.4,0-0.7,0.2-0.9,0.3c-0.2,0.1-0.3,0.2-0.6,0.2
		c-0.3,0-0.4-0.1-0.6-0.2c-0.2-0.1-0.4-0.3-0.9-0.3c-0.5,0-0.7,0.2-0.9,0.3c-0.2,0.1-0.3,0.2-0.6,0.2s-0.4-0.1-0.6-0.2
		c-0.2-0.1-0.4-0.3-0.9-0.3s-0.7,0.2-0.9,0.3c-0.2,0.1-0.3,0.2-0.6,0.2c-0.3,0-0.4-0.1-0.6-0.2C9.7,18,9.5,17.8,9,17.8
		S8.3,18,8.1,18.1c-0.2,0.1-0.3,0.2-0.6,0.2c-0.3,0-0.4-0.1-0.6-0.2C6.7,18,6.5,17.8,6,17.8c-0.5,0-0.7,0.2-0.9,0.3
		c-0.2,0.1-0.3,0.2-0.6,0.2c-0.2,0-0.3,0-0.4-0.1L4,18.8c0.1,0.1,0.3,0.1,0.5,0.1C4.9,18.9,5.2,18.7,5.4,18.5z"/>
</g>
</svg>
