<?xml version="1.0" encoding="utf-8"?>
<!-- Generator: Adobe Illustrator 25.4.1, SVG Export Plug-In . SVG Version: 6.00 Build 0)  -->
<svg version="1.1" id="Ebene_1" xmlns="http://www.w3.org/2000/svg" xmlns:xlink="http://www.w3.org/1999/xlink" x="0px" y="0px"
	 viewBox="0 0 22.7 27.1" style="enable-background:new 0 0 22.7 27.1;" xml:space="preserve">
<style type="text/css">
	.st0{fill:#4464AD;}
	.st1{fill:#FDD245;}
	.st2{fill:#D0182E;}
	.st3{fill:#FFFFFF;}
</style>
<rect x="1.9" y="5.3" class="st0" width="18.9" height="4.3"/>
<path class="st1" d="M18.9,7.9H3.8c-1,0-1.9,0.9-1.9,1.9v0.7c0,1,0.9,1.9,1.9,1.9h15.1c1,0,1.9-0.9,1.9-1.9V9.8
	C20.8,8.8,19.9,7.9,18.9,7.9z"/>
<path class="st0" d="M11.6,5.7c0-0.1,0-0.3,0-0.4c0-2.7-2.2-4.9-4.9-4.9S1.9,2.6,1.9,5.3c0,0.1,0,0.3,0,0.4H11.6z"/>
<path class="st0" d="M20.8,5.7c0-0.1,0-0.3,0-0.4c0-2.7-2.2-4.9-4.9-4.9c-2.7,0-4.9,2.2-4.9,4.9c0,0.1,0,0.3,0,0.4H20.8z"/>
<g>
	<polygon class="st2" points="8.4,14.9 9.7,14.3 11,14.9 12.2,14.3 13.5,14.9 14.8,14.3 15.9,14.8 15,7.8 7.8,7.8 6.8,14.5 
		7.2,14.3 	"/>
	<polygon class="st2" points="8.9,16.5 10.1,15.9 11.4,16.5 12.7,15.9 13.9,16.5 15.2,15.9 16.1,16.3 16,15.4 14.8,14.8 13.5,15.4 
		12.2,14.8 11,15.4 9.7,14.8 8.4,15.4 7.2,14.8 6.7,15 6.6,16.4 7.6,15.9 	"/>
	<polygon class="st2" points="13.9,17 12.7,16.4 11.4,17 10.1,16.4 8.9,17 7.6,16.4 6.5,16.9 5.1,27.1 17.6,27.1 16.2,16.9 
		15.2,16.4 	"/>
	<polygon class="st3" points="8.4,15.4 9.7,14.8 11,15.4 12.2,14.8 13.5,15.4 14.8,14.8 16,15.4 15.9,14.8 14.8,14.3 13.5,14.9 
		12.2,14.3 11,14.9 9.7,14.3 8.4,14.9 7.2,14.3 6.8,14.5 6.7,15 7.2,14.8 	"/>
	<polygon class="st3" points="15.2,15.9 13.9,16.5 12.7,15.9 11.4,16.5 10.1,15.9 8.9,16.5 7.6,15.9 6.6,16.4 6.5,16.9 7.6,16.4 
		8.9,17 10.1,16.4 11.4,17 12.7,16.4 13.9,17 15.2,16.4 16.2,16.9 16.1,16.3 	"/>
</g>
</svg>
