<?xml version="1.0" encoding="utf-8"?>
<!-- Generator: Adobe Illustrator 25.4.1, SVG Export Plug-In . SVG Version: 6.00 Build 0)  -->
<svg version="1.1" id="Ebene_1" xmlns="http://www.w3.org/2000/svg" xmlns:xlink="http://www.w3.org/1999/xlink" x="0px" y="0px"
	 viewBox="0 0 22.7 27.1" style="enable-background:new 0 0 22.7 27.1;" xml:space="preserve">
<style type="text/css">
	.st0{fill:#D0182E;}
	.st1{fill:#3E6933;}
	.st2{fill:#350D24;}
	.st3{fill:#FFFFFF;}
</style>
<rect x="1.4" y="5.6" class="st0" width="19.9" height="5.9"/>
<path class="st1" d="M19.4,13.3H3.2c-1,0-1.8-0.8-1.8-1.8v0c0-1,0.8-1.8,1.8-1.8h16.2c1,0,1.8,0.8,1.8,1.8v0
	C21.3,12.5,20.4,13.3,19.4,13.3z"/>
<ellipse class="st0" cx="4.8" cy="4.6" rx="3.5" ry="4.3"/>
<ellipse class="st0" cx="11.3" cy="4.6" rx="3.5" ry="4.3"/>
<ellipse class="st0" cx="17.8" cy="4.6" rx="3.5" ry="4.3"/>
<g>
	<polygon class="st2" points="7.9,15.9 9.2,15.4 10.5,15.9 11.7,15.4 13,15.9 14.3,15.4 15.5,15.9 16.5,15.5 14.9,9.7 7.9,9.7 
		6.4,15.5 6.7,15.4 	"/>
	<polygon class="st2" points="7.1,17 8.4,17.5 9.6,17 10.9,17.5 12.2,17 13.4,17.5 14.7,17 16,17.5 17,17.1 16.7,16 15.5,16.5 
		14.3,15.9 13,16.5 11.7,15.9 10.5,16.5 9.2,15.9 7.9,16.5 6.7,15.9 6.2,16.1 5.8,17.5 5.8,17.5 	"/>
	<polygon class="st2" points="19.8,27.1 17.1,17.6 16,18.1 14.7,17.5 13.4,18.1 12.2,17.5 10.9,18.1 9.6,17.5 8.4,18.1 7.1,17.5 
		5.8,18.1 5.7,18 3.3,27.1 	"/>
	<polygon class="st3" points="7.9,16.5 9.2,15.9 10.5,16.5 11.7,15.9 13,16.5 14.3,15.9 15.5,16.5 16.7,16 16.5,15.5 15.5,15.9 
		14.3,15.4 13,15.9 11.7,15.4 10.5,15.9 9.2,15.4 7.9,15.9 6.7,15.4 6.4,15.5 6.2,16.1 6.7,15.9 	"/>
	<polygon class="st3" points="7.1,17.5 8.4,18.1 9.6,17.5 10.9,18.1 12.2,17.5 13.4,18.1 14.7,17.5 16,18.1 17.1,17.6 17,17.1 
		16,17.5 14.7,17 13.4,17.5 12.2,17 10.9,17.5 9.6,17 8.4,17.5 7.1,17 5.8,17.5 5.8,17.5 5.7,18 5.8,18.1 	"/>
</g>
</svg>
