<?xml version="1.0" encoding="utf-8"?>
<!-- Generator: Adobe Illustrator 25.4.1, SVG Export Plug-In . SVG Version: 6.00 Build 0)  -->
<svg version="1.1" id="Ebene_1" xmlns="http://www.w3.org/2000/svg" xmlns:xlink="http://www.w3.org/1999/xlink" x="0px" y="0px"
	 viewBox="0 0 22.7 27.1" style="enable-background:new 0 0 22.7 27.1;" xml:space="preserve">
<style type="text/css">
	.st0{fill:#D0182E;}
	.st1{fill:#4464AD;}
	.st2{fill:#FDD245;}
	.st3{fill:#FFFFFF;}
</style>
<path class="st0" d="M17.5,4H5.2C2.8,4,0.8,6,0.8,8.4v2.3H22V8.5C22,6,19.9,4,17.5,4z"/>
<path class="st1" d="M20,8.6H2.8c-1.1,0-1.9,0.9-1.9,1.9v0.3c0,1.1,0.9,1.9,1.9,1.9H20c1.1,0,1.9-0.9,1.9-1.9v-0.3
	C22,9.4,21.1,8.6,20,8.6z"/>
<polygon class="st2" points="17.7,27.1 5.1,27.1 7.8,8.6 15,8.6 "/>
<polygon class="st0" points="11.4,0.3 12.9,2.2 14.4,4.1 11.4,4.1 8.3,4.1 9.9,2.2 "/>
<path class="st3" d="M16,15.7l-0.3,0.1l-1.3-0.6l-1.3,0.6L12,15.2l-1.3,0.6l-1.3-0.6l-1.3,0.6l-1.3-0.6l-0.1,0c0,0.2,0,0.4-0.1,0.6
	l0.2-0.1l1.3,0.6l1.3-0.6l1.3,0.6l1.3-0.6l1.3,0.6l1.3-0.6l1.3,0.6l0.3-0.1C16.1,16,16.1,15.9,16,15.7z"/>
</svg>
