<?xml version="1.0" standalone="no"?>
<!DOCTYPE svg PUBLIC "-//W3C//DTD SVG 20010904//EN"
 "http://www.w3.org/TR/2001/REC-SVG-20010904/DTD/svg10.dtd">
<svg version="1.0" xmlns="http://www.w3.org/2000/svg"
 width="700.000000pt" height="700.000000pt" viewBox="0 0 700.000000 700.000000"
 preserveAspectRatio="xMidYMid meet">
<metadata>
Created by potrace 1.14, written by Peter Selinger 2001-2017
</metadata>
<g transform="translate(0.000000,700.000000) scale(0.100000,-0.100000)"
fill="#000000" stroke="none">
<path d="M3348 6955 c-2 -1 -37 -5 -78 -9 -41 -3 -85 -8 -96 -10 -12 -3 -37
-7 -55 -10 -238 -38 -462 -139 -589 -266 -63 -63 -229 -115 -403 -125 -59 -3
-113 -8 -120 -10 -7 -3 -30 -7 -52 -9 -153 -15 -401 -116 -570 -233 -108 -75
-287 -258 -356 -363 -178 -272 -243 -500 -242 -855 1 -130 3 -145 28 -219 46
-133 171 -244 310 -276 55 -13 1535 -17 1555 -5 8 5 7 11 -2 23 -8 10 -9 13
-1 9 7 -4 14 0 17 10 6 22 1 -23 -14 -137 -7 -47 -14 -98 -16 -113 -2 -15 -5
-44 -8 -65 -3 -20 -10 -74 -16 -119 -6 -46 -13 -97 -15 -115 -3 -18 -7 -55
-10 -83 -3 -27 -8 -61 -10 -75 -2 -14 -6 -45 -10 -70 -3 -25 -10 -76 -15 -115
-5 -38 -12 -90 -15 -115 -12 -99 -18 -127 -37 -165 -39 -78 -92 -119 -181
-140 l-48 -11 75 -32 c41 -17 89 -33 106 -34 l32 -2 -6 -51 c-5 -47 -8 -60
-21 -125 -3 -14 -7 -43 -11 -65 -3 -22 -12 -78 -19 -125 -8 -47 -17 -103 -20
-125 -3 -22 -10 -62 -15 -90 -5 -27 -12 -68 -15 -90 -3 -22 -10 -65 -15 -95
-13 -73 -18 -107 -25 -155 -6 -35 -48 -294 -60 -365 -2 -14 -11 -68 -20 -120
-8 -52 -17 -104 -19 -116 -2 -12 -7 -45 -11 -75 -4 -30 -8 -57 -10 -60 -2 -3
-6 -25 -9 -50 -3 -24 -8 -55 -11 -69 -3 -14 -8 -45 -11 -70 -3 -25 -8 -54 -10
-65 -2 -11 -9 -49 -15 -85 -5 -36 -12 -78 -15 -95 -3 -16 -7 -43 -10 -60 -3
-16 -7 -41 -9 -55 -2 -14 -17 -108 -34 -210 -17 -102 -42 -257 -56 -345 -14
-88 -28 -171 -30 -185 -2 -14 -7 -42 -10 -64 -4 -21 -8 -46 -10 -55 -17 -96
-17 -98 7 -102 13 -3 676 -4 1473 -4 1435 1 1450 1 1450 20 1 11 -2 36 -6 55
-4 19 -10 58 -14 85 -8 61 -9 64 -29 195 -9 58 -21 137 -26 175 -6 39 -12 77
-15 85 -2 8 -6 33 -9 55 -3 22 -7 57 -10 78 -3 20 -8 54 -11 75 -3 20 -10 62
-15 92 -5 30 -12 75 -15 100 -4 25 -13 86 -20 135 -8 50 -17 108 -20 130 -4
22 -12 78 -20 125 -8 47 -17 105 -20 130 -3 25 -8 56 -10 70 -2 14 -9 57 -15
95 -6 39 -13 86 -16 105 -2 19 -8 60 -14 90 -5 30 -11 71 -14 90 -13 88 -18
119 -26 170 -5 30 -12 73 -15 95 -3 22 -15 99 -26 170 -10 72 -22 146 -24 165
-3 19 -10 62 -15 95 -8 50 -33 213 -54 355 -3 19 -10 57 -15 83 -9 52 -10 50
42 61 26 6 157 63 157 68 0 2 -16 4 -36 5 -107 5 -194 105 -209 238 -7 63 -12
106 -20 165 -10 79 -16 126 -45 365 -37 310 -40 333 -45 370 -3 17 -7 49 -9
73 l-5 42 117 0 c64 0 392 0 727 0 378 0 632 4 669 11 132 23 263 123 319 242
38 81 42 109 40 297 -1 256 -40 424 -149 646 -180 364 -531 647 -929 748 -54
13 -79 18 -180 31 -16 3 -66 7 -110 10 -101 7 -125 11 -205 37 -94 30 -132 52
-176 98 -92 98 -314 207 -477 235 -17 3 -48 10 -67 15 -19 4 -60 12 -90 15
-30 4 -64 9 -75 12 -23 4 -362 12 -367 8z"/>
</g>
</svg>
